Merriweather35-BlackDisplayWide.ufo
<glyph name="quotedbl" format="2">
  <advance width="1145"/>
  <unicode hex="0022"/>
  <outline>
    <contour>
      <point x="473" y="1682" type="line"/>
      <point x="190" y="1682" type="line"/>
      <point x="308" y="939" type="line"/>
      <point x="353" y="939" type="line"/>
    </contour>
    <contour>
      <point x="959" y="1682" type="line"/>
      <point x="675" y="1682" type="line"/>
      <point x="793" y="939" type="line"/>
      <point x="839" y="939" type="line"/>
    </contour>
  </outline>
</glyph>
<glyph name="numbersign" format="2">
  <advance width="1562"/>
  <unicode hex="0023"/>
  <outline>
    <contour>
      <point x="103" y="401" type="line"/>
      <point x="357" y="401" type="line"/>
      <point x="305" y="0" type="line"/>
      <point x="547" y="0" type="line"/>
      <point x="597" y="401" type="line"/>
      <point x="932" y="401" type="line"/>
      <point x="885" y="0" type="line"/>
      <point x="1124" y="0" type="line"/>
      <point x="1173" y="401" type="line"/>
      <point x="1477" y="401" type="line"/>
      <point x="1476" y="568" type="line"/>
      <point x="1199" y="568" type="line"/>
      <point x="1237" y="907" type="line"/>
      <point x="1525" y="907" type="line"/>
      <point x="1525" y="1072" type="line"/>
      <point x="1267" y="1072" type="line"/>
      <point x="1322" y="1486" type="line"/>
      <point x="1081" y="1486" type="line"/>
      <point x="1028" y="1072" type="line"/>
      <point x="695" y="1072" type="line"/>
      <point x="747" y="1486" type="line"/>
      <point x="508" y="1486" type="line"/>
      <point x="455" y="1072" type="line"/>
      <point x="157" y="1072" type="line"/>
      <point x="157" y="907" type="line"/>
      <point x="424" y="907" type="line"/>
      <point x="385" y="568" type="line"/>
      <point x="102" y="568" type="line"/>
    </contour>
    <contour>
      <point x="996" y="907" type="line"/>
      <point x="953" y="568" type="line"/>
      <point x="623" y="568" type="line"/>
      <point x="663" y="907" type="line"/>
    </contour>
  </outline>
</glyph>
<glyph name="parenleft" format="2">
  <advance width="957"/>
  <unicode hex="0028"/>
  <outline>
    <contour>
      <point x="131" y="668" type="curve" smooth="yes"/>
      <point x="131" y="-35"/>
      <point x="675" y="-324"/>
      <point x="811" y="-382" type="curve"/>
      <point x="850" y="-351" type="line"/>
      <point x="698" y="-242"/>
      <point x="485" y="75"/>
      <point x="501" y="695" type="curve" smooth="yes"/>
      <point x="516" y="1270"/>
      <point x="713" y="1544"/>
      <point x="853" y="1638" type="curve"/>
      <point x="815" y="1670" type="line"/>
      <point x="662" y="1592"/>
      <point x="131" y="1267"/>
    </contour>
  </outline>
</glyph>
<glyph name="asterisk" format="2">
  <advance width="1128"/>
  <unicode hex="002A"/>
  <outline>
    <contour>
      <point x="243" y="1087" type="line"/>
      <point x="68" y="1006" type="line"/>
      <point x="173" y="824" type="line"/>
      <point x="333" y="942" type="line"/>
      <point x="537" y="1133" type="line"/>
      <point x="485" y="856" type="line"/>
      <point x="467" y="663" type="line"/>
      <point x="677" y="663" type="line"/>
      <point x="655" y="861" type="line"/>
      <point x="591" y="1133" type="line"/>
      <point x="805" y="949" type="line"/>
      <point x="963" y="837" type="line"/>
      <point x="1068" y="1019" type="line"/>
      <point x="886" y="1099" type="line"/>
      <point x="618" y="1180" type="line"/>
      <point x="885" y="1273" type="line"/>
      <point x="1060" y="1354" type="line"/>
      <point x="955" y="1536" type="line"/>
      <point x="795" y="1418" type="line"/>
      <point x="591" y="1227" type="line"/>
      <point x="643" y="1504" type="line"/>
      <point x="661" y="1697" type="line"/>
      <point x="451" y="1697" type="line"/>
      <point x="473" y="1499" type="line"/>
      <point x="537" y="1227" type="line"/>
      <point x="323" y="1411" type="line"/>
      <point x="165" y="1523" type="line"/>
      <point x="60" y="1341" type="line"/>
      <point x="242" y="1261" type="line"/>
      <point x="510" y="1180" type="line"/>
    </contour>
  </outline>
</glyph>
<glyph name="slash" format="2">
  <advance width="724"/>
  <unicode hex="002F"/>
  <outline>
    <contour>
      <point x="686" y="1562" type="line"/>
      <point x="592" y="1562" type="line"/>
      <point x="38" y="-354" type="line"/>
      <point x="134" y="-354" type="line"/>
    </contour>
  </outline>
</glyph>
<glyph name="zero" format="2">
  <advance width="1513"/>
  <unicode hex="0030"/>
  <outline>
    <contour>
      <point x="722" y="-21" type="curve" smooth="yes"/>
      <point x="1136" y="-21"/>
      <point x="1433" y="253"/>
      <point x="1433" y="781" type="curve" smooth="yes"/>
      <point x="1433" y="1265"/>
      <point x="1159" y="1505"/>
      <point x="791" y="1505" type="curve" smooth="yes"/>
      <point x="401" y="1505"/>
      <point x="81" y="1233"/>
      <point x="80" y="702" type="curve" smooth="yes"/>
      <point x="79" y="222"/>
      <point x="349" y="-21"/>
    </contour>
    <contour>
      <point x="760" y="36" type="curve" smooth="yes"/>
      <point x="608" y="36"/>
      <point x="515" y="182"/>
      <point x="515" y="722" type="curve" smooth="yes"/>
      <point x="515" y="1287"/>
      <point x="613" y="1443"/>
      <point x="756" y="1443" type="curve" smooth="yes"/>
      <point x="901" y="1443"/>
      <point x="998" y="1336"/>
      <point x="998" y="742" type="curve" smooth="yes"/>
      <point x="998" y="220"/>
      <point x="928" y="36"/>
    </contour>
  </outline>
</glyph>
<glyph name="four" format="2">
  <advance width="1326"/>
  <unicode hex="0034"/>
  <outline>
    <contour>
      <point x="691" y="0" type="line"/>
      <point x="1078" y="0" type="line"/>
      <point x="1078" y="291" type="line"/>
      <point x="1276" y="291" type="line"/>
      <point x="1276" y="434" type="line"/>
      <point x="1077" y="424" type="line"/>
      <point x="1077" y="867" type="line"/>
      <point x="719" y="833" type="line"/>
      <point x="693" y="385" type="line"/>
      <point x="215" y="342" type="line"/>
      <point x="446" y="670" type="line"/>
      <point x="883" y="1341" type="line"/>
      <point x="566" y="1501" type="line"/>
      <point x="470" y="1501" type="line"/>
      <point x="345" y="1217"/>
      <point x="140" y="756"/>
      <point x="-28" y="442" type="curve"/>
      <point x="53" y="291" type="line"/>
      <point x="691" y="291" type="line"/>
    </contour>
  </outline>
</glyph>
<glyph name="five" format="2">
  <advance width="1251"/>
  <unicode hex="0035"/>
  <outline>
    <contour>
      <point x="89" y="69" type="curve"/>
      <point x="90" y="7" type="line"/>
      <point x="178" y="-27"/>
      <point x="350" y="-37"/>
      <point x="436" y="-34" type="curve" smooth="yes"/>
      <point x="816" y="-21"/>
      <point x="1169" y="192"/>
      <point x="1169" y="539" type="curve" smooth="yes"/>
      <point x="1169" y="813"/>
      <point x="1000" y="935"/>
      <point x="705" y="935" type="curve" smooth="yes"/>
      <point x="538" y="935"/>
      <point x="295" y="843"/>
      <point x="184" y="729" type="curve"/>
      <point x="311" y="1192" type="line"/>
      <point x="1071" y="1192" type="line"/>
      <point x="1121" y="1524" type="line"/>
      <point x="1030" y="1524" type="line"/>
      <point x="1000" y="1486" type="line"/>
      <point x="206" y="1486" type="line"/>
      <point x="96" y="729" type="line"/>
      <point x="177" y="684" type="line"/>
      <point x="272" y="741"/>
      <point x="381" y="751"/>
      <point x="490" y="751" type="curve" smooth="yes"/>
      <point x="669" y="751"/>
      <point x="758" y="611"/>
      <point x="758" y="453" type="curve" smooth="yes"/>
      <point x="758" y="214"/>
      <point x="587" y="62"/>
      <point x="347" y="53" type="curve" smooth="yes"/>
      <point x="244" y="49"/>
      <point x="152" y="56"/>
    </contour>
  </outline>
</glyph>
<glyph name="six" format="2">
  <advance width="1322"/>
  <unicode hex="0036"/>
  <outline>
    <contour>
      <point x="672" y="-38" type="curve" smooth="yes"/>
      <point x="983" y="-38"/>
      <point x="1256" y="155"/>
      <point x="1256" y="511" type="curve" smooth="yes"/>
      <point x="1256" y="804"/>
      <point x="1066" y="939"/>
      <point x="857" y="939" type="curve" smooth="yes"/>
      <point x="720" y="939"/>
      <point x="572" y="876"/>
      <point x="490" y="742" type="curve"/>
      <point x="522" y="1023"/>
      <point x="647" y="1362"/>
      <point x="1023" y="1447" type="curve"/>
      <point x="992" y="1507" type="line"/>
      <point x="485" y="1489"/>
      <point x="80" y="1075"/>
      <point x="80" y="594" type="curve" smooth="yes"/>
      <point x="80" y="251"/>
      <point x="293" y="-38"/>
    </contour>
    <contour>
      <point x="663" y="781" type="curve" smooth="yes"/>
      <point x="792" y="781"/>
      <point x="850" y="592"/>
      <point x="850" y="401" type="curve" smooth="yes"/>
      <point x="850" y="214"/>
      <point x="791" y="27"/>
      <point x="666" y="27" type="curve" smooth="yes"/>
      <point x="551" y="27"/>
      <point x="483" y="178"/>
      <point x="483" y="506" type="curve" smooth="yes"/>
      <point x="483" y="585"/>
      <point x="487" y="643"/>
      <point x="490" y="688" type="curve"/>
      <point x="521" y="725"/>
      <point x="588" y="781"/>
    </contour>
  </outline>
</glyph>
<glyph name="seven" format="2">
  <advance width="1147"/>
  <unicode hex="0037"/>
  <outline>
    <contour>
      <point x="706" y="0" type="line"/>
      <point x="1177" y="1435" type="line"/>
      <point x="1128" y="1486" type="line"/>
      <point x="103" y="1486" type="line"/>
      <point x="36" y="1003" type="line"/>
      <point x="112" y="987" type="line"/>
      <point x="194" y="1170" type="line"/>
      <point x="1029" y="1170" type="line"/>
      <point x="810" y="816"/>
      <point x="586" y="451"/>
      <point x="292" y="0" type="curve"/>
    </contour>
  </outline>
</glyph>
<glyph name="eight" format="2">
  <advance width="1254"/>
  <unicode hex="0038"/>
  <outline>
    <contour>
      <point x="25" y="351" type="curve" smooth="yes"/>
      <point x="25" y="83"/>
      <point x="331" y="-22"/>
      <point x="617" y="-22" type="curve" smooth="yes"/>
      <point x="970" y="-22"/>
      <point x="1226" y="136"/>
      <point x="1226" y="427" type="curve" smooth="yes"/>
      <point x="1226" y="646"/>
      <point x="1078" y="741"/>
      <point x="826" y="866" type="curve"/>
      <point x="1019" y="918"/>
      <point x="1150" y="1017"/>
      <point x="1150" y="1184" type="curve" smooth="yes"/>
      <point x="1150" y="1408"/>
      <point x="913" y="1506"/>
      <point x="661" y="1506" type="curve" smooth="yes"/>
      <point x="361" y="1506"/>
      <point x="89" y="1369"/>
      <point x="89" y="1098" type="curve" smooth="yes"/>
      <point x="89" y="963"/>
      <point x="174" y="795"/>
      <point x="368" y="690" type="curve"/>
      <point x="148" y="649"/>
      <point x="25" y="521"/>
    </contour>
    <contour>
      <point x="435" y="1228" type="curve" smooth="yes"/>
      <point x="435" y="1369"/>
      <point x="536" y="1446"/>
      <point x="659" y="1446" type="curve" smooth="yes"/>
      <point x="814" y="1446"/>
      <point x="872" y="1329"/>
      <point x="872" y="1181" type="curve" smooth="yes"/>
      <point x="872" y="1061"/>
      <point x="834" y="948"/>
      <point x="769" y="895" type="curve"/>
      <point x="603" y="980"/>
      <point x="435" y="1048"/>
    </contour>
    <contour>
      <point x="852" y="262" type="curve" smooth="yes"/>
      <point x="852" y="119"/>
      <point x="755" y="37"/>
      <point x="621" y="37" type="curve" smooth="yes"/>
      <point x="435" y="37"/>
      <point x="331" y="194"/>
      <point x="331" y="388" type="curve" smooth="yes"/>
      <point x="331" y="501"/>
      <point x="365" y="606"/>
      <point x="428" y="657" type="curve"/>
      <point x="661" y="554"/>
      <point x="852" y="461"/>
    </contour>
  </outline>
</glyph>
<glyph name="nine" format="2">
  <advance width="1304"/>
  <unicode hex="0039"/>
  <outline>
    <contour>
      <point x="655" y="1506" type="curve" smooth="yes"/>
      <point x="344" y="1506"/>
      <point x="66" y="1315"/>
      <point x="66" y="972" type="curve" smooth="yes"/>
      <point x="66" y="645"/>
      <point x="289" y="498"/>
      <point x="498" y="498" type="curve" smooth="yes"/>
      <point x="640" y="498"/>
      <point x="787" y="560"/>
      <point x="830" y="700" type="curve"/>
      <point x="797" y="383"/>
      <point x="649" y="77"/>
      <point x="305" y="-8" type="curve"/>
      <point x="333" y="-66" type="line"/>
      <point x="850" y="-48"/>
      <point x="1241" y="352"/>
      <point x="1241" y="861" type="curve" smooth="yes"/>
      <point x="1241" y="1327"/>
      <point x="929" y="1506"/>
    </contour>
    <contour>
      <point x="650" y="650" type="curve" smooth="yes"/>
      <point x="514" y="650"/>
      <point x="472" y="855"/>
      <point x="472" y="1059" type="curve" smooth="yes"/>
      <point x="472" y="1285"/>
      <point x="536" y="1446"/>
      <point x="648" y="1446" type="curve" smooth="yes"/>
      <point x="775" y="1446"/>
      <point x="838" y="1296"/>
      <point x="838" y="934" type="curve" smooth="yes"/>
      <point x="838" y="855"/>
      <point x="834" y="803"/>
      <point x="830" y="759" type="curve"/>
      <point x="779" y="684"/>
      <point x="709" y="650"/>
    </contour>
  </outline>
</glyph>
<glyph name="colon" format="2">
  <advance width="585"/>
  <unicode hex="003A"/>
  <outline>
    <contour>
      <point x="274" y="720" type="curve" smooth="yes"/>
      <point x="398" y="720"/>
      <point x="477" y="780"/>
      <point x="477" y="885" type="curve" smooth="yes"/>
      <point x="477" y="963"/>
      <point x="419" y="1037"/>
      <point x="305" y="1037" type="curve" smooth="yes"/>
      <point x="192" y="1037"/>
      <point x="108" y="970"/>
      <point x="108" y="872" type="curve" smooth="yes"/>
      <point x="108" y="783"/>
      <point x="183" y="720"/>
    </contour>
    <contour>
      <point x="274" y="-16" type="curve" smooth="yes"/>
      <point x="398" y="-16"/>
      <point x="477" y="44"/>
      <point x="477" y="149" type="curve" smooth="yes"/>
      <point x="477" y="227"/>
      <point x="419" y="301"/>
      <point x="305" y="301" type="curve" smooth="yes"/>
      <point x="192" y="301"/>
      <point x="108" y="234"/>
      <point x="108" y="136" type="curve" smooth="yes"/>
      <point x="108" y="47"/>
      <point x="183" y="-16"/>
    </contour>
  </outline>
</glyph>
<glyph name="less" format="2">
  <advance width="1472"/>
  <unicode hex="003C"/>
  <outline>
    <contour>
      <point x="1234" y="1160" type="line"/>
      <point x="174" y="706" type="line"/>
      <point x="174" y="635" type="line"/>
      <point x="1234" y="186" type="line"/>
      <point x="1234" y="281" type="line"/>
      <point x="288" y="671" type="line"/>
      <point x="1234" y="1066" type="line"/>
    </contour>
  </outline>
</glyph>
<glyph name="equal" format="2">
  <advance width="1359"/>
  <unicode hex="003D"/>
  <outline>
    <contour>
      <point x="1179" y="970" type="line"/>
      <point x="180" y="970" type="line"/>
      <point x="180" y="884" type="line"/>
      <point x="1179" y="884" type="line"/>
    </contour>
    <contour>
      <point x="1179" y="459" type="line"/>
      <point x="180" y="459" type="line"/>
      <point x="180" y="373" type="line"/>
      <point x="1179" y="373" type="line"/>
    </contour>
  </outline>
</glyph>
<glyph name="question" format="2">
  <advance width="982"/>
  <unicode hex="003F"/>
  <outline>
    <contour>
      <point x="367" y="486" type="curve"/>
      <point x="434" y="486" type="line"/>
      <point x="422" y="574"/>
      <point x="414" y="652"/>
      <point x="414" y="727" type="curve" smooth="yes"/>
      <point x="414" y="759"/>
      <point x="418" y="805"/>
      <point x="433" y="824" type="curve" smooth="yes"/>
      <point x="513" y="926"/>
      <point x="964" y="972"/>
      <point x="964" y="1329" type="curve" smooth="yes"/>
      <point x="964" y="1603"/>
      <point x="715" y="1776"/>
      <point x="346" y="1776" type="curve" smooth="yes"/>
      <point x="180" y="1776"/>
      <point x="83" y="1739"/>
      <point x="28" y="1712" type="curve"/>
      <point x="50" y="1636" type="line"/>
      <point x="89" y="1654"/>
      <point x="163" y="1670"/>
      <point x="246" y="1670" type="curve" smooth="yes"/>
      <point x="479" y="1670"/>
      <point x="604" y="1524"/>
      <point x="604" y="1304" type="curve" smooth="yes"/>
      <point x="604" y="1113"/>
      <point x="559" y="985"/>
      <point x="469" y="950" type="curve" smooth="yes"/>
      <point x="298" y="883"/>
      <point x="258" y="848"/>
      <point x="258" y="783" type="curve" smooth="yes"/>
      <point x="258" y="696"/>
      <point x="333" y="545"/>
    </contour>
    <contour>
      <point x="381" y="-16" type="curve" smooth="yes"/>
      <point x="505" y="-16"/>
      <point x="584" y="44"/>
      <point x="584" y="149" type="curve" smooth="yes"/>
      <point x="584" y="227"/>
      <point x="526" y="301"/>
      <point x="412" y="301" type="curve" smooth="yes"/>
      <point x="299" y="301"/>
      <point x="215" y="234"/>
      <point x="215" y="136" type="curve" smooth="yes"/>
      <point x="215" y="47"/>
      <point x="290" y="-16"/>
    </contour>
  </outline>
</glyph>
<glyph name="at" format="2">
  <advance width="2244"/>
  <unicode hex="0040"/>
  <outline>
    <contour>
      <point x="167" y="335" type="curve" smooth="yes"/>
      <point x="167" y="-186"/>
      <point x="485" y="-522"/>
      <point x="965" y="-522" type="curve" smooth="yes"/>
      <point x="1169" y="-522"/>
      <point x="1386" y="-461"/>
      <point x="1493" y="-373" type="curve"/>
      <point x="1472" y="-328" type="line"/>
      <point x="1336" y="-405"/>
      <point x="1173" y="-438"/>
      <point x="1039" y="-438" type="curve" smooth="yes"/>
      <point x="615" y="-438"/>
      <point x="323" y="-107"/>
      <point x="323" y="378" type="curve" smooth="yes"/>
      <point x="323" y="946"/>
      <point x="724" y="1431"/>
      <point x="1252" y="1431" type="curve" smooth="yes"/>
      <point x="1631" y="1431"/>
      <point x="1979" y="1181"/>
      <point x="1979" y="732" type="curve" smooth="yes"/>
      <point x="1979" y="355"/>
      <point x="1734" y="125"/>
      <point x="1591" y="125" type="curve" smooth="yes"/>
      <point x="1540" y="125"/>
      <point x="1524" y="154"/>
      <point x="1525" y="257" type="curve" smooth="yes"/>
      <point x="1527" y="505"/>
      <point x="1616" y="879"/>
      <point x="1653" y="990" type="curve"/>
      <point x="1476" y="1046"/>
      <point x="1468" y="1050"/>
      <point x="1444" y="1050" type="curve" smooth="yes"/>
      <point x="1417" y="1050"/>
      <point x="1401" y="1050"/>
      <point x="1381" y="1003" type="curve"/>
      <point x="1310" y="1035"/>
      <point x="1228" y="1051"/>
      <point x="1158" y="1051" type="curve" smooth="yes"/>
      <point x="830" y="1051"/>
      <point x="589" y="697"/>
      <point x="589" y="354" type="curve" smooth="yes"/>
      <point x="589" y="117"/>
      <point x="704" y="-20"/>
      <point x="867" y="-20" type="curve" smooth="yes"/>
      <point x="1048" y="-20"/>
      <point x="1183" y="149"/>
      <point x="1266" y="418" type="curve"/>
      <point x="1238" y="279"/>
      <point x="1224" y="194"/>
      <point x="1228" y="140" type="curve" smooth="yes"/>
      <point x="1236" y="30"/>
      <point x="1318" y="-8"/>
      <point x="1424" y="-8" type="curve" smooth="yes"/>
      <point x="1730" y="-8"/>
      <point x="2108" y="305"/>
      <point x="2108" y="796" type="curve" smooth="yes"/>
      <point x="2108" y="1222"/>
      <point x="1824" y="1533"/>
      <point x="1348" y="1533" type="curve" smooth="yes"/>
      <point x="748" y="1533"/>
      <point x="167" y="1040"/>
    </contour>
    <contour>
      <point x="916" y="457" type="curve" smooth="yes"/>
      <point x="929" y="747"/>
      <point x="1046" y="992"/>
      <point x="1180" y="992" type="curve" smooth="yes"/>
      <point x="1229" y="992"/>
      <point x="1296" y="960"/>
      <point x="1345" y="911" type="curve"/>
      <point x="1340" y="856"/>
      <point x="1276" y="642"/>
      <point x="1251" y="568" type="curve" smooth="yes"/>
      <point x="1173" y="335"/>
      <point x="1077" y="193"/>
      <point x="1001" y="193" type="curve" smooth="yes"/>
      <point x="929" y="193"/>
      <point x="910" y="318"/>
    </contour>
  </outline>
</glyph>
<glyph name="A" format="2">
  <advance width="1367"/>
  <unicode hex="0041"/>
  <anchor x="635" y="0" name="bottom"/>
  <anchor x="1232" y="20" name="ogonek"/>
  <anchor x="666" y="1486" name="top"/>
  <outline>
    <contour>
      <point x="-9" y="72" type="line"/>
      <point x="-150" y="38" type="line"/>
      <point x="-150" y="0" type="line"/>
      <point x="289" y="0" type="line"/>
      <point x="289" y="38" type="line"/>
      <point x="102" y="72" type="line"/>
      <point x="223" y="435" type="line"/>
      <point x="754" y="435" type="line"/>
      <point x="880" y="72" type="line"/>
      <point x="726" y="38" type="line"/>
      <point x="726" y="0" type="line"/>
      <point x="1454" y="0" type="line"/>
      <point x="1454" y="38" type="line"/>
      <point x="1332" y="69" type="line"/>
      <point x="816" y="1487" type="line"/>
      <point x="519" y="1487" type="line"/>
    </contour>
    <contour>
      <point x="729" y="499" type="line"/>
      <point x="247" y="499" type="line"/>
      <point x="458" y="1091" type="line"/>
      <point x="498" y="1207" type="line"/>
      <point x="537" y="1091" type="line"/>
    </contour>
  </outline>
</glyph>
<glyph name="B" format="2">
  <advance width="1400"/>
  <unicode hex="0042"/>
  <anchor x="670" y="0" name="bottom"/>
  <anchor x="698" y="-166" name="mark0"/>
  <anchor x="670" y="1486" name="top"/>
  <outline>
    <contour>
      <point x="139" y="72" type="line"/>
      <point x="8" y="38" type="line"/>
      <point x="8" y="0" type="line"/>
      <point x="321" y="0" type="line" smooth="yes"/>
      <point x="479" y="0"/>
      <point x="547" y="-12"/>
      <point x="702" y="-12" type="curve" smooth="yes"/>
      <point x="1250" y="-12"/>
      <point x="1410" y="195"/>
      <point x="1410" y="449" type="curve" smooth="yes"/>
      <point x="1410" y="669"/>
      <point x="1228" y="795"/>
      <point x="966" y="794" type="curve"/>
      <point x="1147" y="821"/>
      <point x="1286" y="957"/>
      <point x="1286" y="1161" type="curve" smooth="yes"/>
      <point x="1286" y="1369"/>
      <point x="1152" y="1500"/>
      <point x="688" y="1500" type="curve" smooth="yes"/>
      <point x="571" y="1500"/>
      <point x="465" y="1486"/>
      <point x="319" y="1486" type="curve" smooth="yes"/>
      <point x="10" y="1486" type="line"/>
      <point x="10" y="1450" type="line"/>
      <point x="139" y="1412" type="line"/>
    </contour>
    <contour>
      <point x="534" y="804" type="curve"/>
      <point x="534" y="1424" type="line"/>
      <point x="565" y="1428"/>
      <point x="595" y="1436"/>
      <point x="659" y="1436" type="curve" smooth="yes"/>
      <point x="830" y="1436"/>
      <point x="894" y="1332"/>
      <point x="894" y="1137" type="curve" smooth="yes"/>
      <point x="894" y="957"/>
      <point x="838" y="798"/>
      <point x="666" y="798" type="curve" smooth="yes"/>
      <point x="604" y="798"/>
      <point x="578" y="800"/>
    </contour>
    <contour>
      <point x="534" y="72" type="curve"/>
      <point x="534" y="724" type="line"/>
      <point x="574" y="726"/>
      <point x="616" y="731"/>
      <point x="691" y="731" type="curve" smooth="yes"/>
      <point x="894" y="731"/>
      <point x="976" y="645"/>
      <point x="976" y="420" type="curve" smooth="yes"/>
      <point x="976" y="200"/>
      <point x="898" y="54"/>
      <point x="679" y="54" type="curve" smooth="yes"/>
      <point x="605" y="54"/>
      <point x="572" y="59"/>
    </contour>
  </outline>
</glyph>
<glyph name="F" format="2">
  <advance width="1242"/>
  <unicode hex="0046"/>
  <anchor x="570" y="0" name="bottom"/>
  <anchor x="589" y="-166" name="mark0"/>
  <anchor x="615" y="1486" name="top"/>
  <outline>
    <contour>
      <point x="142" y="72" type="line"/>
      <point x="8" y="38" type="line"/>
      <point x="8" y="0" type="line"/>
      <point x="711" y="0" type="line"/>
      <point x="711" y="38" type="line"/>
      <point x="529" y="72" type="line"/>
      <point x="529" y="711" type="line"/>
      <point x="806" y="704" type="line"/>
      <point x="898" y="438" type="line"/>
      <point x="951" y="438" type="line"/>
      <point x="951" y="1019" type="line"/>
      <point x="899" y="1019" type="line"/>
      <point x="806" y="770" type="line"/>
      <point x="529" y="763" type="line"/>
      <point x="529" y="1426" type="line"/>
      <point x="930" y="1389" type="line"/>
      <point x="1062" y="1088" type="line"/>
      <point x="1197" y="1088" type="line"/>
      <point x="1168" y="1486" type="line"/>
      <point x="9" y="1486" type="line"/>
      <point x="9" y="1450" type="line"/>
      <point x="142" y="1412" type="line"/>
    </contour>
  </outline>
</glyph>
<glyph name="H" format="2">
  <advance width="1598"/>
  <unicode hex="0048"/>
  <anchor x="732" y="0" name="bottom"/>
  <anchor x="732" y="743" name="center"/>
  <anchor x="732" y="1486" name="top"/>
  <anchor x="0" y="1486" name="topleft"/>
  <outline>
    <contour>
      <point x="138" y="72" type="line"/>
      <point x="8" y="37" type="line"/>
      <point x="8" y="0" type="line"/>
      <point x="674" y="0" type="line"/>
      <point x="674" y="37" type="line"/>
      <point x="542" y="72" type="line"/>
      <point x="542" y="732" type="line"/>
      <point x="1056" y="732" type="line"/>
      <point x="1056" y="72" type="line"/>
      <point x="926" y="37" type="line"/>
      <point x="926" y="0" type="line"/>
      <point x="1590" y="0" type="line"/>
      <point x="1590" y="37" type="line"/>
      <point x="1460" y="72" type="line"/>
      <point x="1460" y="1412" type="line"/>
      <point x="1588" y="1450" type="line"/>
      <point x="1588" y="1486" type="line"/>
      <point x="926" y="1486" type="line"/>
      <point x="926" y="1450" type="line"/>
      <point x="1056" y="1411" type="line"/>
      <point x="1056" y="798" type="line"/>
      <point x="542" y="798" type="line"/>
      <point x="542" y="1412" type="line"/>
      <point x="673" y="1450" type="line"/>
      <point x="673" y="1486" type="line"/>
      <point x="9" y="1486" type="line"/>
      <point x="9" y="1450" type="line"/>
      <point x="138" y="1412" type="line"/>
    </contour>
  </outline>
</glyph>
<glyph name="L" format="2">
  <advance width="1281"/>
  <unicode hex="004C"/>
  <anchor x="670" y="0" name="bottom"/>
  <anchor x="641" y="744" name="center"/>
  <anchor x="688" y="-166" name="mark0"/>
  <anchor x="408" y="1486" name="top"/>
  <anchor x="989" y="1111" name="topright"/>
  <outline>
    <contour>
      <point x="139" y="73" type="line"/>
      <point x="8" y="37" type="line"/>
      <point x="8" y="0" type="line"/>
      <point x="1184" y="0" type="line"/>
      <point x="1261" y="402" type="line"/>
      <point x="1106" y="429" type="line"/>
      <point x="955" y="125" type="line"/>
      <point x="543" y="59" type="line"/>
      <point x="543" y="1420" type="line"/>
      <point x="724" y="1450" type="line"/>
      <point x="724" y="1486" type="line"/>
      <point x="9" y="1486" type="line"/>
      <point x="9" y="1450" type="line"/>
      <point x="139" y="1412" type="line"/>
    </contour>
  </outline>
</glyph>
<glyph name="O" format="2">
  <advance width="1526"/>
  <unicode hex="004F"/>
  <anchor x="740" y="0" name="bottom"/>
  <anchor x="759" y="714" name="center"/>
  <anchor x="814" y="20" name="ogonek"/>
  <anchor x="763" y="1486" name="top"/>
  <anchor x="50" y="1486" name="topleft"/>
  <anchor x="1233" y="1486" name="topright"/>
  <outline>
    <contour>
      <point x="747" y="-24" type="curve" smooth="yes"/>
      <point x="1235" y="-24"/>
      <point x="1506" y="305"/>
      <point x="1506" y="765" type="curve" smooth="yes"/>
      <point x="1506" y="1210"/>
      <point x="1267" y="1504"/>
      <point x="784" y="1504" type="curve" smooth="yes"/>
      <point x="292" y="1504"/>
      <point x="20" y="1178"/>
      <point x="20" y="724" type="curve" smooth="yes"/>
      <point x="20" y="272"/>
      <point x="260" y="-24"/>
    </contour>
    <contour>
      <point x="763" y="1444" type="curve" smooth="yes"/>
      <point x="968" y="1444"/>
      <point x="1070" y="1209"/>
      <point x="1070" y="765" type="curve" smooth="yes"/>
      <point x="1070" y="263"/>
      <point x="948" y="36"/>
      <point x="759" y="36" type="curve" smooth="yes"/>
      <point x="556" y="36"/>
      <point x="455" y="281"/>
      <point x="455" y="724" type="curve" smooth="yes"/>
      <point x="455" y="1225"/>
      <point x="574" y="1444"/>
    </contour>
  </outline>
</glyph>
<glyph name="P" format="2">
  <advance width="1368"/>
  <unicode hex="0050"/>
  <anchor x="485" y="0" name="bottom"/>
  <anchor x="657" y="-166" name="mark0"/>
  <anchor x="731" y="1486" name="top"/>
  <outline>
    <contour>
      <point x="146" y="73" type="line"/>
      <point x="8" y="37" type="line"/>
      <point x="8" y="0" type="line"/>
      <point x="713" y="0" type="line"/>
      <point x="713" y="38" type="line"/>
      <point x="541" y="72" type="line"/>
      <point x="542" y="516" type="line"/>
      <point x="559" y="514"/>
      <point x="654" y="509"/>
      <point x="711" y="509" type="curve" smooth="yes"/>
      <point x="1098" y="509"/>
      <point x="1344" y="685"/>
      <point x="1344" y="1024" type="curve" smooth="yes"/>
      <point x="1344" y="1309"/>
      <point x="1185" y="1500"/>
      <point x="776" y="1497" type="curve" smooth="yes"/>
      <point x="602" y="1496"/>
      <point x="501" y="1486"/>
      <point x="389" y="1486" type="curve" smooth="yes"/>
      <point x="9" y="1486" type="line"/>
      <point x="9" y="1450" type="line"/>
      <point x="146" y="1412" type="line"/>
    </contour>
    <contour>
      <point x="541" y="585" type="curve"/>
      <point x="541" y="1430" type="line"/>
      <point x="571" y="1435"/>
      <point x="607" y="1442"/>
      <point x="679" y="1442" type="curve" smooth="yes"/>
      <point x="855" y="1442"/>
      <point x="936" y="1241"/>
      <point x="936" y="1017" type="curve" smooth="yes"/>
      <point x="936" y="711"/>
      <point x="803" y="576"/>
      <point x="671" y="576" type="curve" smooth="yes"/>
      <point x="610" y="576"/>
      <point x="564" y="579"/>
    </contour>
  </outline>
</glyph>
<glyph name="S" format="2">
  <advance width="1223"/>
  <unicode hex="0053"/>
  <anchor x="610" y="0" name="bottom"/>
  <anchor x="670" y="1486" name="top"/>
  <outline>
    <contour>
      <point x="573" y="-22" type="curve" smooth="yes"/>
      <point x="1056" y="-22"/>
      <point x="1186" y="219"/>
      <point x="1186" y="415" type="curve" smooth="yes"/>
      <point x="1186" y="714"/>
      <point x="958" y="802"/>
      <point x="786" y="878" type="curve" smooth="yes"/>
      <point x="578" y="970"/>
      <point x="398" y="1077"/>
      <point x="398" y="1230" type="curve" smooth="yes"/>
      <point x="398" y="1375"/>
      <point x="467" y="1451"/>
      <point x="635" y="1451" type="curve" smooth="yes"/>
      <point x="731" y="1451"/>
      <point x="805" y="1410"/>
      <point x="823" y="1380" type="curve"/>
      <point x="881" y="1078" type="line"/>
      <point x="1081" y="1078" type="line"/>
      <point x="1112" y="1434" type="line"/>
      <point x="976" y="1434"/>
      <point x="889" y="1510"/>
      <point x="628" y="1510" type="curve" smooth="yes"/>
      <point x="233" y="1510"/>
      <point x="52" y="1328"/>
      <point x="52" y="1077" type="curve" smooth="yes"/>
      <point x="52" y="784"/>
      <point x="287" y="667"/>
      <point x="453" y="596" type="curve" smooth="yes"/>
      <point x="675" y="501"/>
      <point x="828" y="407"/>
      <point x="828" y="271" type="curve" smooth="yes"/>
      <point x="828" y="146"/>
      <point x="764" y="33"/>
      <point x="555" y="35" type="curve" smooth="yes"/>
      <point x="443" y="36"/>
      <point x="356" y="103"/>
      <point x="326" y="147" type="curve"/>
      <point x="261" y="453" type="line"/>
      <point x="57" y="453" type="line"/>
      <point x="35" y="49" type="line"/>
      <point x="182" y="49"/>
      <point x="280" y="-22"/>
    </contour>
  </outline>
</glyph>
<glyph name="V" format="2">
  <advance width="1412"/>
  <unicode hex="0056"/>
  <anchor x="856" y="-166" name="mark0"/>
  <outline>
    <contour>
      <point x="-42" y="1452" type="line"/>
      <point x="71" y="1417" type="line"/>
      <point x="614" y="0" type="line"/>
      <point x="868" y="0" type="line"/>
      <point x="1363" y="1417" type="line"/>
      <point x="1494" y="1452" type="line"/>
      <point x="1494" y="1486" type="line"/>
      <point x="1114" y="1486" type="line"/>
      <point x="1114" y="1452" type="line"/>
      <point x="1286" y="1417" type="line"/>
      <point x="934" y="411" type="line"/>
      <point x="901" y="299" type="line"/>
      <point x="872" y="411" type="line"/>
      <point x="518" y="1417" type="line"/>
      <point x="664" y="1452" type="line"/>
      <point x="664" y="1486" type="line"/>
      <point x="-42" y="1486" type="line"/>
    </contour>
  </outline>
</glyph>
<glyph name="W" format="2">
  <advance width="2003"/>
  <unicode hex="0057"/>
  <anchor x="1019" y="0" name="bottom"/>
  <anchor x="914" y="-166" name="mark0"/>
  <anchor x="1063" y="1486" name="top"/>
  <outline>
    <contour>
      <point x="-55" y="1452" type="line"/>
      <point x="65" y="1417" type="line"/>
      <point x="502" y="0" type="line"/>
      <point x="795" y="0" type="line"/>
      <point x="1035" y="861" type="line"/>
      <point x="1254" y="0" type="line"/>
      <point x="1551" y="0" type="line"/>
      <point x="1931" y="1418" type="line"/>
      <point x="2058" y="1452" type="line"/>
      <point x="2058" y="1486" type="line"/>
      <point x="1671" y="1486" type="line"/>
      <point x="1671" y="1452" type="line"/>
      <point x="1829" y="1418" type="line"/>
      <point x="1593" y="441" type="line"/>
      <point x="1548" y="250" type="line"/>
      <point x="1501" y="441" type="line"/>
      <point x="1275" y="1418" type="line"/>
      <point x="1399" y="1452" type="line"/>
      <point x="1399" y="1486" type="line"/>
      <point x="761" y="1486" type="line"/>
      <point x="761" y="1452" type="line"/>
      <point x="863" y="1418" type="line"/>
      <point x="986" y="998" type="line"/>
      <point x="851" y="441" type="line"/>
      <point x="794" y="250" type="line"/>
      <point x="752" y="441" type="line"/>
      <point x="475" y="1418" type="line"/>
      <point x="592" y="1452" type="line"/>
      <point x="592" y="1486" type="line"/>
      <point x="-55" y="1486" type="line"/>
    </contour>
  </outline>
</glyph>
<glyph name="bracketright" format="2">
  <advance width="880"/>
  <unicode hex="005D"/>
  <outline>
    <contour>
      <point x="720" y="1373" type="line"/>
      <point x="720" y="1558"/>
      <point x="621" y="1608"/>
      <point x="451" y="1608" type="curve" smooth="yes"/>
      <point x="330" y="1608"/>
      <point x="235" y="1587"/>
      <point x="146" y="1568" type="curve"/>
      <point x="146" y="1533" type="line"/>
      <point x="361" y="1533" type="line"/>
      <point x="361" y="-197" type="line"/>
      <point x="146" y="-197" type="line"/>
      <point x="146" y="-234" type="line"/>
      <point x="234" y="-255"/>
      <point x="334" y="-274"/>
      <point x="451" y="-274" type="curve" smooth="yes"/>
      <point x="621" y="-274"/>
      <point x="720" y="-224"/>
      <point x="720" y="-39" type="curve" smooth="yes"/>
    </contour>
  </outline>
</glyph>
<glyph name="a" format="2">
  <advance width="1048"/>
  <unicode hex="0061"/>
  <anchor x="498" y="0" name="bottom"/>
  <anchor x="864" y="20" name="ogonek"/>
  <anchor x="554" y="1110" name="top"/>
  <outline>
    <contour>
      <point x="11" y="263" type="curve"/>
      <point x="11" y="92"/>
      <point x="134" y="-23"/>
      <point x="341" y="-23" type="curve"/>
      <point x="497" y="-23"/>
      <point x="590" y="50"/>
      <point x="634" y="129" type="curve"/>
      <point x="634" y="69" type="line" smooth="yes"/>
      <point x="634" y="5"/>
      <point x="677" y="-19"/>
      <point x="795" y="-19" type="curve" smooth="yes"/>
      <point x="914" y="-19"/>
      <point x="985" y="3"/>
      <point x="1032" y="12" type="curve"/>
      <point x="1032" y="72" type="line"/>
      <point x="969" y="72" type="line"/>
      <point x="969" y="674" type="line" smooth="yes"/>
      <point x="969" y="886"/>
      <point x="861" y="1035"/>
      <point x="559" y="1035" type="curve" smooth="yes"/>
      <point x="338" y="1035"/>
      <point x="166" y="954"/>
      <point x="74" y="898" type="curve"/>
      <point x="117" y="816" type="line"/>
      <point x="217" y="853"/>
      <point x="346" y="868"/>
      <point x="419" y="867" type="curve" smooth="yes"/>
      <point x="571" y="865"/>
      <point x="627" y="809"/>
      <point x="627" y="682" type="curve" smooth="yes"/>
      <point x="627" y="600" type="line"/>
      <point x="294" y="600"/>
      <point x="11" y="519"/>
    </contour>
    <contour>
      <point x="492" y="131" type="curve" smooth="yes"/>
      <point x="405" y="131"/>
      <point x="360" y="202"/>
      <point x="360" y="310" type="curve" smooth="yes"/>
      <point x="360" y="432"/>
      <point x="447" y="537"/>
      <point x="627" y="537" type="curve"/>
      <point x="627" y="175" type="line"/>
      <point x="593" y="153"/>
      <point x="566" y="131"/>
    </contour>
  </outline>
</glyph>
<glyph name="b" format="2">
  <advance width="1192"/>
  <unicode hex="0062"/>
  <anchor x="563" y="-3" name="bottom"/>
  <anchor x="549" y="-166" name="mark0"/>
  <anchor x="817" y="1111" name="top"/>
  <outline>
    <contour>
      <point x="-20" y="1480" type="line"/>
      <point x="91" y="1433" type="line"/>
      <point x="91" y="54" type="line"/>
      <point x="119" y="35"/>
      <point x="280" y="-22"/>
      <point x="598" y="-22" type="curve" smooth="yes"/>
      <point x="915" y="-22"/>
      <point x="1157" y="179"/>
      <point x="1157" y="577" type="curve" smooth="yes"/>
      <point x="1157" y="884"/>
      <point x="986" y="1044"/>
      <point x="754" y="1044" type="curve" smooth="yes"/>
      <point x="595" y="1044"/>
      <point x="470" y="947"/>
      <point x="434" y="890" type="curve"/>
      <point x="434" y="1590" type="line"/>
      <point x="378" y="1634" type="line"/>
      <point x="340" y="1634" type="line"/>
      <point x="-20" y="1519" type="line"/>
    </contour>
    <contour>
      <point x="587" y="909" type="curve" smooth="yes"/>
      <point x="693" y="909"/>
      <point x="769" y="819"/>
      <point x="768" y="502" type="curve" smooth="yes"/>
      <point x="769" y="201"/>
      <point x="719" y="37"/>
      <point x="569" y="37" type="curve" smooth="yes"/>
      <point x="521" y="37"/>
      <point x="457" y="63"/>
      <point x="434" y="113" type="curve"/>
      <point x="434" y="837" type="line"/>
      <point x="460" y="872"/>
      <point x="512" y="909"/>
    </contour>
  </outline>
</glyph>
<glyph name="c" format="2">
  <advance width="966"/>
  <unicode hex="0063"/>
  <anchor x="602" y="0" name="bottom"/>
  <anchor x="628" y="-166" name="mark0"/>
  <anchor x="632" y="1111" name="top"/>
  <outline>
    <contour>
      <point x="28" y="498" type="curve" smooth="yes"/>
      <point x="28" y="183"/>
      <point x="191" y="-22"/>
      <point x="575" y="-22" type="curve" smooth="yes"/>
      <point x="749" y="-22"/>
      <point x="876" y="60"/>
      <point x="942" y="135" type="curve"/>
      <point x="910" y="192" type="line"/>
      <point x="849" y="151"/>
      <point x="778" y="118"/>
      <point x="700" y="118" type="curve" smooth="yes"/>
      <point x="550" y="118"/>
      <point x="414" y="247"/>
      <point x="414" y="559" type="curve" smooth="yes"/>
      <point x="414" y="846"/>
      <point x="470" y="977"/>
      <point x="596" y="977" type="curve" smooth="yes"/>
      <point x="645" y="977"/>
      <point x="676" y="955"/>
      <point x="694" y="856" type="curve" smooth="yes"/>
      <point x="727" y="670" type="line"/>
      <point x="942" y="670" type="line"/>
      <point x="954" y="972" type="line"/>
      <point x="893" y="982"/>
      <point x="757" y="1043"/>
      <point x="595" y="1043" type="curve" smooth="yes"/>
      <point x="259" y="1043"/>
      <point x="28" y="836"/>
    </contour>
  </outline>
</glyph>
<glyph name="d" format="2">
  <advance width="1186"/>
  <unicode hex="0064"/>
  <anchor x="517" y="0" name="bottom"/>
  <anchor x="515" y="576" name="center"/>
  <anchor x="333" y="1158" name="top"/>
  <anchor x="1294" y="1111" name="topright"/>
  <outline>
    <contour>
      <point x="438" y="-23" type="curve" smooth="yes"/>
      <point x="626" y="-23"/>
      <point x="725" y="67"/>
      <point x="765" y="135" type="curve"/>
      <point x="765" y="67" type="line" smooth="yes"/>
      <point x="765" y="4"/>
      <point x="807" y="-19"/>
      <point x="912" y="-19" type="curve" smooth="yes"/>
      <point x="1019" y="-19"/>
      <point x="1119" y="2"/>
      <point x="1172" y="12" type="curve"/>
      <point x="1172" y="72" type="line"/>
      <point x="1101" y="72" type="line"/>
      <point x="1101" y="1589" type="line"/>
      <point x="1045" y="1634" type="line"/>
      <point x="1007" y="1634" type="line"/>
      <point x="627" y="1519" type="line"/>
      <point x="627" y="1480" type="line"/>
      <point x="758" y="1433" type="line"/>
      <point x="758" y="1027" type="line"/>
      <point x="732" y="1039"/>
      <point x="691" y="1042"/>
      <point x="597" y="1042" type="curve" smooth="yes"/>
      <point x="277" y="1043"/>
      <point x="35" y="842"/>
      <point x="35" y="444" type="curve" smooth="yes"/>
      <point x="35" y="137"/>
      <point x="206" y="-23"/>
    </contour>
    <contour>
      <point x="605" y="112" type="curve" smooth="yes"/>
      <point x="499" y="112"/>
      <point x="423" y="202"/>
      <point x="424" y="519" type="curve" smooth="yes"/>
      <point x="425" y="820"/>
      <point x="473" y="984"/>
      <point x="623" y="984" type="curve" smooth="yes"/>
      <point x="671" y="984"/>
      <point x="735" y="959"/>
      <point x="758" y="908" type="curve"/>
      <point x="758" y="184" type="line"/>
      <point x="732" y="149"/>
      <point x="680" y="112"/>
    </contour>
  </outline>
</glyph>
<glyph name="g" format="2">
  <advance width="1200"/>
  <unicode hex="0067"/>
  <anchor x="609" y="0" name="bottom"/>
  <anchor x="614" y="1111" name="top"/>
  <outline>
    <contour>
      <point x="530" y="-480" type="curve" smooth="yes"/>
      <point x="883" y="-480"/>
      <point x="1176" y="-327"/>
      <point x="1176" y="-72" type="curve" smooth="yes"/>
      <point x="1176" y="99"/>
      <point x="1035" y="203"/>
      <point x="789" y="203" type="curve" smooth="yes"/>
      <point x="563" y="203" type="line" smooth="yes"/>
      <point x="384" y="203"/>
      <point x="329" y="227"/>
      <point x="329" y="284" type="curve" smooth="yes"/>
      <point x="329" y="310"/>
      <point x="336" y="327"/>
      <point x="359" y="346" type="curve"/>
      <point x="404" y="339"/>
      <point x="482" y="336"/>
      <point x="540" y="336" type="curve" smooth="yes"/>
      <point x="815" y="336"/>
      <point x="1044" y="454"/>
      <point x="1044" y="682" type="curve" smooth="yes"/>
      <point x="1044" y="721"/>
      <point x="1030" y="816"/>
      <point x="1010" y="834" type="curve"/>
      <point x="1160" y="834" type="line"/>
      <point x="1160" y="1007" type="line"/>
      <point x="1116" y="1007" type="line" smooth="yes"/>
      <point x="1027" y="1007"/>
      <point x="985" y="971"/>
      <point x="955" y="917" type="curve"/>
      <point x="872" y="1005"/>
      <point x="746" y="1028"/>
      <point x="576" y="1028" type="curve" smooth="yes"/>
      <point x="297" y="1028"/>
      <point x="74" y="910"/>
      <point x="74" y="682" type="curve" smooth="yes"/>
      <point x="74" y="530"/>
      <point x="146" y="418"/>
      <point x="305" y="361" type="curve"/>
      <point x="190" y="313"/>
      <point x="128" y="244"/>
      <point x="128" y="143" type="curve" smooth="yes"/>
      <point x="128" y="55"/>
      <point x="164" y="-12"/>
      <point x="247" y="-63" type="curve"/>
      <point x="98" y="-86"/>
      <point x="13" y="-165"/>
      <point x="13" y="-259" type="curve" smooth="yes"/>
      <point x="13" y="-461"/>
      <point x="305" y="-480"/>
    </contour>
    <contour>
      <point x="568" y="-419" type="curve" smooth="yes"/>
      <point x="435" y="-418"/>
      <point x="269" y="-352"/>
      <point x="269" y="-183" type="curve" smooth="yes"/>
      <point x="269" y="-125"/>
      <point x="282" y="-98"/>
      <point x="296" y="-79" type="curve"/>
      <point x="350" y="-93"/>
      <point x="482" y="-103"/>
      <point x="568" y="-104" type="curve" smooth="yes"/>
      <point x="716" y="-105" type="line" smooth="yes"/>
      <point x="814" y="-106"/>
      <point x="879" y="-146"/>
      <point x="879" y="-230" type="curve" smooth="yes"/>
      <point x="879" y="-372"/>
      <point x="766" y="-421"/>
    </contour>
    <contour>
      <point x="551" y="390" type="curve" smooth="yes"/>
      <point x="467" y="390"/>
      <point x="431" y="522"/>
      <point x="431" y="693" type="curve" smooth="yes"/>
      <point x="431" y="895"/>
      <point x="478" y="974"/>
      <point x="566" y="974" type="curve" smooth="yes"/>
      <point x="649" y="974"/>
      <point x="686" y="843"/>
      <point x="686" y="685" type="curve" smooth="yes"/>
      <point x="686" y="470"/>
      <point x="638" y="390"/>
    </contour>
  </outline>
</glyph>
<glyph name="q" format="2">
  <advance width="1186"/>
  <unicode hex="0071"/>
  <outline>
    <contour>
      <point x="628" y="-466" type="line"/>
      <point x="1196" y="-466" type="line"/>
      <point x="1196" y="-427" type="line"/>
      <point x="1101" y="-394" type="line"/>
      <point x="1101" y="1002" type="line"/>
      <point x="1049" y="1035" type="line"/>
      <point x="1010" y="1035" type="line"/>
      <point x="847" y="985" type="line"/>
      <point x="797" y="1000"/>
      <point x="726" y="1042"/>
      <point x="554" y="1042" type="curve" smooth="yes"/>
      <point x="289" y="1042"/>
      <point x="35" y="880"/>
      <point x="35" y="496" type="curve" smooth="yes"/>
      <point x="35" y="142"/>
      <point x="244" y="-23"/>
      <point x="439" y="-23" type="curve" smooth="yes"/>
      <point x="612" y="-23"/>
      <point x="730" y="60"/>
      <point x="761" y="127" type="curve"/>
      <point x="759" y="-46" type="line"/>
      <point x="761" y="-394" type="line"/>
      <point x="628" y="-427" type="line"/>
    </contour>
    <contour>
      <point x="593" y="114" type="curve" smooth="yes"/>
      <point x="503" y="114"/>
      <point x="422" y="199"/>
      <point x="422" y="541" type="curve" smooth="yes"/>
      <point x="422" y="816"/>
      <point x="470" y="982"/>
      <point x="603" y="982" type="curve" smooth="yes"/>
      <point x="697" y="982"/>
      <point x="733" y="952"/>
      <point x="758" y="902" type="curve"/>
      <point x="758" y="186" type="line"/>
      <point x="730" y="148"/>
      <point x="654" y="114"/>
    </contour>
  </outline>
</glyph>
<glyph name="t" format="2">
  <advance width="687"/>
  <unicode hex="0074"/>
  <anchor x="383" y="0" name="bottom"/>
  <anchor x="423" y="-143" name="center"/>
  <anchor x="436" y="77" name="mark0"/>
  <anchor x="359" y="1350" name="top"/>
  <anchor x="659" y="1111" name="topright"/>
  <outline>
    <contour>
      <point x="353" y="-26" type="curve"/>
      <point x="550" y="-26"/>
      <point x="642" y="33"/>
      <point x="702" y="89" type="curve"/>
      <point x="671" y="151" type="line"/>
      <point x="636" y="131"/>
      <point x="591" y="110"/>
      <point x="550" y="110" type="curve" smooth="yes"/>
      <point x="489" y="110"/>
      <point x="467" y="126"/>
      <point x="467" y="270" type="curve" smooth="yes"/>
      <point x="467" y="917" type="line"/>
      <point x="653" y="917" type="line"/>
      <point x="653" y="1005" type="line"/>
      <point x="464" y="1005" type="line"/>
      <point x="465" y="1334" type="line"/>
      <point x="306" y="1334" type="line"/>
      <point x="280" y="1281"/>
      <point x="244" y="1185"/>
      <point x="220" y="1148" type="curve" smooth="yes"/>
      <point x="192" y="1104"/>
      <point x="162" y="1033"/>
      <point x="122" y="1010" type="curve"/>
      <point x="87" y="990"/>
      <point x="30" y="977"/>
      <point x="-15" y="956" type="curve"/>
      <point x="-15" y="917" type="line"/>
      <point x="108" y="917" type="line"/>
      <point x="108" y="224" type="line" smooth="yes"/>
      <point x="108" y="55"/>
      <point x="177" y="-26"/>
    </contour>
  </outline>
</glyph>
<glyph name="v" format="2">
  <advance width="1033"/>
  <unicode hex="0076"/>
  <outline>
    <contour>
      <point x="-51" y="967" type="line"/>
      <point x="38" y="921" type="line"/>
      <point x="370" y="0" type="line"/>
      <point x="689" y="0" type="line"/>
      <point x="1003" y="921" type="line"/>
      <point x="1118" y="967" type="line"/>
      <point x="1118" y="1005" type="line"/>
      <point x="774" y="1005" type="line"/>
      <point x="774" y="966" type="line"/>
      <point x="898" y="921" type="line"/>
      <point x="725" y="336" type="line"/>
      <point x="658" y="130" type="line"/>
      <point x="607" y="336" type="line"/>
      <point x="434" y="921" type="line"/>
      <point x="547" y="967" type="line"/>
      <point x="547" y="1005" type="line"/>
      <point x="-51" y="1005" type="line"/>
    </contour>
  </outline>
</glyph>
<glyph name="w" format="2">
  <advance width="1778"/>
  <unicode hex="0077"/>
  <anchor x="937" y="0" name="bottom"/>
  <anchor x="906" y="-166" name="mark0"/>
  <anchor x="910" y="1111" name="top"/>
  <outline>
    <contour>
      <point x="-25" y="967" type="line"/>
      <point x="62" y="921" type="line"/>
      <point x="340" y="0" type="line"/>
      <point x="653" y="0" type="line"/>
      <point x="805" y="614" type="line"/>
      <point x="848" y="805" type="line"/>
      <point x="894" y="615" type="line"/>
      <point x="1039" y="0" type="line"/>
      <point x="1375" y="0" type="line"/>
      <point x="1678" y="921" type="line"/>
      <point x="1803" y="967" type="line"/>
      <point x="1803" y="1005" type="line"/>
      <point x="1437" y="1005" type="line"/>
      <point x="1437" y="968" type="line"/>
      <point x="1572" y="921" type="line"/>
      <point x="1417" y="350" type="line"/>
      <point x="1363" y="140" type="line"/>
      <point x="1313" y="350" type="line"/>
      <point x="1168" y="1005" type="line"/>
      <point x="818" y="1005" type="line"/>
      <point x="680" y="349" type="line"/>
      <point x="630" y="140" type="line"/>
      <point x="583" y="350" type="line"/>
      <point x="442" y="921" type="line"/>
      <point x="543" y="968" type="line"/>
      <point x="543" y="1005" type="line"/>
      <point x="-25" y="1005" type="line"/>
    </contour>
  </outline>
</glyph>
<glyph name="x" format="2">
  <advance width="1090"/>
  <unicode hex="0078"/>
  <anchor x="650" y="-166" name="mark0"/>
  <outline>
    <contour>
      <point x="71" y="71" type="line"/>
      <point x="-40" y="38" type="line"/>
      <point x="-40" y="0" type="line"/>
      <point x="354" y="0" type="line"/>
      <point x="354" y="38" type="line"/>
      <point x="220" y="71" type="line"/>
      <point x="364" y="296" type="line"/>
      <point x="420" y="383" type="line"/>
      <point x="474" y="295" type="line"/>
      <point x="608" y="71" type="line"/>
      <point x="499" y="38" type="line"/>
      <point x="499" y="0" type="line"/>
      <point x="1130" y="0" type="line"/>
      <point x="1130" y="38" type="line"/>
      <point x="1032" y="71" type="line"/>
      <point x="715" y="557" type="line"/>
      <point x="1015" y="935" type="line"/>
      <point x="1125" y="966" type="line"/>
      <point x="1125" y="1005" type="line"/>
      <point x="738" y="1005" type="line"/>
      <point x="738" y="966" type="line"/>
      <point x="861" y="934" type="line"/>
      <point x="726" y="711" type="line"/>
      <point x="672" y="622" type="line"/>
      <point x="616" y="712" type="line"/>
      <point x="482" y="935" type="line"/>
      <point x="591" y="966" type="line"/>
      <point x="591" y="1005" type="line"/>
      <point x="-39" y="1005" type="line"/>
      <point x="-39" y="966" type="line"/>
      <point x="57" y="935" type="line"/>
      <point x="373" y="450" type="line"/>
    </contour>
  </outline>
</glyph>
<glyph name="y" format="2">
  <advance width="1039"/>
  <unicode hex="0079"/>
  <anchor x="930" y="0" name="bottom"/>
  <anchor x="601" y="-166" name="mark0"/>
  <anchor x="528" y="1111" name="top"/>
  <outline>
    <contour>
      <point x="275" y="-468" type="curve" smooth="yes"/>
      <point x="474" y="-468"/>
      <point x="577" y="-334"/>
      <point x="691" y="-25" type="curve"/>
      <point x="707" y="12"/>
      <point x="899" y="543"/>
      <point x="1023" y="921" type="curve"/>
      <point x="1134" y="967" type="line"/>
      <point x="1134" y="1005" type="line"/>
      <point x="778" y="1005" type="line"/>
      <point x="778" y="966" type="line"/>
      <point x="910" y="921" type="line"/>
      <point x="737" y="329" type="line"/>
      <point x="677" y="120" type="line"/>
      <point x="616" y="349" type="line"/>
      <point x="424" y="921" type="line"/>
      <point x="529" y="967" type="line"/>
      <point x="529" y="1005" type="line"/>
      <point x="-61" y="1005" type="line"/>
      <point x="-61" y="967" type="line"/>
      <point x="30" y="921" type="line"/>
      <point x="370" y="0" type="line"/>
      <point x="616" y="0" type="line"/>
      <point x="553" y="-171"/>
      <point x="429" y="-231"/>
      <point x="281" y="-231" type="curve" smooth="yes"/>
      <point x="233" y="-231"/>
      <point x="196" y="-224"/>
      <point x="170" y="-216" type="curve"/>
      <point x="170" y="-451" type="line"/>
      <point x="187" y="-462"/>
      <point x="223" y="-468"/>
    </contour>
  </outline>
</glyph>
<glyph name="z" format="2">
  <advance width="1024"/>
  <unicode hex="007A"/>
  <anchor x="577" y="0" name="bottom"/>
  <anchor x="555" y="-176" name="mark0"/>
  <anchor x="528" y="1111" name="top"/>
  <outline>
    <contour>
      <point x="625" y="949" type="line"/>
      <point x="550" y="875" type="line"/>
      <point x="-8" y="64" type="line"/>
      <point x="39" y="0" type="line"/>
      <point x="933" y="0" type="line"/>
      <point x="984" y="375" type="line"/>
      <point x="825" y="402" type="line"/>
      <point x="693" y="82" type="line"/>
      <point x="391" y="54" type="line"/>
      <point x="486" y="170" type="line"/>
      <point x="1018" y="938" type="line"/>
      <point x="973" y="1005" type="line"/>
      <point x="80" y="1002" type="line"/>
      <point x="62" y="651" type="line"/>
      <point x="237" y="654" type="line"/>
      <point x="318" y="928" type="line"/>
    </contour>
  </outline>
</glyph>
<glyph name="asciitilde" format="2">
  <advance width="1375"/>
  <unicode hex="007E"/>
  <outline>
    <contour>
      <point x="180" y="618" type="curve"/>
      <point x="213" y="561" type="line"/>
      <point x="269" y="632"/>
      <point x="358" y="682"/>
      <point x="454" y="682" type="curve" smooth="yes"/>
      <point x="645" y="682"/>
      <point x="671" y="498"/>
      <point x="890" y="498" type="curve" smooth="yes"/>
      <point x="1014" y="498"/>
      <point x="1132" y="566"/>
      <point x="1195" y="653" type="curve"/>
      <point x="1154" y="717" type="line"/>
      <point x="1099" y="649"/>
      <point x="997" y="589"/>
      <point x="900" y="589" type="curve" smooth="yes"/>
      <point x="709" y="589"/>
      <point x="680" y="773"/>
      <point x="480" y="773" type="curve" smooth="yes"/>
      <point x="358" y="773"/>
      <point x="240" y="701"/>
    </contour>
  </outline>
</glyph>
<glyph name="exclamdown" format="2">
  <advance width="650"/>
  <unicode hex="00A1"/>
  <outline>
    <contour>
      <point x="114" y="-483" type="line"/>
      <point x="534" y="-483" type="line"/>
      <point x="352" y="788" type="line"/>
      <point x="295" y="788" type="line"/>
    </contour>
    <contour>
      <point x="342" y="1290" type="curve" smooth="yes"/>
      <point x="218" y="1290"/>
      <point x="139" y="1230"/>
      <point x="139" y="1125" type="curve" smooth="yes"/>
      <point x="139" y="1047"/>
      <point x="197" y="973"/>
      <point x="311" y="973" type="curve" smooth="yes"/>
      <point x="424" y="973"/>
      <point x="508" y="1040"/>
      <point x="508" y="1138" type="curve" smooth="yes"/>
      <point x="508" y="1227"/>
      <point x="433" y="1290"/>
    </contour>
  </outline>
</glyph>
<glyph name="cent" format="2">
  <advance width="1162"/>
  <unicode hex="00A2"/>
  <outline>
    <contour>
      <point x="127" y="498" type="curve" smooth="yes"/>
      <point x="127" y="217"/>
      <point x="257" y="24"/>
      <point x="557" y="-15" type="curve"/>
      <point x="542" y="-238" type="line"/>
      <point x="641" y="-238" type="line"/>
      <point x="655" y="-22" type="line"/>
      <point x="819" y="-22"/>
      <point x="951" y="33"/>
      <point x="1041" y="135" type="curve"/>
      <point x="1009" y="192" type="line"/>
      <point x="948" y="151"/>
      <point x="877" y="118"/>
      <point x="799" y="118" type="curve" smooth="yes"/>
      <point x="649" y="118"/>
      <point x="513" y="247"/>
      <point x="513" y="559" type="curve" smooth="yes"/>
      <point x="513" y="846"/>
      <point x="569" y="977"/>
      <point x="695" y="977" type="curve" smooth="yes"/>
      <point x="744" y="977"/>
      <point x="775" y="955"/>
      <point x="793" y="856" type="curve" smooth="yes"/>
      <point x="826" y="670" type="line"/>
      <point x="1041" y="670" type="line"/>
      <point x="1053" y="972" type="line"/>
      <point x="996" y="981"/>
      <point x="873" y="1036"/>
      <point x="724" y="1042" type="curve"/>
      <point x="750" y="1370" type="line"/>
      <point x="664" y="1370" type="line"/>
      <point x="637" y="1041" type="line"/>
      <point x="332" y="1019"/>
      <point x="127" y="817"/>
    </contour>
  </outline>
</glyph>
<glyph name="sterling" format="2">
  <advance width="1617"/>
  <unicode hex="00A3"/>
  <outline>
    <contour>
      <point x="1002" y="-14" type="curve" smooth="yes"/>
      <point x="1292" y="-14"/>
      <point x="1549" y="129"/>
      <point x="1549" y="365" type="curve" smooth="yes"/>
      <point x="1549" y="445"/>
      <point x="1519" y="502"/>
      <point x="1484" y="533" type="curve"/>
      <point x="1136" y="533" type="line"/>
      <point x="1185" y="474"/>
      <point x="1210" y="410"/>
      <point x="1210" y="314" type="curve" smooth="yes"/>
      <point x="1210" y="141"/>
      <point x="1129" y="41"/>
      <point x="990" y="41" type="curve" smooth="yes"/>
      <point x="853" y="41"/>
      <point x="696" y="137"/>
      <point x="526" y="191" type="curve"/>
      <point x="651" y="295"/>
      <point x="686" y="381"/>
      <point x="703" y="590" type="curve"/>
      <point x="703" y="771" type="line"/>
      <point x="1056" y="771" type="line"/>
      <point x="1056" y="849" type="line"/>
      <point x="703" y="849" type="line"/>
      <point x="703" y="1161" type="line" smooth="yes"/>
      <point x="703" y="1211"/>
      <point x="703" y="1447"/>
      <point x="890" y="1447" type="curve" smooth="yes"/>
      <point x="1018" y="1447"/>
      <point x="1157" y="1335"/>
      <point x="1228" y="1180" type="curve"/>
      <point x="1373" y="1380" type="line"/>
      <point x="1261" y="1459"/>
      <point x="1091" y="1505"/>
      <point x="933" y="1505" type="curve" smooth="yes"/>
      <point x="598" y="1505"/>
      <point x="338" y="1298"/>
      <point x="338" y="999" type="curve" smooth="yes"/>
      <point x="338" y="849" type="line"/>
      <point x="104" y="849" type="line"/>
      <point x="104" y="771" type="line"/>
      <point x="338" y="771" type="line"/>
      <point x="338" y="344" type="line" smooth="yes"/>
      <point x="338" y="276"/>
      <point x="328" y="253"/>
      <point x="311" y="232" type="curve"/>
      <point x="210" y="221"/>
      <point x="71" y="172"/>
      <point x="71" y="83" type="curve" smooth="yes"/>
      <point x="71" y="34"/>
      <point x="113" y="0"/>
      <point x="198" y="0" type="curve" smooth="yes"/>
      <point x="275" y="0"/>
      <point x="342" y="24"/>
      <point x="426" y="98" type="curve"/>
      <point x="544" y="98"/>
      <point x="745" y="-14"/>
    </contour>
  </outline>
</glyph>
<glyph name="section" format="2">
  <advance width="1486"/>
  <unicode hex="00A7"/>
  <outline>
    <contour>
      <point x="435" y="219" type="line"/>
      <point x="222" y="219" type="line"/>
      <point x="202" y="-106" type="line"/>
      <point x="274" y="-112"/>
      <point x="467" y="-198"/>
      <point x="732" y="-198" type="curve" smooth="yes"/>
      <point x="1112" y="-198"/>
      <point x="1270" y="-21"/>
      <point x="1270" y="156" type="curve" smooth="yes"/>
      <point x="1270" y="241"/>
      <point x="1233" y="316"/>
      <point x="1155" y="382" type="curve"/>
      <point x="1241" y="445"/>
      <point x="1316" y="580"/>
      <point x="1316" y="722" type="curve" smooth="yes"/>
      <point x="1316" y="1005"/>
      <point x="1018" y="1095"/>
      <point x="815" y="1177" type="curve" smooth="yes"/>
      <point x="671" y="1235"/>
      <point x="540" y="1298"/>
      <point x="540" y="1418" type="curve" smooth="yes"/>
      <point x="540" y="1518"/>
      <point x="631" y="1586"/>
      <point x="763" y="1586" type="curve" smooth="yes"/>
      <point x="851" y="1586"/>
      <point x="935" y="1556"/>
      <point x="942" y="1527" type="curve" smooth="yes"/>
      <point x="1004" y="1269" type="line"/>
      <point x="1197" y="1269" type="line"/>
      <point x="1210" y="1572" type="line"/>
      <point x="1140" y="1582"/>
      <point x="975" y="1645"/>
      <point x="762" y="1645" type="curve" smooth="yes"/>
      <point x="458" y="1645"/>
      <point x="235" y="1516"/>
      <point x="235" y="1305" type="curve" smooth="yes"/>
      <point x="235" y="1206"/>
      <point x="285" y="1124"/>
      <point x="348" y="1068" type="curve"/>
      <point x="243" y="995"/>
      <point x="186" y="888"/>
      <point x="186" y="756" type="curve" smooth="yes"/>
      <point x="186" y="528"/>
      <point x="357" y="407"/>
      <point x="628" y="286" type="curve" smooth="yes"/>
      <point x="811" y="204"/>
      <point x="967" y="154"/>
      <point x="967" y="29" type="curve" smooth="yes"/>
      <point x="967" y="-73"/>
      <point x="862" y="-141"/>
      <point x="716" y="-141" type="curve" smooth="yes"/>
      <point x="606" y="-141"/>
      <point x="500" y="-104"/>
      <point x="475" y="-61" type="curve"/>
    </contour>
    <contour>
      <point x="799" y="578" type="curve" smooth="yes"/>
      <point x="564" y="687"/>
      <point x="409" y="766"/>
      <point x="409" y="909" type="curve" smooth="yes"/>
      <point x="409" y="939"/>
      <point x="416" y="976"/>
      <point x="433" y="1004" type="curve"/>
      <point x="515" y="952"/>
      <point x="583" y="924"/>
      <point x="707" y="869" type="curve" smooth="yes"/>
      <point x="914" y="777"/>
      <point x="1078" y="698"/>
      <point x="1078" y="552" type="curve" smooth="yes"/>
      <point x="1078" y="519"/>
      <point x="1070" y="483"/>
      <point x="1054" y="454" type="curve"/>
      <point x="956" y="510"/>
      <point x="957" y="505"/>
    </contour>
  </outline>
</glyph>
<glyph name="registered" format="2">
  <advance width="2085"/>
  <unicode hex="00AE"/>
  <outline>
    <contour>
      <point x="193" y="979" type="curve" smooth="yes"/>
      <point x="193" y="503"/>
      <point x="574" y="119"/>
      <point x="1044" y="119" type="curve" smooth="yes"/>
      <point x="1517" y="119"/>
      <point x="1892" y="503"/>
      <point x="1892" y="979" type="curve" smooth="yes"/>
      <point x="1892" y="1453"/>
      <point x="1517" y="1836"/>
      <point x="1044" y="1836" type="curve" smooth="yes"/>
      <point x="572" y="1836"/>
      <point x="193" y="1457"/>
    </contour>
    <contour>
      <point x="295" y="978" type="curve" smooth="yes"/>
      <point x="295" y="1409"/>
      <point x="622" y="1748"/>
      <point x="1044" y="1748" type="curve" smooth="yes"/>
      <point x="1462" y="1748"/>
      <point x="1790" y="1405"/>
      <point x="1790" y="979" type="curve" smooth="yes"/>
      <point x="1790" y="551"/>
      <point x="1458" y="210"/>
      <point x="1044" y="210" type="curve" smooth="yes"/>
      <point x="623" y="210"/>
      <point x="295" y="547"/>
    </contour>
    <contour>
      <point x="726" y="580" type="line"/>
      <point x="646" y="546" type="line"/>
      <point x="646" y="509" type="line"/>
      <point x="1037" y="509" type="line"/>
      <point x="1037" y="546" type="line"/>
      <point x="946" y="575" type="line"/>
      <point x="946" y="902" type="line"/>
      <point x="1058" y="901" type="line"/>
      <point x="1212" y="846"/>
      <point x="1173" y="509"/>
      <point x="1321" y="509" type="curve" smooth="yes"/>
      <point x="1514" y="509" type="line"/>
      <point x="1514" y="555" type="line"/>
      <point x="1379" y="563"/>
      <point x="1438" y="835"/>
      <point x="1227" y="938" type="curve"/>
      <point x="1381" y="967"/>
      <point x="1434" y="1079"/>
      <point x="1434" y="1192" type="curve" smooth="yes"/>
      <point x="1434" y="1350"/>
      <point x="1329" y="1453"/>
      <point x="1066" y="1453" type="curve"/>
      <point x="956" y="1453"/>
      <point x="915" y="1448"/>
      <point x="831" y="1448" type="curve" smooth="yes"/>
      <point x="646" y="1448" type="line"/>
      <point x="646" y="1406" type="line"/>
      <point x="726" y="1376" type="line"/>
    </contour>
    <contour>
      <point x="946" y="973" type="curve"/>
      <point x="946" y="1384" type="line"/>
      <point x="979" y="1391"/>
      <point x="1011" y="1394"/>
      <point x="1032" y="1394" type="curve" smooth="yes"/>
      <point x="1136" y="1394"/>
      <point x="1195" y="1317"/>
      <point x="1195" y="1180" type="curve" smooth="yes"/>
      <point x="1195" y="1052"/>
      <point x="1143" y="966"/>
      <point x="1064" y="966" type="curve" smooth="yes"/>
      <point x="1028" y="966"/>
      <point x="978" y="966"/>
    </contour>
  </outline>
</glyph>
<glyph name="micro" format="2">
  <advance width="1398"/>
  <unicode hex="00B5"/>
  <outline>
    <contour>
      <point x="212" y="-362" type="line"/>
      <point x="542" y="-362" type="line"/>
      <point x="542" y="48" type="line"/>
      <point x="585" y="3"/>
      <point x="636" y="-18"/>
      <point x="685" y="-18" type="curve" smooth="yes"/>
      <point x="775" y="-18"/>
      <point x="863" y="52"/>
      <point x="896" y="177" type="curve"/>
      <point x="896" y="71" type="line" smooth="yes"/>
      <point x="896" y="29"/>
      <point x="896" y="-20"/>
      <point x="1046" y="-20" type="curve" smooth="yes"/>
      <point x="1160" y="-20"/>
      <point x="1288" y="8"/>
      <point x="1302" y="10" type="curve"/>
      <point x="1302" y="48" type="line"/>
      <point x="1230" y="68" type="line"/>
      <point x="1230" y="992" type="line"/>
      <point x="1169" y="1035" type="line"/>
      <point x="755" y="921" type="line"/>
      <point x="755" y="880" type="line"/>
      <point x="873" y="833" type="line"/>
      <point x="873" y="208" type="line"/>
      <point x="828" y="172"/>
      <point x="775" y="156"/>
      <point x="727" y="156" type="curve" smooth="yes"/>
      <point x="627" y="156"/>
      <point x="561" y="227"/>
      <point x="561" y="336" type="curve" smooth="yes"/>
      <point x="561" y="992" type="line"/>
      <point x="504" y="1035" type="line"/>
      <point x="106" y="921" type="line"/>
      <point x="106" y="880" type="line"/>
      <point x="212" y="833" type="line"/>
    </contour>
  </outline>
</glyph>
<glyph name="periodcentered" format="2">
  <advance width="681"/>
  <unicode hex="00B7"/>
  <outline>
    <contour>
      <point x="322" y="536" type="curve" smooth="yes"/>
      <point x="446" y="536"/>
      <point x="525" y="596"/>
      <point x="525" y="701" type="curve" smooth="yes"/>
      <point x="525" y="779"/>
      <point x="467" y="853"/>
      <point x="353" y="853" type="curve" smooth="yes"/>
      <point x="240" y="853"/>
      <point x="156" y="786"/>
      <point x="156" y="688" type="curve" smooth="yes"/>
      <point x="156" y="599"/>
      <point x="231" y="536"/>
    </contour>
  </outline>
</glyph>
<glyph name="AE" format="2">
  <advance width="1862"/>
  <unicode hex="00C6"/>
  <anchor x="831" y="0" name="bottom"/>
  <anchor x="793" y="-166" name="mark0"/>
  <anchor x="831" y="1486" name="top"/>
  <outline>
    <contour>
      <point x="682" y="79" type="line"/>
      <point x="549" y="38" type="line"/>
      <point x="549" y="0" type="line"/>
      <point x="1774" y="0" type="line"/>
      <point x="1852" y="401" type="line"/>
      <point x="1696" y="429" type="line"/>
      <point x="1537" y="111" type="line"/>
      <point x="1069" y="59" type="line"/>
      <point x="1069" y="736" type="line"/>
      <point x="1339" y="729" type="line"/>
      <point x="1435" y="502" type="line"/>
      <point x="1505" y="502" type="line"/>
      <point x="1505" y="1004" type="line"/>
      <point x="1434" y="1004" type="line"/>
      <point x="1340" y="794" type="line"/>
      <point x="1069" y="788" type="line"/>
      <point x="1069" y="1427" type="line"/>
      <point x="1452" y="1400" type="line"/>
      <point x="1575" y="1113" type="line"/>
      <point x="1705" y="1113" type="line"/>
      <point x="1674" y="1486" type="line"/>
      <point x="309" y="1486" type="line"/>
      <point x="309" y="1450" type="line"/>
      <point x="553" y="1369" type="line"/>
      <point x="-24" y="130" type="line"/>
      <point x="-176" y="38" type="line"/>
      <point x="-176" y="0" type="line"/>
      <point x="208" y="0" type="line"/>
      <point x="208" y="38" type="line"/>
      <point x="56" y="125" type="line"/>
      <point x="193" y="435" type="line"/>
      <point x="682" y="435" type="line"/>
    </contour>
    <contour>
      <point x="682" y="499" type="line"/>
      <point x="222" y="499" type="line"/>
      <point x="547" y="1191" type="line"/>
      <point x="653" y="1412" type="line"/>
      <point x="682" y="1412" type="line"/>
    </contour>
  </outline>
</glyph>
<glyph name="Eth" format="2">
  <advance width="1527"/>
  <unicode hex="00D0"/>
  <anchor x="702" y="0" name="bottom"/>
  <anchor x="702" y="744" name="center"/>
  <anchor x="735" y="-166" name="mark0"/>
  <anchor x="702" y="1486" name="top"/>
  <outline>
    <contour>
      <point x="84" y="700" type="line"/>
      <point x="839" y="700" type="line"/>
      <point x="839" y="838" type="line"/>
      <point x="84" y="838" type="line"/>
    </contour>
    <component base="D"/>
  </outline>
</glyph>
<glyph name="thorn" format="2">
  <advance width="1107"/>
  <unicode hex="00FE"/>
  <outline>
    <contour>
      <point x="-20" y="-466" type="line"/>
      <point x="539" y="-466" type="line"/>
      <point x="539" y="-428" type="line"/>
      <point x="424" y="-394" type="line"/>
      <point x="424" y="-164" type="line"/>
      <point x="424" y="-2" type="line"/>
      <point x="450" y="-12"/>
      <point x="520" y="-22"/>
      <point x="590" y="-22" type="curve" smooth="yes"/>
      <point x="841" y="-22"/>
      <point x="1079" y="179"/>
      <point x="1079" y="524" type="curve" smooth="yes"/>
      <point x="1079" y="860"/>
      <point x="954" y="1044"/>
      <point x="694" y="1044" type="curve" smooth="yes"/>
      <point x="563" y="1044"/>
      <point x="443" y="949"/>
      <point x="424" y="893" type="curve"/>
      <point x="429" y="1595" type="line"/>
      <point x="374" y="1639" type="line"/>
      <point x="334" y="1639" type="line"/>
      <point x="-18" y="1524" type="line"/>
      <point x="-18" y="1485" type="line"/>
      <point x="93" y="1438" type="line"/>
      <point x="94" y="-394" type="line"/>
      <point x="-20" y="-428" type="line"/>
    </contour>
    <contour>
      <point x="561" y="37" type="curve" smooth="yes"/>
      <point x="511" y="37"/>
      <point x="447" y="63"/>
      <point x="424" y="113" type="curve"/>
      <point x="424" y="837" type="line"/>
      <point x="438" y="854"/>
      <point x="464" y="909"/>
      <point x="547" y="909" type="curve" smooth="yes"/>
      <point x="636" y="909"/>
      <point x="718" y="824"/>
      <point x="718" y="472" type="curve"/>
      <point x="718" y="200"/>
      <point x="677" y="37"/>
    </contour>
  </outline>
</glyph>
<glyph name="Ldot" format="2">
  <advance width="1560"/>
  <unicode hex="013F"/>
  <anchor x="688" y="-166" name="mark0"/>
  <anchor x="670" y="0" name="bottom"/>
  <anchor x="641" y="744" name="center"/>
  <anchor x="408" y="1486" name="top"/>
  <anchor x="989" y="1111" name="topright"/>
  <outline>
    <contour>
      <point x="1089" y="693" type="curve" smooth="yes"/>
      <point x="1210" y="693"/>
      <point x="1295" y="759"/>
      <point x="1295" y="874" type="curve" smooth="yes"/>
      <point x="1295" y="960"/>
      <point x="1231" y="1042"/>
      <point x="1120" y="1042" type="curve" smooth="yes"/>
      <point x="1009" y="1042"/>
      <point x="919" y="968"/>
      <point x="919" y="860" type="curve" smooth="yes"/>
      <point x="919" y="762"/>
      <point x="1001" y="693"/>
    </contour>
    <component base="L"/>
  </outline>
</glyph>
<glyph name="Lslash" format="2">
  <advance width="1276"/>
  <unicode hex="0141"/>
  <anchor x="670" y="0" name="bottom"/>
  <anchor x="641" y="744" name="center"/>
  <anchor x="688" y="-166" name="mark0"/>
  <anchor x="408" y="1486" name="top"/>
  <anchor x="989" y="1111" name="topright"/>
  <outline>
    <contour>
      <point x="227" y="754" type="line"/>
      <point x="20" y="666" type="line"/>
      <point x="20" y="594" type="line"/>
      <point x="227" y="680" type="line"/>
      <point x="259" y="692" type="line"/>
      <point x="860" y="954" type="line"/>
      <point x="860" y="1032" type="line"/>
      <point x="261" y="768" type="line"/>
    </contour>
    <component base="L"/>
  </outline>
</glyph>
<glyph name="OE" format="2">
  <advance width="2038"/>
  <unicode hex="0152"/>
  <outline>
    <contour>
      <point x="925" y="43" type="curve"/>
      <point x="925" y="0" type="line"/>
      <point x="1961" y="0" type="line"/>
      <point x="2028" y="372" type="line"/>
      <point x="1866" y="418" type="line"/>
      <point x="1726" y="165" type="line"/>
      <point x="1275" y="138" type="line"/>
      <point x="1275" y="682" type="line"/>
      <point x="1521" y="676" type="line"/>
      <point x="1554" y="502" type="line"/>
      <point x="1701" y="502" type="line"/>
      <point x="1701" y="1003" type="line"/>
      <point x="1554" y="1003" type="line"/>
      <point x="1521" y="842" type="line"/>
      <point x="1275" y="835" type="line"/>
      <point x="1275" y="1355" type="line"/>
      <point x="1674" y="1333" type="line"/>
      <point x="1741" y="1131" type="line"/>
      <point x="1900" y="1131" type="line"/>
      <point x="1872" y="1486" type="line"/>
      <point x="925" y="1486" type="line"/>
      <point x="925" y="1471" type="line"/>
      <point x="861" y="1497"/>
      <point x="790" y="1509"/>
      <point x="713" y="1509" type="curve" smooth="yes"/>
      <point x="283" y="1505"/>
      <point x="20" y="1207"/>
      <point x="20" y="741" type="curve" smooth="yes"/>
      <point x="20" y="293"/>
      <point x="231" y="-18"/>
      <point x="692" y="-16" type="curve"/>
      <point x="777" y="-15"/>
      <point x="854" y="4"/>
    </contour>
    <contour>
      <point x="701" y="113" type="curve" smooth="yes"/>
      <point x="510" y="113"/>
      <point x="395" y="318"/>
      <point x="395" y="743" type="curve" smooth="yes"/>
      <point x="395" y="1164"/>
      <point x="505" y="1377"/>
      <point x="698" y="1377" type="curve" smooth="yes"/>
      <point x="806" y="1377"/>
      <point x="881" y="1334"/>
      <point x="925" y="1192" type="curve"/>
      <point x="925" y="341" type="line"/>
      <point x="880" y="201"/>
      <point x="807" y="113"/>
    </contour>
  </outline>
</glyph>
<glyph name="tbar" format="2">
  <advance width="687"/>
  <unicode hex="0167"/>
  <anchor x="383" y="0" name="bottom"/>
  <anchor x="423" y="-143" name="center"/>
  <anchor x="436" y="77" name="mark0"/>
  <anchor x="359" y="1350" name="top"/>
  <anchor x="659" y="1111" name="topright"/>
  <outline>
    <contour>
      <point x="651" y="640" type="line"/>
      <point x="18" y="640" type="line"/>
      <point x="18" y="568" type="line"/>
      <point x="651" y="568" type="line"/>
    </contour>
    <component base="t"/>
  </outline>
</glyph>
<glyph name="Ohorn" format="2">
  <advance width="1526"/>
  <unicode hex="01A0"/>
  <anchor x="1315" y="20" name="ogonek"/>
  <anchor x="740" y="0" name="bottom"/>
  <anchor x="759" y="714" name="center"/>
  <anchor x="763" y="1486" name="top"/>
  <anchor x="50" y="1486" name="topleft"/>
  <anchor x="1233" y="1486" name="topright"/>
  <outline>
    <contour>
      <point x="1150" y="1352" type="line"/>
      <point x="1394" y="1352"/>
      <point x="1518" y="1478"/>
      <point x="1518" y="1686" type="curve" smooth="yes"/>
      <point x="1518" y="1700"/>
      <point x="1516" y="1714"/>
      <point x="1514" y="1730" type="curve"/>
      <point x="1364" y="1730" type="line"/>
      <point x="1366" y="1722"/>
      <point x="1366" y="1710"/>
      <point x="1366" y="1696" type="curve" smooth="yes"/>
      <point x="1366" y="1596"/>
      <point x="1308" y="1408"/>
      <point x="1116" y="1408" type="curve"/>
    </contour>
    <component base="O"/>
  </outline>
</glyph>
<glyph name="ringhalfright" format="2">
  <unicode hex="02BE"/>
  <outline>
    <contour>
      <point x="0" y="1122" type="line"/>
      <point x="149" y="1122"/>
      <point x="303" y="1226"/>
      <point x="303" y="1403" type="curve" smooth="yes"/>
      <point x="303" y="1555"/>
      <point x="182" y="1638"/>
      <point x="0" y="1638" type="curve"/>
      <point x="0" y="1581" type="line"/>
      <point x="71" y="1575"/>
      <point x="117" y="1514"/>
      <point x="117" y="1385" type="curve" smooth="yes"/>
      <point x="117" y="1262"/>
      <point x="71" y="1185"/>
      <point x="0" y="1179" type="curve"/>
    </contour>
  </outline>
</glyph>
<glyph name="ringhalfleft" format="2">
  <unicode hex="02BF"/>
  <anchor x="0" y="1110" name="_top"/>
  <anchor x="0" y="1700" name="top"/>
  <outline>
    <contour>
      <point x="0" y="1122" type="curve"/>
      <point x="0" y="1179" type="line"/>
      <point x="-71" y="1185"/>
      <point x="-117" y="1246"/>
      <point x="-117" y="1375" type="curve" smooth="yes"/>
      <point x="-117" y="1498"/>
      <point x="-71" y="1575"/>
      <point x="0" y="1581" type="curve"/>
      <point x="0" y="1638" type="line"/>
      <point x="-149" y="1638"/>
      <point x="-303" y="1534"/>
      <point x="-303" y="1357" type="curve" smooth="yes"/>
      <point x="-303" y="1205"/>
      <point x="-182" y="1122"/>
    </contour>
  </outline>
</glyph>
<glyph name="brevecomb" format="2">
  <unicode hex="0306"/>
  <anchor x="0" y="1110" name="_top"/>
  <anchor x="0" y="1738" name="top"/>
  <outline>
    <contour>
      <point x="0" y="1238" type="curve" smooth="yes"/>
      <point x="182" y="1238"/>
      <point x="311" y="1380"/>
      <point x="311" y="1576" type="curve" smooth="yes"/>
      <point x="311" y="1606"/>
      <point x="310" y="1622"/>
      <point x="307" y="1643" type="curve"/>
      <point x="247" y="1643" type="line"/>
      <point x="247" y="1630"/>
      <point x="246" y="1613"/>
      <point x="241" y="1594" type="curve" smooth="yes"/>
      <point x="216" y="1498"/>
      <point x="115" y="1448"/>
      <point x="0" y="1448" type="curve" smooth="yes"/>
      <point x="-115" y="1448"/>
      <point x="-216" y="1498"/>
      <point x="-241" y="1594" type="curve" smooth="yes"/>
      <point x="-246" y="1613"/>
      <point x="-247" y="1630"/>
      <point x="-247" y="1643" type="curve"/>
      <point x="-307" y="1643" type="line"/>
      <point x="-310" y="1622"/>
      <point x="-311" y="1606"/>
      <point x="-311" y="1576" type="curve" smooth="yes"/>
      <point x="-311" y="1380"/>
      <point x="-182" y="1238"/>
    </contour>
  </outline>
</glyph>
<glyph name="dieresiscomb" format="2">
  <unicode hex="0308"/>
  <anchor x="0" y="1110" name="_top"/>
  <anchor x="0" y="1504" name="top"/>
  <outline>
    <contour>
      <point x="-229" y="1139" type="curve" smooth="yes"/>
      <point x="-227" y="1139" type="line" smooth="yes"/>
      <point x="-129" y="1139"/>
      <point x="-66" y="1236"/>
      <point x="-66" y="1331" type="curve" smooth="yes"/>
      <point x="-66" y="1427"/>
      <point x="-119" y="1485"/>
      <point x="-212" y="1485" type="curve" smooth="yes"/>
      <point x="-214" y="1485" type="line" smooth="yes"/>
      <point x="-310" y="1485"/>
      <point x="-375" y="1397"/>
      <point x="-375" y="1293" type="curve" smooth="yes"/>
      <point x="-375" y="1197"/>
      <point x="-322" y="1139"/>
    </contour>
    <contour>
      <point x="212" y="1139" type="curve" smooth="yes"/>
      <point x="214" y="1139" type="line" smooth="yes"/>
      <point x="312" y="1139"/>
      <point x="375" y="1236"/>
      <point x="375" y="1331" type="curve" smooth="yes"/>
      <point x="375" y="1427"/>
      <point x="322" y="1485"/>
      <point x="229" y="1485" type="curve" smooth="yes"/>
      <point x="227" y="1485" type="line" smooth="yes"/>
      <point x="131" y="1485"/>
      <point x="66" y="1397"/>
      <point x="66" y="1293" type="curve" smooth="yes"/>
      <point x="66" y="1197"/>
      <point x="119" y="1139"/>
    </contour>
  </outline>
</glyph>
<glyph name="hungarumlautcomb" format="2">
  <unicode hex="030B"/>
  <anchor x="0" y="1110" name="_top"/>
  <anchor x="0" y="1742" name="top"/>
  <outline>
    <contour>
      <point x="-286" y="1120" type="line"/>
      <point x="-162" y="1177"/>
      <point x="39" y="1334"/>
      <point x="123" y="1459" type="curve"/>
      <point x="-77" y="1601" type="line"/>
      <point x="-327" y="1153" type="line"/>
      <point x="-288" y="1120" type="line"/>
    </contour>
    <contour>
      <point x="121" y="1120" type="line"/>
      <point x="245" y="1177"/>
      <point x="446" y="1334"/>
      <point x="530" y="1459" type="curve"/>
      <point x="330" y="1601" type="line"/>
      <point x="80" y="1153" type="line"/>
      <point x="119" y="1120" type="line"/>
    </contour>
  </outline>
</glyph>
<glyph name="dblgravecomb" format="2">
  <unicode hex="030F"/>
  <anchor x="0" y="1110" name="_top"/>
  <anchor x="0" y="1742" name="top"/>
  <outline>
    <contour>
      <point x="286" y="1120" type="curve"/>
      <point x="288" y="1120" type="line"/>
      <point x="327" y="1153" type="line"/>
      <point x="77" y="1601" type="line"/>
      <point x="-123" y="1459" type="line"/>
      <point x="-39" y="1334"/>
      <point x="162" y="1177"/>
    </contour>
    <contour>
      <point x="-121" y="1120" type="curve"/>
      <point x="-119" y="1120" type="line"/>
      <point x="-80" y="1153" type="line"/>
      <point x="-330" y="1601" type="line"/>
      <point x="-530" y="1459" type="line"/>
      <point x="-446" y="1334"/>
      <point x="-245" y="1177"/>
    </contour>
  </outline>
</glyph>
<glyph name="commaaccentcomb" format="2">
  <unicode hex="0326"/>
  <anchor x="0" y="0" name="_bottom"/>
  <anchor x="0" y="-545" name="bottom"/>
  <outline>
    <contour>
      <point x="163" y="-295" type="curve" smooth="yes"/>
      <point x="163" y="-198"/>
      <point x="81" y="-129"/>
      <point x="-6" y="-129" type="curve" smooth="yes"/>
      <point x="-13" y="-129" type="line" smooth="yes"/>
      <point x="-74" y="-129"/>
      <point x="-163" y="-174"/>
      <point x="-163" y="-257" type="curve" smooth="yes"/>
      <point x="-163" y="-297"/>
      <point x="-143" y="-323"/>
      <point x="-98" y="-352" type="curve" smooth="yes"/>
      <point x="-52" y="-382"/>
      <point x="-36" y="-398"/>
      <point x="-36" y="-439" type="curve" smooth="yes"/>
      <point x="-36" y="-473"/>
      <point x="-61" y="-515"/>
      <point x="-99" y="-550" type="curve"/>
      <point x="-99" y="-558" type="line"/>
      <point x="-63" y="-582" type="line"/>
      <point x="-61" y="-582" type="line"/>
      <point x="14" y="-540"/>
      <point x="163" y="-427"/>
    </contour>
  </outline>
</glyph>
<glyph name="brevebelowcomb" format="2">
  <unicode hex="032E"/>
  <anchor x="0" y="0" name="_bottom"/>
  <anchor x="0" y="1738" name="top"/>
  <outline>
    <contour>
      <point x="0" y="-492" type="curve" smooth="yes"/>
      <point x="187" y="-492"/>
      <point x="311" y="-360"/>
      <point x="311" y="-194" type="curve" smooth="yes"/>
      <point x="311" y="-164"/>
      <point x="310" y="-150"/>
      <point x="307" y="-129" type="curve"/>
      <point x="247" y="-129" type="line"/>
      <point x="247" y="-142"/>
      <point x="246" y="-157"/>
      <point x="240" y="-176" type="curve" smooth="yes"/>
      <point x="217" y="-243"/>
      <point x="125" y="-292"/>
      <point x="0" y="-292" type="curve" smooth="yes"/>
      <point x="-125" y="-292"/>
      <point x="-217" y="-243"/>
      <point x="-240" y="-176" type="curve" smooth="yes"/>
      <point x="-246" y="-157"/>
      <point x="-247" y="-142"/>
      <point x="-247" y="-129" type="curve"/>
      <point x="-307" y="-129" type="line"/>
      <point x="-310" y="-150"/>
      <point x="-311" y="-164"/>
      <point x="-311" y="-194" type="curve" smooth="yes"/>
      <point x="-311" y="-360"/>
      <point x="-187" y="-492"/>
    </contour>
  </outline>
</glyph>
<glyph name="Delta" format="2">
  <advance width="1411"/>
  <unicode hex="0394"/>
  <outline>
    <contour>
      <point x="8" y="0" type="line"/>
      <point x="1307" y="0" type="line"/>
      <point x="1338" y="66" type="line"/>
      <point x="677" y="1493" type="line"/>
      <point x="577" y="1493" type="line"/>
      <point x="-27" y="63" type="line"/>
    </contour>
    <contour>
      <point x="69" y="64" type="line"/>
      <point x="439" y="956" type="line"/>
      <point x="488" y="1080" type="line"/>
      <point x="525" y="972" type="line"/>
      <point x="900" y="96" type="line"/>
      <point x="1061" y="208" type="line"/>
      <point x="75" y="208" type="line"/>
    </contour>
  </outline>
</glyph>
<glyph name="Dzhe-cy" format="2">
  <advance width="1560"/>
  <unicode hex="040F"/>
  <outline>
    <contour>
      <point x="665" y="-410" type="curve"/>
      <point x="895" y="-410" type="line"/>
      <point x="897" y="-274"/>
      <point x="930" y="-51"/>
      <point x="947" y="0" type="curve"/>
      <point x="1552" y="0" type="line"/>
      <point x="1552" y="37" type="line"/>
      <point x="1424" y="72" type="line"/>
      <point x="1424" y="1414" type="line"/>
      <point x="1552" y="1449" type="line"/>
      <point x="1552" y="1486" type="line"/>
      <point x="890" y="1486" type="line"/>
      <point x="890" y="1449" type="line"/>
      <point x="1020" y="1414" type="line"/>
      <point x="1020" y="66" type="line"/>
      <point x="540" y="66" type="line"/>
      <point x="540" y="1414" type="line"/>
      <point x="671" y="1449" type="line"/>
      <point x="671" y="1486" type="line"/>
      <point x="8" y="1486" type="line"/>
      <point x="8" y="1449" type="line"/>
      <point x="136" y="1414" type="line"/>
      <point x="136" y="72" type="line"/>
      <point x="8" y="37" type="line"/>
      <point x="8" y="0" type="line"/>
      <point x="608" y="0" type="line"/>
      <point x="621" y="-19"/>
      <point x="665" y="-304"/>
    </contour>
  </outline>
</glyph>
<glyph name="Ii-cy" format="2">
  <advance width="1609"/>
  <unicode hex="0418"/>
  <anchor x="1589" y="0" name="bottomright"/>
  <anchor x="805" y="1486" name="top"/>
  <outline>
    <contour>
      <point x="8" y="0" type="line"/>
      <point x="675" y="0" type="line"/>
      <point x="675" y="37" type="line"/>
      <point x="541" y="72" type="line"/>
      <point x="541" y="182" type="line"/>
      <point x="995" y="994" type="line"/>
      <point x="1067" y="1133" type="line"/>
      <point x="1067" y="72" type="line"/>
      <point x="936" y="37" type="line"/>
      <point x="936" y="0" type="line"/>
      <point x="1601" y="0" type="line"/>
      <point x="1601" y="37" type="line"/>
      <point x="1471" y="72" type="line"/>
      <point x="1471" y="1414" type="line"/>
      <point x="1600" y="1449" type="line"/>
      <point x="1600" y="1486" type="line"/>
      <point x="937" y="1486" type="line"/>
      <point x="937" y="1449" type="line"/>
      <point x="1067" y="1414" type="line"/>
      <point x="1067" y="1250" type="line"/>
      <point x="639" y="494" type="line"/>
      <point x="541" y="297" type="line"/>
      <point x="541" y="1414" type="line"/>
      <point x="674" y="1449" type="line"/>
      <point x="674" y="1486" type="line"/>
      <point x="9" y="1486" type="line"/>
      <point x="9" y="1449" type="line"/>
      <point x="137" y="1414" type="line"/>
      <point x="137" y="72" type="line"/>
      <point x="8" y="37" type="line"/>
    </contour>
  </outline>
</glyph>
<glyph name="Pe-cy" format="2">
  <advance width="1646"/>
  <unicode hex="041F"/>
  <anchor x="1126" y="0" name="bottomright"/>
  <outline>
    <contour>
      <point x="9" y="1486" type="line"/>
      <point x="9" y="1450" type="line"/>
      <point x="142" y="1412" type="line"/>
      <point x="142" y="72" type="line"/>
      <point x="8" y="38" type="line"/>
      <point x="8" y="0" type="line"/>
      <point x="679" y="0" type="line"/>
      <point x="679" y="38" type="line"/>
      <point x="545" y="72" type="line"/>
      <point x="545" y="1420" type="line"/>
      <point x="1101" y="1420" type="line"/>
      <point x="1101" y="72" type="line"/>
      <point x="969" y="38" type="line"/>
      <point x="969" y="0" type="line"/>
      <point x="1638" y="0" type="line"/>
      <point x="1638" y="38" type="line"/>
      <point x="1504" y="72" type="line"/>
      <point x="1504" y="1412" type="line"/>
      <point x="1636" y="1450" type="line"/>
      <point x="1636" y="1486" type="line"/>
    </contour>
  </outline>
</glyph>
<glyph name="U-cy" format="2">
  <advance width="1489"/>
  <unicode hex="0423"/>
  <anchor x="832" y="1486" name="top"/>
  <outline>
    <contour>
      <point x="447" y="-33" type="curve" smooth="yes"/>
      <point x="680" y="-33"/>
      <point x="802" y="180"/>
      <point x="861" y="311" type="curve" smooth="yes"/>
      <point x="1356" y="1414" type="line"/>
      <point x="1489" y="1449" type="line"/>
      <point x="1489" y="1486" type="line"/>
      <point x="1116" y="1486" type="line"/>
      <point x="1116" y="1449" type="line"/>
      <point x="1254" y="1414" type="line"/>
      <point x="1001" y="812" type="line"/>
      <point x="943" y="652" type="line"/>
      <point x="972" y="662" type="line"/>
      <point x="916" y="772" type="line"/>
      <point x="556" y="1414" type="line"/>
      <point x="699" y="1449" type="line"/>
      <point x="699" y="1486" type="line"/>
      <point x="20" y="1486" type="line"/>
      <point x="20" y="1449" type="line"/>
      <point x="127" y="1414" type="line"/>
      <point x="784" y="230" type="line"/>
      <point x="781" y="301" type="line"/>
      <point x="748" y="226"/>
      <point x="651" y="189"/>
      <point x="507" y="189" type="curve" smooth="yes"/>
      <point x="409" y="189"/>
      <point x="353" y="206"/>
      <point x="276" y="231" type="curve"/>
      <point x="276" y="31" type="line"/>
      <point x="314" y="-3"/>
      <point x="382" y="-33"/>
    </contour>
  </outline>
</glyph>
<glyph name="Sha-cy" format="2">
  <advance width="2274"/>
  <unicode hex="0428"/>
  <outline>
    <contour>
      <point x="8" y="1486" type="line"/>
      <point x="8" y="1449" type="line"/>
      <point x="137" y="1414" type="line"/>
      <point x="137" y="72" type="line"/>
      <point x="8" y="37" type="line"/>
      <point x="8" y="0" type="line"/>
      <point x="2266" y="0" type="line"/>
      <point x="2266" y="37" type="line"/>
      <point x="2137" y="72" type="line"/>
      <point x="2137" y="1414" type="line"/>
      <point x="2266" y="1449" type="line"/>
      <point x="2266" y="1486" type="line"/>
      <point x="1616" y="1486" type="line"/>
      <point x="1616" y="1449" type="line"/>
      <point x="1733" y="1414" type="line"/>
      <point x="1733" y="66" type="line"/>
      <point x="1339" y="66" type="line"/>
      <point x="1339" y="1414" type="line"/>
      <point x="1457" y="1449" type="line"/>
      <point x="1457" y="1486" type="line"/>
      <point x="818" y="1486" type="line"/>
      <point x="818" y="1449" type="line"/>
      <point x="935" y="1414" type="line"/>
      <point x="935" y="66" type="line"/>
      <point x="541" y="66" type="line"/>
      <point x="541" y="1414" type="line"/>
      <point x="658" y="1449" type="line"/>
      <point x="658" y="1486" type="line"/>
    </contour>
  </outline>
</glyph>
<glyph name="Softsign-cy" format="2">
  <advance width="1367"/>
  <unicode hex="042C"/>
  <outline>
    <contour>
      <point x="812" y="-16" type="curve" smooth="yes"/>
      <point x="1123" y="-16"/>
      <point x="1367" y="162"/>
      <point x="1367" y="468" type="curve" smooth="yes"/>
      <point x="1367" y="731"/>
      <point x="1178" y="895"/>
      <point x="783" y="895" type="curve" smooth="yes"/>
      <point x="719" y="895"/>
      <point x="614" y="888"/>
      <point x="539" y="881" type="curve"/>
      <point x="539" y="1414" type="line"/>
      <point x="676" y="1449" type="line"/>
      <point x="676" y="1486" type="line"/>
      <point x="9" y="1486" type="line"/>
      <point x="9" y="1449" type="line"/>
      <point x="139" y="1414" type="line"/>
      <point x="139" y="72" type="line"/>
      <point x="8" y="37" type="line"/>
      <point x="8" y="0" type="line"/>
      <point x="452" y="-1" type="line" smooth="yes"/>
      <point x="587" y="-1"/>
      <point x="704" y="-16"/>
    </contour>
    <contour>
      <point x="663" y="53" type="curve" smooth="yes"/>
      <point x="610" y="53"/>
      <point x="572" y="57"/>
      <point x="539" y="64" type="curve"/>
      <point x="539" y="820" type="line"/>
      <point x="566" y="825"/>
      <point x="601" y="829"/>
      <point x="641" y="829" type="curve" smooth="yes"/>
      <point x="853" y="829"/>
      <point x="955" y="709"/>
      <point x="955" y="450" type="curve" smooth="yes"/>
      <point x="955" y="235"/>
      <point x="882" y="53"/>
    </contour>
  </outline>
</glyph>
<glyph name="Ia-cy" format="2">
  <advance width="1475"/>
  <unicode hex="042F"/>
  <outline>
    <contour>
      <point x="0" y="0" type="line"/>
      <point x="432" y="0" type="line" smooth="yes"/>
      <point x="521" y="0"/>
      <point x="610" y="505"/>
      <point x="759" y="636" type="curve"/>
      <point x="819" y="636"/>
      <point x="879" y="636"/>
      <point x="939" y="636" type="curve"/>
      <point x="939" y="72" type="line"/>
      <point x="795" y="37" type="line"/>
      <point x="795" y="0" type="line"/>
      <point x="1467" y="0" type="line"/>
      <point x="1467" y="37" type="line"/>
      <point x="1333" y="72" type="line"/>
      <point x="1333" y="1414" type="line"/>
      <point x="1466" y="1449" type="line"/>
      <point x="1466" y="1486" type="line"/>
      <point x="1080" y="1486" type="line" smooth="yes"/>
      <point x="966" y="1486"/>
      <point x="899" y="1489"/>
      <point x="761" y="1489" type="curve" smooth="yes"/>
      <point x="348" y="1489"/>
      <point x="173" y="1347"/>
      <point x="173" y="1077" type="curve" smooth="yes"/>
      <point x="173" y="872"/>
      <point x="292" y="713"/>
      <point x="534" y="659" type="curve"/>
      <point x="175" y="567"/>
      <point x="164" y="92"/>
      <point x="65" y="60" type="curve" smooth="yes"/>
      <point x="0" y="38" type="line"/>
    </contour>
    <contour>
      <point x="852" y="697" type="curve" smooth="yes"/>
      <point x="681" y="697"/>
      <point x="571" y="805"/>
      <point x="571" y="1090" type="curve" smooth="yes"/>
      <point x="571" y="1283"/>
      <point x="638" y="1433"/>
      <point x="829" y="1433" type="curve" smooth="yes"/>
      <point x="867" y="1433"/>
      <point x="902" y="1431"/>
      <point x="939" y="1423" type="curve"/>
      <point x="939" y="701" type="line"/>
      <point x="922" y="698"/>
      <point x="883" y="697"/>
    </contour>
  </outline>
</glyph>
<glyph name="zhe-cy" format="2">
  <advance width="1857"/>
  <unicode hex="0436"/>
  <anchor x="1990" y="0" name="bottomright"/>
  <anchor x="932" y="1112" name="top"/>
  <outline>
    <contour>
      <point x="0" y="0" type="line"/>
      <point x="325" y="0" type="line"/>
      <point x="559" y="0"/>
      <point x="524" y="498"/>
      <point x="706" y="498" type="curve" smooth="yes"/>
      <point x="757" y="498" type="line"/>
      <point x="757" y="72" type="line"/>
      <point x="642" y="38" type="line"/>
      <point x="642" y="0" type="line"/>
      <point x="1220" y="0" type="line"/>
      <point x="1220" y="38" type="line"/>
      <point x="1105" y="72" type="line"/>
      <point x="1105" y="498" type="line"/>
      <point x="1152" y="498" type="line" smooth="yes"/>
      <point x="1338" y="498"/>
      <point x="1303" y="0"/>
      <point x="1533" y="0" type="curve"/>
      <point x="1857" y="0" type="line"/>
      <point x="1857" y="38" type="line"/>
      <point x="1808" y="56" type="line" smooth="yes"/>
      <point x="1637" y="118"/>
      <point x="1706" y="560"/>
      <point x="1356" y="568" type="curve"/>
      <point x="1602" y="931" type="line"/>
      <point x="1774" y="967" type="line"/>
      <point x="1774" y="1005" type="line"/>
      <point x="1354" y="1005" type="line"/>
      <point x="1354" y="967" type="line"/>
      <point x="1507" y="931" type="line"/>
      <point x="1262" y="568" type="line"/>
      <point x="1105" y="568" type="line"/>
      <point x="1105" y="933" type="line"/>
      <point x="1207" y="967" type="line"/>
      <point x="1207" y="1005" type="line"/>
      <point x="655" y="1005" type="line"/>
      <point x="655" y="967" type="line"/>
      <point x="757" y="933" type="line"/>
      <point x="757" y="568" type="line"/>
      <point x="606" y="568" type="line"/>
      <point x="362" y="931" type="line"/>
      <point x="514" y="967" type="line"/>
      <point x="514" y="1005" type="line"/>
      <point x="90" y="1005" type="line"/>
      <point x="90" y="967" type="line"/>
      <point x="262" y="931" type="line"/>
      <point x="508" y="568" type="line"/>
      <point x="152" y="560"/>
      <point x="216" y="116"/>
      <point x="50" y="56" type="curve" smooth="yes"/>
      <point x="0" y="38" type="line"/>
    </contour>
  </outline>
</glyph>
<glyph name="el-cy" format="2">
  <advance width="1118"/>
  <unicode hex="043B"/>
  <anchor x="539" y="-166" name="mark0"/>
  <outline>
    <contour>
      <point x="391" y="843" type="curve" smooth="yes"/>
      <point x="391" y="937" type="line"/>
      <point x="626" y="937" type="line"/>
      <point x="626" y="72" type="line"/>
      <point x="470" y="38" type="line"/>
      <point x="470" y="0" type="line"/>
      <point x="1088" y="0" type="line"/>
      <point x="1088" y="38" type="line"/>
      <point x="962" y="72" type="line"/>
      <point x="962" y="933" type="line"/>
      <point x="1081" y="967" type="line"/>
      <point x="1081" y="1005" type="line"/>
      <point x="155" y="1005" type="line"/>
      <point x="155" y="967" type="line"/>
      <point x="319" y="933" type="line"/>
      <point x="319" y="401"/>
      <point x="257" y="252"/>
      <point x="125" y="252" type="curve" smooth="yes"/>
      <point x="80" y="252"/>
      <point x="41" y="257"/>
      <point x="14" y="264" type="curve"/>
      <point x="30" y="-10" type="line"/>
      <point x="50" y="-16"/>
      <point x="74" y="-22"/>
      <point x="104" y="-22" type="curve" smooth="yes"/>
      <point x="192" y="-22"/>
      <point x="255" y="30"/>
      <point x="294" y="108" type="curve" smooth="yes"/>
      <point x="338" y="197"/>
      <point x="391" y="397"/>
    </contour>
  </outline>
</glyph>
<glyph name="en-cy" format="2">
  <advance width="1309"/>
  <unicode hex="043D"/>
  <anchor x="1480" y="0" name="bottomright"/>
  <outline>
    <contour>
      <point x="30" y="1005" type="line"/>
      <point x="30" y="966" type="line"/>
      <point x="134" y="932" type="line"/>
      <point x="134" y="55" type="line"/>
      <point x="33" y="39" type="line"/>
      <point x="33" y="0" type="line"/>
      <point x="582" y="0" type="line"/>
      <point x="582" y="39" type="line"/>
      <point x="487" y="55" type="line"/>
      <point x="487" y="490" type="line"/>
      <point x="823" y="490" type="line"/>
      <point x="823" y="55" type="line"/>
      <point x="726" y="39" type="line"/>
      <point x="726" y="0" type="line"/>
      <point x="1277" y="0" type="line"/>
      <point x="1277" y="39" type="line"/>
      <point x="1176" y="55" type="line"/>
      <point x="1176" y="932" type="line"/>
      <point x="1279" y="966" type="line"/>
      <point x="1279" y="1005" type="line"/>
      <point x="727" y="1005" type="line"/>
      <point x="727" y="966" type="line"/>
      <point x="823" y="932" type="line"/>
      <point x="823" y="548" type="line"/>
      <point x="487" y="548" type="line"/>
      <point x="487" y="932" type="line"/>
      <point x="581" y="966" type="line"/>
      <point x="581" y="1005" type="line"/>
    </contour>
  </outline>
</glyph>
<glyph name="te-cy" format="2">
  <advance width="1226"/>
  <unicode hex="0442"/>
  <anchor x="709" y="-166" name="mark0"/>
  <outline>
    <contour>
      <point x="28" y="1005" type="line"/>
      <point x="18" y="588" type="line"/>
      <point x="214" y="588" type="line"/>
      <point x="278" y="947" type="line"/>
      <point x="445" y="957" type="line"/>
      <point x="445" y="72" type="line"/>
      <point x="255" y="38" type="line"/>
      <point x="255" y="0" type="line"/>
      <point x="971" y="0" type="line"/>
      <point x="971" y="38" type="line"/>
      <point x="781" y="72" type="line"/>
      <point x="781" y="957" type="line"/>
      <point x="948" y="947" type="line"/>
      <point x="1012" y="588" type="line"/>
      <point x="1208" y="588" type="line"/>
      <point x="1198" y="1005" type="line"/>
    </contour>
  </outline>
</glyph>
<glyph name="tse-cy" format="2">
  <advance width="1268"/>
  <unicode hex="0446"/>
  <outline>
    <contour>
      <point x="30" y="0" type="line"/>
      <point x="968" y="0" type="line"/>
      <point x="1217" y="0" type="line"/>
      <point x="1217" y="64" type="line"/>
      <point x="1098" y="72" type="line"/>
      <point x="1098" y="933" type="line"/>
      <point x="1224" y="967" type="line"/>
      <point x="1224" y="1005" type="line"/>
      <point x="659" y="1005" type="line"/>
      <point x="659" y="967" type="line"/>
      <point x="761" y="933" type="line"/>
      <point x="761" y="66" type="line"/>
      <point x="492" y="66" type="line"/>
      <point x="492" y="933" type="line"/>
      <point x="594" y="967" type="line"/>
      <point x="594" y="1005" type="line"/>
      <point x="34" y="1005" type="line"/>
      <point x="34" y="967" type="line"/>
      <point x="156" y="933" type="line"/>
      <point x="156" y="72" type="line"/>
      <point x="30" y="38" type="line"/>
    </contour>
    <contour>
      <point x="1026" y="-406" type="curve"/>
      <point x="1194" y="-406" type="line"/>
      <point x="1212" y="-332"/>
      <point x="1246" y="56"/>
      <point x="1252" y="140" type="curve"/>
      <point x="1062" y="140" type="line"/>
      <point x="960" y="0" type="line"/>
      <point x="982" y="-78"/>
      <point x="1018" y="-328"/>
    </contour>
  </outline>
</glyph>
<glyph name="che-cy" format="2">
  <advance width="1194"/>
  <unicode hex="0447"/>
  <anchor x="1211" y="0" name="bottomright"/>
  <anchor x="679" y="556" name="center"/>
  <anchor x="592" y="1111" name="top"/>
  <outline>
    <contour>
      <point x="729" y="456" type="curve"/>
      <point x="729" y="72" type="line"/>
      <point x="575" y="39" type="line"/>
      <point x="575" y="0" type="line"/>
      <point x="1163" y="0" type="line"/>
      <point x="1163" y="39" type="line"/>
      <point x="1051" y="72" type="line"/>
      <point x="1051" y="938" type="line"/>
      <point x="1164" y="970" type="line"/>
      <point x="1164" y="1006" type="line"/>
      <point x="634" y="1006" type="line"/>
      <point x="634" y="970" type="line"/>
      <point x="729" y="936" type="line"/>
      <point x="729" y="517" type="line"/>
      <point x="701" y="496"/>
      <point x="644" y="481"/>
      <point x="585" y="481" type="curve" smooth="yes"/>
      <point x="441" y="481"/>
      <point x="444" y="607"/>
      <point x="444" y="756" type="curve" smooth="yes"/>
      <point x="444" y="936" type="line"/>
      <point x="523" y="970" type="line"/>
      <point x="523" y="1006" type="line"/>
      <point x="25" y="1006" type="line"/>
      <point x="25" y="970" type="line"/>
      <point x="110" y="938" type="line"/>
      <point x="110" y="722" type="line" smooth="yes"/>
      <point x="110" y="547"/>
      <point x="159" y="373"/>
      <point x="466" y="373" type="curve" smooth="yes"/>
      <point x="582" y="373"/>
      <point x="686" y="408"/>
    </contour>
  </outline>
</glyph>
<glyph name="sha-cy" format="2">
  <advance width="1901"/>
  <unicode hex="0448"/>
  <anchor x="712" y="-166" name="mark0"/>
  <outline>
    <contour>
      <point x="20" y="1005" type="line"/>
      <point x="20" y="966" type="line"/>
      <point x="135" y="935" type="line"/>
      <point x="135" y="70" type="line"/>
      <point x="25" y="39" type="line"/>
      <point x="25" y="0" type="line"/>
      <point x="1873" y="0" type="line"/>
      <point x="1873" y="39" type="line"/>
      <point x="1763" y="68" type="line"/>
      <point x="1763" y="935" type="line"/>
      <point x="1881" y="966" type="line"/>
      <point x="1881" y="1005" type="line"/>
      <point x="1309" y="1005" type="line"/>
      <point x="1309" y="966" type="line"/>
      <point x="1419" y="935" type="line"/>
      <point x="1419" y="64" type="line"/>
      <point x="1121" y="64" type="line"/>
      <point x="1121" y="935" type="line"/>
      <point x="1215" y="966" type="line"/>
      <point x="1215" y="1005" type="line"/>
      <point x="681" y="1005" type="line"/>
      <point x="681" y="966" type="line"/>
      <point x="777" y="935" type="line"/>
      <point x="777" y="64" type="line"/>
      <point x="479" y="64" type="line"/>
      <point x="479" y="935" type="line"/>
      <point x="593" y="966" type="line"/>
      <point x="593" y="1005" type="line"/>
    </contour>
  </outline>
</glyph>
<glyph name="hardsign-cy" format="2">
  <advance width="1344"/>
  <unicode hex="044A"/>
  <outline>
    <contour>
      <point x="231" y="0" type="line"/>
      <point x="568" y="0" type="line" smooth="yes"/>
      <point x="644" y="0"/>
      <point x="862" y="-6"/>
      <point x="922" y="-6" type="curve" smooth="yes"/>
      <point x="1184" y="-6"/>
      <point x="1319" y="113"/>
      <point x="1319" y="343" type="curve" smooth="yes"/>
      <point x="1319" y="563"/>
      <point x="1181" y="646"/>
      <point x="961" y="646" type="curve" smooth="yes"/>
      <point x="868" y="646"/>
      <point x="804" y="631"/>
      <point x="753" y="612" type="curve"/>
      <point x="753" y="933" type="line"/>
      <point x="913" y="967" type="line"/>
      <point x="913" y="1005" type="line"/>
      <point x="28" y="1005" type="line"/>
      <point x="18" y="589" type="line"/>
      <point x="209" y="589" type="line"/>
      <point x="297" y="947" type="line"/>
      <point x="421" y="957" type="line"/>
      <point x="421" y="72" type="line"/>
      <point x="231" y="38" type="line"/>
    </contour>
    <contour>
      <point x="807" y="54" type="curve" smooth="yes"/>
      <point x="785" y="54"/>
      <point x="766" y="57"/>
      <point x="753" y="62" type="curve"/>
      <point x="753" y="568" type="line"/>
      <point x="768" y="573"/>
      <point x="795" y="578"/>
      <point x="825" y="578" type="curve" smooth="yes"/>
      <point x="906" y="578"/>
      <point x="977" y="509"/>
      <point x="977" y="329" type="curve" smooth="yes"/>
      <point x="977" y="142"/>
      <point x="901" y="54"/>
    </contour>
  </outline>
</glyph>
<glyph name="softsign-cy" format="2">
  <advance width="1081"/>
  <unicode hex="044C"/>
  <outline>
    <contour>
      <point x="30" y="0" type="line"/>
      <point x="303" y="0" type="line" smooth="yes"/>
      <point x="379" y="0"/>
      <point x="598" y="-6"/>
      <point x="658" y="-6" type="curve" smooth="yes"/>
      <point x="920" y="-6"/>
      <point x="1056" y="120"/>
      <point x="1056" y="344" type="curve" smooth="yes"/>
      <point x="1056" y="570"/>
      <point x="915" y="646"/>
      <point x="697" y="646" type="curve" smooth="yes"/>
      <point x="602" y="646"/>
      <point x="539" y="631"/>
      <point x="488" y="612" type="curve"/>
      <point x="488" y="933" type="line"/>
      <point x="630" y="967" type="line"/>
      <point x="630" y="1005" type="line"/>
      <point x="34" y="1005" type="line"/>
      <point x="34" y="967" type="line"/>
      <point x="156" y="933" type="line"/>
      <point x="156" y="72" type="line"/>
      <point x="30" y="38" type="line"/>
    </contour>
    <contour>
      <point x="542" y="54" type="curve" smooth="yes"/>
      <point x="521" y="54"/>
      <point x="501" y="57"/>
      <point x="488" y="62" type="curve"/>
      <point x="488" y="568" type="line"/>
      <point x="503" y="573"/>
      <point x="532" y="578"/>
      <point x="561" y="578" type="curve" smooth="yes"/>
      <point x="642" y="578"/>
      <point x="714" y="508"/>
      <point x="714" y="328" type="curve" smooth="yes"/>
      <point x="714" y="141"/>
      <point x="636" y="54"/>
    </contour>
  </outline>
</glyph>
<glyph name="ereversed-cy" format="2">
  <advance width="963"/>
  <unicode hex="044D"/>
  <anchor x="462" y="-166" name="mark0"/>
  <anchor x="456" y="1110" name="top"/>
  <outline>
    <contour>
      <point x="387" y="-28" type="curve" smooth="yes"/>
      <point x="800" y="-28"/>
      <point x="941" y="245"/>
      <point x="941" y="530" type="curve" smooth="yes"/>
      <point x="941" y="830"/>
      <point x="783" y="1039"/>
      <point x="452" y="1039" type="curve" smooth="yes"/>
      <point x="295" y="1039"/>
      <point x="170" y="994"/>
      <point x="60" y="945" type="curve"/>
      <point x="66" y="681" type="line"/>
      <point x="260" y="681" type="line"/>
      <point x="318" y="951" type="line"/>
      <point x="337" y="968"/>
      <point x="370" y="983"/>
      <point x="411" y="983" type="curve" smooth="yes"/>
      <point x="519" y="983"/>
      <point x="568" y="766"/>
      <point x="577" y="539" type="curve" smooth="yes"/>
      <point x="579" y="489" type="line" smooth="yes"/>
      <point x="589" y="237"/>
      <point x="533" y="28"/>
      <point x="424" y="28" type="curve" smooth="yes"/>
      <point x="379" y="28"/>
      <point x="353" y="57"/>
      <point x="340" y="90" type="curve" smooth="yes"/>
      <point x="254" y="307" type="line"/>
      <point x="64" y="307" type="line"/>
      <point x="76" y="37" type="line"/>
      <point x="166" y="-6"/>
      <point x="270" y="-28"/>
    </contour>
    <contour>
      <point x="289" y="586" type="line"/>
      <point x="289" y="414" type="line"/>
      <point x="848" y="481" type="line"/>
      <point x="848" y="530" type="line"/>
    </contour>
  </outline>
</glyph>
<glyph name="iu-cy" format="2">
  <advance width="1673"/>
  <unicode hex="044E"/>
  <outline>
    <contour>
      <point x="30" y="0" type="line"/>
      <point x="582" y="0" type="line"/>
      <point x="582" y="38" type="line"/>
      <point x="480" y="72" type="line"/>
      <point x="480" y="486" type="line"/>
      <point x="640" y="486" type="line"/>
      <point x="644" y="150"/>
      <point x="809" y="-24"/>
      <point x="1122" y="-24" type="curve" smooth="yes"/>
      <point x="1402" y="-24"/>
      <point x="1651" y="135"/>
      <point x="1651" y="515" type="curve" smooth="yes"/>
      <point x="1651" y="856"/>
      <point x="1487" y="1039"/>
      <point x="1169" y="1039" type="curve" smooth="yes"/>
      <point x="904" y="1039"/>
      <point x="664" y="881"/>
      <point x="642" y="550" type="curve"/>
      <point x="480" y="550" type="line"/>
      <point x="480" y="933" type="line"/>
      <point x="582" y="967" type="line"/>
      <point x="582" y="1005" type="line"/>
      <point x="32" y="1005" type="line"/>
      <point x="32" y="967" type="line"/>
      <point x="148" y="933" type="line"/>
      <point x="148" y="72" type="line"/>
      <point x="30" y="38" type="line"/>
    </contour>
    <contour>
      <point x="1150" y="983" type="curve" smooth="yes"/>
      <point x="1262" y="983"/>
      <point x="1281" y="807"/>
      <point x="1281" y="489" type="curve" smooth="yes"/>
      <point x="1281" y="170"/>
      <point x="1248" y="32"/>
      <point x="1149" y="32" type="curve" smooth="yes"/>
      <point x="1038" y="32"/>
      <point x="1012" y="195"/>
      <point x="1012" y="522" type="curve" smooth="yes"/>
      <point x="1012" y="833"/>
      <point x="1050" y="983"/>
    </contour>
  </outline>
</glyph>
<glyph name="yi-cy" format="2">
  <advance width="590"/>
  <unicode hex="0457"/>
  <anchor x="364" y="0" name="bottom"/>
  <anchor x="359" y="-166" name="mark0"/>
  <anchor x="445" y="20" name="ogonek"/>
  <anchor x="304" y="1110" name="top"/>
  <outline>
    <contour>
      <point x="75" y="1139" type="curve" smooth="yes"/>
      <point x="77" y="1139" type="line" smooth="yes"/>
      <point x="175" y="1139"/>
      <point x="238" y="1236"/>
      <point x="238" y="1331" type="curve" smooth="yes"/>
      <point x="238" y="1427"/>
      <point x="185" y="1485"/>
      <point x="92" y="1485" type="curve" smooth="yes"/>
      <point x="90" y="1485" type="line" smooth="yes"/>
      <point x="-6" y="1485"/>
      <point x="-71" y="1397"/>
      <point x="-71" y="1293" type="curve" smooth="yes"/>
      <point x="-71" y="1197"/>
      <point x="-18" y="1139"/>
    </contour>
    <contour>
      <point x="516" y="1139" type="curve" smooth="yes"/>
      <point x="518" y="1139" type="line" smooth="yes"/>
      <point x="616" y="1139"/>
      <point x="679" y="1236"/>
      <point x="679" y="1331" type="curve" smooth="yes"/>
      <point x="679" y="1427"/>
      <point x="626" y="1485"/>
      <point x="533" y="1485" type="curve" smooth="yes"/>
      <point x="531" y="1485" type="line" smooth="yes"/>
      <point x="435" y="1485"/>
      <point x="370" y="1397"/>
      <point x="370" y="1293" type="curve" smooth="yes"/>
      <point x="370" y="1197"/>
      <point x="423" y="1139"/>
    </contour>
    <component base="idotless"/>
  </outline>
</glyph>
<glyph name="lje-cy" format="2">
  <advance width="1579"/>
  <unicode hex="0459"/>
  <anchor x="695" y="-166" name="mark0"/>
  <outline>
    <contour>
      <point x="470" y="0" type="line"/>
      <point x="769" y="0" type="line" smooth="yes"/>
      <point x="860" y="0"/>
      <point x="1042" y="-12"/>
      <point x="1118" y="-12" type="curve" smooth="yes"/>
      <point x="1380" y="-12"/>
      <point x="1554" y="100"/>
      <point x="1554" y="323" type="curve" smooth="yes"/>
      <point x="1554" y="532"/>
      <point x="1400" y="608"/>
      <point x="1185" y="608" type="curve" smooth="yes"/>
      <point x="1088" y="608"/>
      <point x="1013" y="593"/>
      <point x="962" y="574" type="curve"/>
      <point x="962" y="933" type="line"/>
      <point x="1081" y="967" type="line"/>
      <point x="1081" y="1005" type="line"/>
      <point x="153" y="1005" type="line"/>
      <point x="153" y="967" type="line"/>
      <point x="317" y="933" type="line"/>
      <point x="317" y="377"/>
      <point x="261" y="240"/>
      <point x="129" y="240" type="curve" smooth="yes"/>
      <point x="84" y="240"/>
      <point x="41" y="245"/>
      <point x="14" y="252" type="curve"/>
      <point x="30" y="-2" type="line"/>
      <point x="51" y="-9"/>
      <point x="80" y="-14"/>
      <point x="109" y="-14" type="curve" smooth="yes"/>
      <point x="200" y="-14"/>
      <point x="255" y="37"/>
      <point x="296" y="114" type="curve" smooth="yes"/>
      <point x="341" y="198"/>
      <point x="389" y="375"/>
      <point x="389" y="837" type="curve" smooth="yes"/>
      <point x="389" y="937" type="line"/>
      <point x="626" y="937" type="line"/>
      <point x="626" y="72" type="line"/>
      <point x="470" y="38" type="line"/>
    </contour>
    <contour>
      <point x="1028" y="48" type="curve" smooth="yes"/>
      <point x="1004" y="48"/>
      <point x="977" y="54"/>
      <point x="962" y="62" type="curve"/>
      <point x="962" y="530" type="line"/>
      <point x="977" y="535"/>
      <point x="1015" y="540"/>
      <point x="1041" y="540" type="curve" smooth="yes"/>
      <point x="1128" y="540"/>
      <point x="1212" y="479"/>
      <point x="1212" y="307" type="curve" smooth="yes"/>
      <point x="1212" y="128"/>
      <point x="1122" y="48"/>
    </contour>
  </outline>
</glyph>
<glyph name="nje-cy" format="2">
  <advance width="1745"/>
  <unicode hex="045A"/>
  <outline>
    <contour>
      <point x="1128" y="574" type="curve"/>
      <point x="1128" y="933" type="line"/>
      <point x="1244" y="967" type="line"/>
      <point x="1244" y="1005" type="line"/>
      <point x="690" y="1005" type="line"/>
      <point x="690" y="967" type="line"/>
      <point x="794" y="933" type="line"/>
      <point x="794" y="550" type="line"/>
      <point x="480" y="550" type="line"/>
      <point x="480" y="933" type="line"/>
      <point x="582" y="967" type="line"/>
      <point x="582" y="1005" type="line"/>
      <point x="32" y="1005" type="line"/>
      <point x="32" y="967" type="line"/>
      <point x="148" y="933" type="line"/>
      <point x="148" y="72" type="line"/>
      <point x="30" y="38" type="line"/>
      <point x="30" y="0" type="line"/>
      <point x="582" y="0" type="line"/>
      <point x="582" y="38" type="line"/>
      <point x="480" y="72" type="line"/>
      <point x="480" y="486" type="line"/>
      <point x="794" y="486" type="line"/>
      <point x="794" y="72" type="line"/>
      <point x="690" y="38" type="line"/>
      <point x="690" y="0" type="line"/>
      <point x="935" y="0" type="line" smooth="yes"/>
      <point x="1026" y="0"/>
      <point x="1208" y="-12"/>
      <point x="1284" y="-12" type="curve" smooth="yes"/>
      <point x="1546" y="-12"/>
      <point x="1720" y="100"/>
      <point x="1720" y="323" type="curve" smooth="yes"/>
      <point x="1720" y="532"/>
      <point x="1566" y="608"/>
      <point x="1351" y="608" type="curve" smooth="yes"/>
      <point x="1254" y="608"/>
      <point x="1179" y="593"/>
    </contour>
    <contour>
      <point x="1128" y="62" type="curve"/>
      <point x="1128" y="530" type="line"/>
      <point x="1143" y="535"/>
      <point x="1181" y="540"/>
      <point x="1207" y="540" type="curve" smooth="yes"/>
      <point x="1294" y="540"/>
      <point x="1378" y="479"/>
      <point x="1378" y="307" type="curve" smooth="yes"/>
      <point x="1378" y="128"/>
      <point x="1288" y="48"/>
      <point x="1194" y="48" type="curve" smooth="yes"/>
      <point x="1170" y="48"/>
      <point x="1143" y="54"/>
    </contour>
  </outline>
</glyph>
<glyph name="dzhe-cy" format="2">
  <advance width="1241"/>
  <unicode hex="045F"/>
  <outline>
    <contour>
      <point x="30" y="0" type="line"/>
      <point x="486" y="0" type="line"/>
      <point x="508" y="-78"/>
      <point x="547" y="-261"/>
      <point x="579" y="-412" type="curve"/>
      <point x="669" y="-412" type="line"/>
      <point x="695" y="-261"/>
      <point x="739" y="-80"/>
      <point x="756" y="0" type="curve"/>
      <point x="1211" y="0" type="line"/>
      <point x="1211" y="38" type="line"/>
      <point x="1085" y="72" type="line"/>
      <point x="1085" y="934" type="line"/>
      <point x="1207" y="968" type="line"/>
      <point x="1207" y="1006" type="line"/>
      <point x="659" y="1006" type="line"/>
      <point x="659" y="968" type="line"/>
      <point x="755" y="934" type="line"/>
      <point x="755" y="70" type="line"/>
      <point x="486" y="70" type="line"/>
      <point x="486" y="934" type="line"/>
      <point x="584" y="968" type="line"/>
      <point x="584" y="1006" type="line"/>
      <point x="34" y="1006" type="line"/>
      <point x="34" y="968" type="line"/>
      <point x="156" y="934" type="line"/>
      <point x="156" y="72" type="line"/>
      <point x="30" y="38" type="line"/>
    </contour>
  </outline>
</glyph>
<glyph name="Fita-cy" format="2">
  <advance width="1526"/>
  <unicode hex="0472"/>
  <anchor x="740" y="0" name="bottom"/>
  <anchor x="759" y="714" name="center"/>
  <anchor x="814" y="20" name="ogonek"/>
  <anchor x="763" y="1486" name="top"/>
  <anchor x="50" y="1486" name="topleft"/>
  <anchor x="1233" y="1486" name="topright"/>
  <outline>
    <contour>
      <point x="855" y="621" type="curve" smooth="yes"/>
      <point x="972" y="621"/>
      <point x="1064" y="705"/>
      <point x="1130" y="799" type="curve"/>
      <point x="1158" y="854" type="line"/>
      <point x="1133" y="832"/>
      <point x="1095" y="792"/>
      <point x="1034" y="792" type="curve" smooth="yes"/>
      <point x="921" y="792"/>
      <point x="839" y="906"/>
      <point x="690" y="906" type="curve" smooth="yes"/>
      <point x="574" y="906"/>
      <point x="486" y="822"/>
      <point x="423" y="733" type="curve"/>
      <point x="382" y="665" type="line"/>
      <point x="410" y="690"/>
      <point x="447" y="732"/>
      <point x="513" y="732" type="curve" smooth="yes"/>
      <point x="624" y="732"/>
      <point x="705" y="621"/>
    </contour>
    <component base="O"/>
  </outline>
</glyph>
<glyph name="Semisoftsign-cy" format="2">
  <advance width="1417"/>
  <unicode hex="048C"/>
  <outline>
    <contour>
      <point x="22" y="1105" type="line"/>
      <point x="915" y="1105" type="line"/>
      <point x="915" y="1171" type="line"/>
      <point x="22" y="1171" type="line"/>
    </contour>
    <component base="Softsign-cy" xOffset="50"/>
  </outline>
</glyph>
<glyph name="Ertick-cy" format="2">
  <advance width="1368"/>
  <unicode hex="048E"/>
  <anchor x="485" y="0" name="bottom"/>
  <anchor x="657" y="-166" name="mark0"/>
  <anchor x="731" y="1486" name="top"/>
  <outline>
    <contour>
      <point x="1193" y="363" type="line"/>
      <point x="1242" y="402" type="line"/>
      <point x="718" y="924" type="line"/>
      <point x="669" y="885" type="line"/>
    </contour>
    <component base="P"/>
  </outline>
</glyph>
<glyph name="ertick-cy" format="2">
  <advance width="1139"/>
  <unicode hex="048F"/>
  <anchor x="566" y="-166" name="mark0"/>
  <anchor x="624" y="1112" name="top"/>
  <outline>
    <contour>
      <point x="724" y="82" type="line"/>
      <point x="775" y="141" type="line"/>
      <point x="584" y="313" type="line"/>
      <point x="530" y="255" type="line"/>
    </contour>
    <contour>
      <point x="947" y="-115" type="line"/>
      <point x="1001" y="-57" type="line"/>
      <point x="809" y="115" type="line"/>
      <point x="757" y="57" type="line"/>
    </contour>
    <component base="p"/>
  </outline>
</glyph>
<glyph name="Gheupturn-cy" format="2">
  <advance width="1209"/>
  <unicode hex="0490"/>
  <outline>
    <contour>
      <point x="8" y="0" type="line"/>
      <point x="781" y="0" type="line"/>
      <point x="781" y="37" type="line"/>
      <point x="547" y="72" type="line"/>
      <point x="547" y="1437" type="line"/>
      <point x="1169" y="1398" type="line"/>
      <point x="1164" y="1836" type="line"/>
      <point x="1012" y="1836" type="line"/>
      <point x="908" y="1486" type="line"/>
      <point x="9" y="1486" type="line"/>
      <point x="9" y="1449" type="line"/>
      <point x="142" y="1414" type="line"/>
      <point x="142" y="72" type="line"/>
      <point x="8" y="37" type="line"/>
    </contour>
  </outline>
</glyph>
<glyph name="Zedescender-cy" format="2">
  <advance width="1309"/>
  <unicode hex="0498"/>
  <anchor x="607" y="0" name="bottom"/>
  <anchor x="577" y="1486" name="top"/>
  <outline>
    <contour>
      <point x="565" y="-513" type="curve" smooth="yes"/>
      <point x="708" y="-513"/>
      <point x="795" y="-460"/>
      <point x="795" y="-289" type="curve" smooth="yes"/>
      <point x="795" y="-158"/>
      <point x="694" y="-42"/>
      <point x="642" y="1" type="curve"/>
      <point x="580" y="0" type="line"/>
      <point x="642" y="-52"/>
      <point x="687" y="-128"/>
      <point x="687" y="-195" type="curve" smooth="yes"/>
      <point x="687" y="-300"/>
      <point x="633" y="-312"/>
      <point x="528" y="-312" type="curve" smooth="yes"/>
      <point x="511" y="-312"/>
      <point x="466" y="-308"/>
      <point x="435" y="-299" type="curve"/>
      <point x="435" y="-484" type="line"/>
      <point x="466" y="-499"/>
      <point x="524" y="-513"/>
    </contour>
    <component base="Ze-cy"/>
  </outline>
</glyph>
<glyph name="Kadescender-cy" format="2">
  <advance width="1619"/>
  <unicode hex="049A"/>
  <anchor x="1456" y="0" name="bottomright"/>
  <anchor x="774" y="1486" name="top"/>
  <outline>
    <contour>
      <point x="1355" y="-406" type="curve"/>
      <point x="1547" y="-406" type="line"/>
      <point x="1559" y="-340"/>
      <point x="1611" y="-29"/>
      <point x="1611" y="72" type="curve"/>
      <point x="1211" y="72" type="line"/>
      <point x="1211" y="0" type="line"/>
      <point x="1309" y="0" type="line"/>
      <point x="1329" y="-52"/>
      <point x="1355" y="-342"/>
    </contour>
    <component base="Ka-cy"/>
  </outline>
</glyph>
<glyph name="Kaverticalstroke-cy" format="2">
  <advance width="1638"/>
  <unicode hex="049C"/>
  <outline>
    <contour>
      <point x="8" y="0" type="line"/>
      <point x="700" y="0" type="line"/>
      <point x="700" y="38" type="line"/>
      <point x="546" y="72" type="line"/>
      <point x="546" y="744" type="line"/>
      <point x="749" y="744" type="line" smooth="yes"/>
      <point x="895" y="744"/>
      <point x="1012" y="0"/>
      <point x="1206" y="0" type="curve" smooth="yes"/>
      <point x="1638" y="0" type="line"/>
      <point x="1638" y="38" type="line"/>
      <point x="1566" y="60" type="line" smooth="yes"/>
      <point x="1503" y="79"/>
      <point x="1406" y="347"/>
      <point x="1308" y="552" type="curve" smooth="yes"/>
      <point x="1223" y="730"/>
      <point x="1126" y="805"/>
      <point x="982" y="810" type="curve"/>
      <point x="1389" y="1412" type="line"/>
      <point x="1564" y="1450" type="line"/>
      <point x="1564" y="1486" type="line"/>
      <point x="1099" y="1486" type="line"/>
      <point x="1099" y="1450" type="line"/>
      <point x="1280" y="1412" type="line"/>
      <point x="901" y="810" type="line"/>
      <point x="546" y="810" type="line"/>
      <point x="546" y="1412" type="line"/>
      <point x="699" y="1450" type="line"/>
      <point x="699" y="1486" type="line"/>
      <point x="9" y="1486" type="line"/>
      <point x="9" y="1450" type="line"/>
      <point x="142" y="1412" type="line"/>
      <point x="142" y="72" type="line"/>
      <point x="8" y="38" type="line"/>
    </contour>
    <contour>
      <point x="718" y="362" type="line"/>
      <point x="780" y="362" type="line"/>
      <point x="780" y="1108" type="line"/>
      <point x="718" y="1108" type="line"/>
    </contour>
  </outline>
</glyph>
<glyph name="kaverticalstroke-cy" format="2">
  <advance width="1520"/>
  <unicode hex="049D"/>
  <outline>
    <contour>
      <point x="1030" y="622" type="curve"/>
      <point x="1304" y="960" type="line"/>
      <point x="1464" y="984" type="line"/>
      <point x="1464" y="1111" type="line"/>
      <point x="909" y="1111" type="line"/>
      <point x="909" y="984" type="line"/>
      <point x="1059" y="961" type="line"/>
      <point x="856" y="646" type="line"/>
      <point x="801" y="646" type="line"/>
      <point x="801" y="869" type="line"/>
      <point x="654" y="869" type="line"/>
      <point x="654" y="646" type="line"/>
      <point x="546" y="646" type="line"/>
      <point x="546" y="961" type="line"/>
      <point x="684" y="984" type="line"/>
      <point x="684" y="1111" type="line"/>
      <point x="84" y="1111" type="line"/>
      <point x="84" y="984" type="line"/>
      <point x="215" y="961" type="line"/>
      <point x="215" y="150" type="line"/>
      <point x="81" y="131" type="line"/>
      <point x="81" y="0" type="line"/>
      <point x="700" y="0" type="line"/>
      <point x="700" y="131" type="line"/>
      <point x="546" y="150" type="line"/>
      <point x="546" y="524" type="line"/>
      <point x="654" y="524" type="line"/>
      <point x="654" y="266" type="line"/>
      <point x="801" y="266" type="line"/>
      <point x="801" y="506" type="line"/>
      <point x="956" y="484"/>
      <point x="1007" y="0"/>
      <point x="1168" y="0" type="curve" smooth="yes"/>
      <point x="1510" y="0" type="line"/>
      <point x="1510" y="127" type="line"/>
      <point x="1426" y="151" type="line"/>
      <point x="1322" y="173"/>
      <point x="1223" y="519"/>
    </contour>
  </outline>
</glyph>
<glyph name="Kastroke-cy" format="2">
  <advance width="1528"/>
  <unicode hex="049E"/>
  <anchor x="1456" y="0" name="bottomright"/>
  <anchor x="774" y="1486" name="top"/>
  <outline>
    <contour>
      <point x="50" y="1066" type="line"/>
      <point x="806" y="1066" type="line"/>
      <point x="806" y="1132" type="line"/>
      <point x="50" y="1132" type="line"/>
    </contour>
    <component base="Ka-cy"/>
  </outline>
</glyph>
<glyph name="endescender-cy" format="2">
  <advance width="1319"/>
  <unicode hex="04A3"/>
  <anchor x="1480" y="0" name="bottomright"/>
  <outline>
    <contour>
      <point x="1303" y="64" type="curve"/>
      <point x="1047" y="64" type="line"/>
      <point x="1047" y="0" type="line"/>
      <point x="1077" y="-66"/>
      <point x="1142" y="-319"/>
      <point x="1154" y="-416" type="curve"/>
      <point x="1226" y="-416" type="line"/>
      <point x="1241" y="-310"/>
      <point x="1280" y="-67"/>
    </contour>
    <component base="en-cy"/>
  </outline>
</glyph>
<glyph name="Enghe-cy" format="2">
  <advance width="2006"/>
  <unicode hex="04A4"/>
  <outline>
    <contour>
      <point x="1939" y="1486" type="line"/>
      <point x="926" y="1486" type="line"/>
      <point x="926" y="1450" type="line"/>
      <point x="1056" y="1411" type="line"/>
      <point x="1056" y="798" type="line"/>
      <point x="542" y="798" type="line"/>
      <point x="542" y="1412" type="line"/>
      <point x="673" y="1450" type="line"/>
      <point x="673" y="1486" type="line"/>
      <point x="9" y="1486" type="line"/>
      <point x="9" y="1450" type="line"/>
      <point x="138" y="1412" type="line"/>
      <point x="138" y="72" type="line"/>
      <point x="8" y="37" type="line"/>
      <point x="8" y="0" type="line"/>
      <point x="674" y="0" type="line"/>
      <point x="674" y="37" type="line"/>
      <point x="542" y="72" type="line"/>
      <point x="542" y="732" type="line"/>
      <point x="1056" y="732" type="line"/>
      <point x="1056" y="72" type="line"/>
      <point x="926" y="37" type="line"/>
      <point x="926" y="0" type="line"/>
      <point x="1590" y="0" type="line"/>
      <point x="1590" y="37" type="line"/>
      <point x="1460" y="72" type="line"/>
      <point x="1460" y="1434" type="line"/>
      <point x="1634" y="1416" type="line"/>
      <point x="1809" y="901" type="line"/>
      <point x="1971" y="901" type="line"/>
    </contour>
  </outline>
</glyph>
<glyph name="Pemiddlehook-cy" format="2">
  <advance width="2366"/>
  <unicode hex="04A6"/>
  <anchor x="1126" y="0" name="bottomright"/>
  <outline>
    <contour>
      <point x="1774" y="-410" type="curve" smooth="yes"/>
      <point x="2134" y="-410"/>
      <point x="2366" y="-141"/>
      <point x="2366" y="286" type="curve" smooth="yes"/>
      <point x="2366" y="670"/>
      <point x="2182" y="860"/>
      <point x="1810" y="860" type="curve" smooth="yes"/>
      <point x="1692" y="860"/>
      <point x="1564" y="826"/>
      <point x="1494" y="775" type="curve"/>
      <point x="1495" y="710" type="line"/>
      <point x="1534" y="746"/>
      <point x="1604" y="782"/>
      <point x="1700" y="782" type="curve" smooth="yes"/>
      <point x="1864" y="782"/>
      <point x="1958" y="603"/>
      <point x="1958" y="292" type="curve" smooth="yes"/>
      <point x="1958" y="-128"/>
      <point x="1870" y="-348"/>
      <point x="1684" y="-348" type="curve" smooth="yes"/>
      <point x="1625" y="-348"/>
      <point x="1603" y="-342"/>
      <point x="1590" y="-338" type="curve"/>
      <point x="1590" y="-378" type="line"/>
      <point x="1618" y="-390"/>
      <point x="1682" y="-410"/>
    </contour>
    <component base="Pe-cy"/>
  </outline>
</glyph>
<glyph name="Esdescender-cy" format="2">
  <advance width="1324"/>
  <unicode hex="04AA"/>
  <anchor x="717" y="0" name="bottom"/>
  <anchor x="720" y="-166" name="mark0"/>
  <anchor x="747" y="1486" name="top"/>
  <outline>
    <contour>
      <point x="949" y="5" type="curve"/>
      <point x="607" y="1" type="line"/>
      <point x="618" y="3"/>
      <point x="665" y="-300"/>
      <point x="665" y="-410" type="curve"/>
      <point x="895" y="-410" type="line"/>
      <point x="897" y="-269"/>
      <point x="933" y="-34"/>
    </contour>
    <component base="C"/>
  </outline>
</glyph>
<glyph name="Tedescender-cy" format="2">
  <advance width="1486"/>
  <unicode hex="04AC"/>
  <anchor x="749" y="0" name="bottom"/>
  <anchor x="749" y="744" name="center"/>
  <anchor x="731" y="-166" name="mark0"/>
  <anchor x="749" y="1486" name="top"/>
  <outline>
    <contour>
      <point x="1054" y="-406" type="curve"/>
      <point x="1246" y="-406" type="line"/>
      <point x="1258" y="-340"/>
      <point x="1309" y="-17"/>
      <point x="1310" y="84" type="curve"/>
      <point x="863" y="84" type="line"/>
      <point x="863" y="0" type="line"/>
      <point x="1008" y="0" type="line"/>
      <point x="1028" y="-52"/>
      <point x="1054" y="-342"/>
    </contour>
    <component base="Te-cy"/>
  </outline>
</glyph>
<glyph name="tedescender-cy" format="2">
  <advance width="1326"/>
  <unicode hex="04AD"/>
  <outline>
    <contour>
      <point x="1166" y="153" type="curve"/>
      <point x="832" y="153" type="line"/>
      <point x="832" y="980" type="line"/>
      <point x="1012" y="962" type="line"/>
      <point x="1076" y="637" type="line"/>
      <point x="1271" y="637" type="line"/>
      <point x="1251" y="1111" type="line"/>
      <point x="68" y="1111" type="line"/>
      <point x="49" y="637" type="line"/>
      <point x="246" y="637" type="line"/>
      <point x="307" y="962" type="line"/>
      <point x="500" y="980" type="line"/>
      <point x="500" y="153" type="line"/>
      <point x="249" y="132" type="line"/>
      <point x="249" y="0" type="line"/>
      <point x="874" y="0" type="line"/>
      <point x="897" y="-77"/>
      <point x="930" y="-324"/>
      <point x="933" y="-406" type="curve"/>
      <point x="1115" y="-406" type="line"/>
      <point x="1127" y="-339"/>
      <point x="1161" y="-1"/>
    </contour>
  </outline>
</glyph>
<glyph name="Ustraitstroke-cy" format="2">
  <advance width="1466"/>
  <unicode hex="04B0"/>
  <anchor x="755" y="0" name="bottom"/>
  <anchor x="650" y="-166" name="mark0"/>
  <anchor x="823" y="1486" name="top"/>
  <anchor x="139" y="1486" name="topleft"/>
  <outline>
    <contour>
      <point x="262" y="562" type="line"/>
      <point x="1238" y="562" type="line"/>
      <point x="1238" y="628" type="line"/>
      <point x="262" y="628" type="line"/>
    </contour>
    <component base="Y" xOffset="59"/>
  </outline>
</glyph>
<glyph name="Hadescender-cy" format="2">
  <advance width="1557"/>
  <unicode hex="04B2"/>
  <anchor x="725" y="-166" name="mark0"/>
  <outline>
    <contour>
      <point x="1305" y="-406" type="curve"/>
      <point x="1497" y="-406" type="line"/>
      <point x="1509" y="-340"/>
      <point x="1561" y="-29"/>
      <point x="1561" y="72" type="curve"/>
      <point x="1161" y="72" type="line"/>
      <point x="1161" y="0" type="line"/>
      <point x="1259" y="0" type="line"/>
      <point x="1279" y="-52"/>
      <point x="1305" y="-342"/>
    </contour>
    <component base="X"/>
  </outline>
</glyph>
<glyph name="hadescender-cy" format="2">
  <advance width="1221"/>
  <unicode hex="04B3"/>
  <outline>
    <contour>
      <point x="1282" y="147" type="curve"/>
      <point x="1132" y="151" type="line"/>
      <point x="794" y="586" type="line"/>
      <point x="1099" y="961" type="line"/>
      <point x="1210" y="984" type="line"/>
      <point x="1210" y="1111" type="line"/>
      <point x="769" y="1111" type="line"/>
      <point x="769" y="984" type="line"/>
      <point x="896" y="961" type="line"/>
      <point x="753" y="762" type="line"/>
      <point x="702" y="677" type="line"/>
      <point x="652" y="761" type="line"/>
      <point x="512" y="961" type="line"/>
      <point x="636" y="984" type="line"/>
      <point x="636" y="1111" type="line"/>
      <point x="11" y="1111" type="line"/>
      <point x="11" y="984" type="line"/>
      <point x="111" y="961" type="line"/>
      <point x="437" y="542" type="line"/>
      <point x="126" y="151" type="line"/>
      <point x="3" y="130" type="line"/>
      <point x="3" y="0" type="line"/>
      <point x="492" y="0" type="line"/>
      <point x="492" y="130" type="line"/>
      <point x="345" y="151" type="line"/>
      <point x="489" y="364" type="line"/>
      <point x="536" y="451" type="line"/>
      <point x="595" y="363" type="line"/>
      <point x="732" y="151" type="line"/>
      <point x="622" y="130" type="line"/>
      <point x="622" y="0" type="line"/>
      <point x="992" y="0" type="line"/>
      <point x="1017" y="-53"/>
      <point x="1053" y="-347"/>
      <point x="1061" y="-406" type="curve"/>
      <point x="1227" y="-406" type="line"/>
      <point x="1240" y="-371"/>
      <point x="1282" y="97"/>
    </contour>
  </outline>
</glyph>
<glyph name="Chedescender-cy" format="2">
  <advance width="1621"/>
  <unicode hex="04B6"/>
  <anchor x="1417" y="0" name="bottomright"/>
  <anchor x="723" y="744" name="center"/>
  <anchor x="700" y="1486" name="top"/>
  <outline>
    <contour>
      <point x="1357" y="-406" type="curve"/>
      <point x="1549" y="-406" type="line"/>
      <point x="1561" y="-340"/>
      <point x="1613" y="-29"/>
      <point x="1613" y="72" type="curve"/>
      <point x="1213" y="72" type="line"/>
      <point x="1213" y="0" type="line"/>
      <point x="1311" y="0" type="line"/>
      <point x="1331" y="-52"/>
      <point x="1357" y="-342"/>
    </contour>
    <component base="Che-cy"/>
  </outline>
</glyph>
<glyph name="Cheabkhasian-cy" format="2">
  <advance width="1866"/>
  <unicode hex="04BC"/>
  <outline>
    <contour>
      <point x="1107" y="-22" type="curve" smooth="yes"/>
      <point x="1468" y="-22"/>
      <point x="1553" y="49"/>
      <point x="1748" y="49" type="curve"/>
      <point x="1703" y="453" type="line"/>
      <point x="1441" y="453" type="line"/>
      <point x="1390" y="170" type="line"/>
      <point x="1376" y="101"/>
      <point x="1327" y="38"/>
      <point x="1143" y="38" type="curve" smooth="yes"/>
      <point x="930" y="38"/>
      <point x="824" y="253"/>
      <point x="824" y="688" type="curve"/>
      <point x="1792" y="686" type="line"/>
      <point x="1803" y="737"/>
      <point x="1806" y="871"/>
      <point x="1806" y="871" type="curve"/>
      <point x="1806" y="1169"/>
      <point x="1657" y="1507"/>
      <point x="1123" y="1507" type="curve" smooth="yes"/>
      <point x="669" y="1507"/>
      <point x="418" y="1225"/>
      <point x="394" y="758" type="curve"/>
      <point x="287" y="760"/>
      <point x="234" y="806"/>
      <point x="234" y="898" type="curve" smooth="yes"/>
      <point x="234" y="965"/>
      <point x="259" y="1038"/>
      <point x="297" y="1083" type="curve"/>
      <point x="107" y="1111" type="line"/>
      <point x="55" y="1077"/>
      <point x="20" y="1000"/>
      <point x="20" y="917" type="curve" smooth="yes"/>
      <point x="20" y="760"/>
      <point x="143" y="684"/>
      <point x="392" y="688" type="curve"/>
      <point x="392" y="241"/>
      <point x="656" y="-22"/>
    </contour>
    <contour>
      <point x="823" y="753" type="line"/>
      <point x="823" y="1128"/>
      <point x="875" y="1451"/>
      <point x="1117" y="1451" type="curve" smooth="yes"/>
      <point x="1294" y="1451"/>
      <point x="1387" y="1197"/>
      <point x="1387" y="973" type="curve" smooth="yes"/>
      <point x="1387" y="932"/>
      <point x="1386" y="789"/>
      <point x="1383" y="753" type="curve"/>
    </contour>
  </outline>
</glyph>
<glyph name="Chedescenderabkhasian-cy" format="2">
  <advance width="1866"/>
  <unicode hex="04BE"/>
  <outline>
    <contour>
      <point x="980" y="-513" type="curve" smooth="yes"/>
      <point x="1123" y="-513"/>
      <point x="1210" y="-460"/>
      <point x="1210" y="-289" type="curve" smooth="yes"/>
      <point x="1210" y="-158"/>
      <point x="1109" y="-42"/>
      <point x="1057" y="1" type="curve"/>
      <point x="995" y="0" type="line"/>
      <point x="1057" y="-52"/>
      <point x="1102" y="-128"/>
      <point x="1102" y="-195" type="curve" smooth="yes"/>
      <point x="1102" y="-300"/>
      <point x="1048" y="-312"/>
      <point x="943" y="-312" type="curve" smooth="yes"/>
      <point x="926" y="-312"/>
      <point x="881" y="-308"/>
      <point x="850" y="-299" type="curve"/>
      <point x="850" y="-484" type="line"/>
      <point x="881" y="-499"/>
      <point x="939" y="-513"/>
    </contour>
    <component base="Cheabkhasian-cy"/>
  </outline>
</glyph>
<glyph name="Kahook-cy" format="2">
  <advance width="1454"/>
  <unicode hex="04C3"/>
  <outline>
    <contour>
      <point x="816" y="-410" type="curve" smooth="yes"/>
      <point x="1176" y="-410"/>
      <point x="1408" y="-141"/>
      <point x="1408" y="286" type="curve" smooth="yes"/>
      <point x="1408" y="657"/>
      <point x="1236" y="847"/>
      <point x="889" y="859" type="curve"/>
      <point x="1279" y="1412" type="line"/>
      <point x="1454" y="1450" type="line"/>
      <point x="1454" y="1486" type="line"/>
      <point x="988" y="1486" type="line"/>
      <point x="988" y="1450" type="line"/>
      <point x="1171" y="1412" type="line"/>
      <point x="803" y="858" type="line"/>
      <point x="706" y="851"/>
      <point x="608" y="822"/>
      <point x="546" y="782" type="curve"/>
      <point x="546" y="1412" type="line"/>
      <point x="699" y="1450" type="line"/>
      <point x="699" y="1486" type="line"/>
      <point x="9" y="1486" type="line"/>
      <point x="9" y="1450" type="line"/>
      <point x="142" y="1412" type="line"/>
      <point x="142" y="72" type="line"/>
      <point x="8" y="38" type="line"/>
      <point x="8" y="0" type="line"/>
      <point x="700" y="0" type="line"/>
      <point x="700" y="38" type="line"/>
      <point x="546" y="72" type="line"/>
      <point x="546" y="718" type="line"/>
      <point x="586" y="751"/>
      <point x="653" y="782"/>
      <point x="742" y="782" type="curve" smooth="yes"/>
      <point x="906" y="782"/>
      <point x="1000" y="603"/>
      <point x="1000" y="292" type="curve" smooth="yes"/>
      <point x="1000" y="-128"/>
      <point x="912" y="-348"/>
      <point x="726" y="-348" type="curve" smooth="yes"/>
      <point x="667" y="-348"/>
      <point x="645" y="-342"/>
      <point x="632" y="-338" type="curve"/>
      <point x="632" y="-378" type="line"/>
      <point x="660" y="-390"/>
      <point x="724" y="-410"/>
    </contour>
  </outline>
</glyph>
<glyph name="Enhook-cy" format="2">
  <advance width="1607"/>
  <unicode hex="04C7"/>
  <outline>
    <contour>
      <point x="864" y="-387" type="line"/>
      <point x="1142" y="-357"/>
      <point x="1364" y="-195"/>
      <point x="1428" y="29" type="curve" smooth="yes"/>
      <point x="1455" y="123"/>
      <point x="1459" y="298"/>
      <point x="1459" y="550" type="curve" smooth="yes"/>
      <point x="1459" y="1414" type="line"/>
      <point x="1589" y="1449" type="line"/>
      <point x="1589" y="1486" type="line"/>
      <point x="925" y="1486" type="line"/>
      <point x="925" y="1449" type="line"/>
      <point x="1055" y="1414" type="line"/>
      <point x="1055" y="798" type="line"/>
      <point x="542" y="798" type="line"/>
      <point x="542" y="1414" type="line"/>
      <point x="673" y="1449" type="line"/>
      <point x="673" y="1486" type="line"/>
      <point x="9" y="1486" type="line"/>
      <point x="9" y="1449" type="line"/>
      <point x="138" y="1414" type="line"/>
      <point x="138" y="72" type="line"/>
      <point x="8" y="37" type="line"/>
      <point x="8" y="0" type="line"/>
      <point x="674" y="0" type="line"/>
      <point x="674" y="37" type="line"/>
      <point x="542" y="72" type="line"/>
      <point x="542" y="732" type="line"/>
      <point x="1055" y="732" type="line"/>
      <point x="1055" y="318" type="line" smooth="yes"/>
      <point x="1055" y="107"/>
      <point x="1040" y="-19"/>
      <point x="1013" y="-99" type="curve" smooth="yes"/>
      <point x="965" y="-242"/>
      <point x="931" y="-286"/>
      <point x="832" y="-330" type="curve"/>
    </contour>
  </outline>
</glyph>
<glyph name="enhook-cy" format="2">
  <advance width="1468"/>
  <unicode hex="04C8"/>
  <anchor x="780" y="-166" name="mark0"/>
  <outline>
    <contour>
      <point x="658" y="-388" type="curve" smooth="yes"/>
      <point x="906" y="-388"/>
      <point x="1122" y="-241"/>
      <point x="1122" y="169" type="curve" smooth="yes"/>
      <point x="1122" y="933" type="line"/>
      <point x="1238" y="967" type="line"/>
      <point x="1238" y="1005" type="line"/>
      <point x="684" y="1005" type="line"/>
      <point x="684" y="967" type="line"/>
      <point x="788" y="933" type="line"/>
      <point x="788" y="550" type="line"/>
      <point x="480" y="550" type="line"/>
      <point x="480" y="933" type="line"/>
      <point x="582" y="967" type="line"/>
      <point x="582" y="1005" type="line"/>
      <point x="32" y="1005" type="line"/>
      <point x="32" y="967" type="line"/>
      <point x="148" y="933" type="line"/>
      <point x="148" y="72" type="line"/>
      <point x="30" y="38" type="line"/>
      <point x="30" y="0" type="line"/>
      <point x="582" y="0" type="line"/>
      <point x="582" y="38" type="line"/>
      <point x="480" y="72" type="line"/>
      <point x="480" y="486" type="line"/>
      <point x="788" y="486" type="line"/>
      <point x="788" y="225" type="line" smooth="yes"/>
      <point x="788" y="-139"/>
      <point x="782" y="-320"/>
      <point x="586" y="-320" type="curve" smooth="yes"/>
      <point x="556" y="-320"/>
      <point x="520" y="-316"/>
      <point x="504" y="-312" type="curve"/>
      <point x="504" y="-374" type="line"/>
      <point x="534" y="-380"/>
      <point x="614" y="-388"/>
    </contour>
  </outline>
</glyph>
<glyph name="Entail-cy" format="2">
  <advance width="1688"/>
  <unicode hex="04C9"/>
  <anchor x="1638" y="0" name="bottomright"/>
  <anchor x="732" y="743" name="center"/>
  <anchor x="732" y="1486" name="top"/>
  <anchor x="0" y="1486" name="topleft"/>
  <outline>
    <contour>
      <point x="1286" y="-410" type="curve"/>
      <point x="1508" y="-410" type="line"/>
      <point x="1530" y="-364"/>
      <point x="1629" y="-123"/>
      <point x="1680" y="0" type="curve"/>
      <point x="1680" y="72" type="line"/>
      <point x="1314" y="72" type="line"/>
      <point x="1314" y="0" type="line"/>
      <point x="1377" y="0" type="line"/>
      <point x="1365" y="-68"/>
      <point x="1307" y="-327"/>
    </contour>
    <component base="En-cy"/>
  </outline>
</glyph>
<glyph name="Chekhakassian-cy" format="2">
  <advance width="1446"/>
  <unicode hex="04CB"/>
  <anchor x="1417" y="0" name="bottomright"/>
  <anchor x="723" y="744" name="center"/>
  <anchor x="700" y="1486" name="top"/>
  <outline>
    <contour>
      <point x="774" y="-410" type="curve"/>
      <point x="982" y="-410" type="line"/>
      <point x="995" y="-324"/>
      <point x="1055" y="-36"/>
      <point x="1087" y="0" type="curve"/>
      <point x="1270" y="0" type="line"/>
      <point x="1270" y="71" type="line"/>
      <point x="793" y="71" type="line"/>
      <point x="778" y="-56"/>
      <point x="777" y="-352"/>
    </contour>
    <component base="Che-cy"/>
  </outline>
</glyph>
<glyph name="Emtail-cy" format="2">
  <advance width="2043"/>
  <unicode hex="04CD"/>
  <anchor x="914" y="0" name="bottom"/>
  <anchor x="914" y="-166" name="mark0"/>
  <anchor x="914" y="1486" name="top"/>
  <outline>
    <contour>
      <point x="1704" y="-410" type="curve"/>
      <point x="1926" y="-410" type="line"/>
      <point x="1948" y="-364"/>
      <point x="2047" y="-123"/>
      <point x="2098" y="0" type="curve"/>
      <point x="2098" y="72" type="line"/>
      <point x="1698" y="72" type="line"/>
      <point x="1698" y="0" type="line"/>
      <point x="1795" y="0" type="line"/>
      <point x="1783" y="-68"/>
      <point x="1725" y="-327"/>
    </contour>
    <component base="Em-cy"/>
  </outline>
</glyph>
<glyph name="Obarred-cy" format="2">
  <advance width="1526"/>
  <unicode hex="04E8"/>
  <anchor x="740" y="0" name="bottom"/>
  <anchor x="759" y="714" name="center"/>
  <anchor x="814" y="20" name="ogonek"/>
  <anchor x="763" y="1486" name="top"/>
  <anchor x="50" y="1486" name="topleft"/>
  <anchor x="1233" y="1486" name="topright"/>
  <outline>
    <contour>
      <point x="403" y="714" type="line"/>
      <point x="1203" y="714" type="line"/>
      <point x="1205" y="780" type="line"/>
      <point x="404" y="780" type="line"/>
    </contour>
    <component base="O"/>
  </outline>
</glyph>
<glyph name="obarred-cy" format="2">
  <advance width="1189"/>
  <unicode hex="04E9"/>
  <anchor x="595" y="0" name="bottom"/>
  <anchor x="595" y="503" name="center"/>
  <anchor x="673" y="10" name="ogonek"/>
  <anchor x="595" y="1110" name="top"/>
  <anchor x="872" y="1005" name="topright"/>
  <outline>
    <contour>
      <point x="368" y="476" type="line"/>
      <point x="813" y="476" type="line"/>
      <point x="813" y="540" type="line"/>
      <point x="368" y="540" type="line"/>
    </contour>
    <component base="o-cy"/>
  </outline>
</glyph>
<glyph name="Gestrokehook-cy" format="2">
  <advance width="1245"/>
  <unicode hex="04FA"/>
  <anchor x="399" y="0" name="bottomright"/>
  <anchor x="741" y="744" name="center"/>
  <anchor x="677" y="1486" name="top"/>
  <outline>
    <contour>
      <point x="680" y="-513" type="curve" smooth="yes"/>
      <point x="816" y="-513"/>
      <point x="900" y="-460"/>
      <point x="900" y="-289" type="curve" smooth="yes"/>
      <point x="900" y="-135"/>
      <point x="825" y="1"/>
      <point x="787" y="51" type="curve"/>
      <point x="556" y="71" type="line"/>
      <point x="556" y="0" type="line"/>
      <point x="745" y="0" type="line"/>
      <point x="779" y="-52"/>
      <point x="802" y="-128"/>
      <point x="802" y="-195" type="curve" smooth="yes"/>
      <point x="802" y="-300"/>
      <point x="749" y="-312"/>
      <point x="643" y="-312" type="curve" smooth="yes"/>
      <point x="624" y="-312"/>
      <point x="574" y="-308"/>
      <point x="540" y="-299" type="curve"/>
      <point x="540" y="-484" type="line"/>
      <point x="573" y="-499"/>
      <point x="636" y="-513"/>
    </contour>
    <component base="Ghestroke-cy" xOffset="27"/>
  </outline>
</glyph>
<glyph name="gestrokehook-cy" format="2">
  <advance width="1028"/>
  <unicode hex="04FB"/>
  <outline>
    <contour>
      <point x="777" y="132" type="curve"/>
      <point x="532" y="151" type="line"/>
      <point x="532" y="382" type="line"/>
      <point x="765" y="382" type="line"/>
      <point x="765" y="528" type="line"/>
      <point x="532" y="528" type="line"/>
      <point x="532" y="980" type="line"/>
      <point x="765" y="962" type="line"/>
      <point x="825" y="658" type="line"/>
      <point x="1010" y="658" type="line"/>
      <point x="1000" y="1111" type="line"/>
      <point x="54" y="1111" type="line"/>
      <point x="54" y="984" type="line"/>
      <point x="198" y="959" type="line"/>
      <point x="198" y="528" type="line"/>
      <point x="30" y="528" type="line"/>
      <point x="30" y="382" type="line"/>
      <point x="198" y="382" type="line"/>
      <point x="198" y="151" type="line"/>
      <point x="50" y="132" type="line"/>
      <point x="50" y="0" type="line"/>
      <point x="663" y="0" type="line"/>
      <point x="676" y="-50"/>
      <point x="685" y="-106"/>
      <point x="685" y="-158" type="curve" smooth="yes"/>
      <point x="685" y="-281"/>
      <point x="637" y="-312"/>
      <point x="548" y="-312" type="curve" smooth="yes"/>
      <point x="531" y="-312"/>
      <point x="491" y="-308"/>
      <point x="463" y="-299" type="curve"/>
      <point x="463" y="-484" type="line"/>
      <point x="497" y="-499"/>
      <point x="559" y="-513"/>
      <point x="605" y="-513" type="curve" smooth="yes"/>
      <point x="784" y="-513"/>
      <point x="904" y="-441"/>
      <point x="904" y="-231" type="curve" smooth="yes"/>
      <point x="904" y="-143"/>
      <point x="865" y="-14"/>
    </contour>
  </outline>
</glyph>
<glyph name="Hastroke-cy" format="2">
  <advance width="1519"/>
  <unicode hex="04FE"/>
  <anchor x="715" y="-166" name="mark0"/>
  <outline>
    <contour>
      <point x="205" y="722" type="line"/>
      <point x="1301" y="722" type="line"/>
      <point x="1301" y="788" type="line"/>
      <point x="205" y="788" type="line"/>
    </contour>
    <component base="Ha-cy"/>
  </outline>
</glyph>
<glyph name="Komide-cy" format="2">
  <advance width="1371"/>
  <unicode hex="0500"/>
  <outline>
    <contour>
      <point x="555" y="-16" type="curve" smooth="yes"/>
      <point x="663" y="-16"/>
      <point x="780" y="-1"/>
      <point x="915" y="-1" type="curve" smooth="yes"/>
      <point x="1363" y="0" type="line"/>
      <point x="1363" y="37" type="line"/>
      <point x="1232" y="72" type="line"/>
      <point x="1232" y="1414" type="line"/>
      <point x="1362" y="1449" type="line"/>
      <point x="1362" y="1486" type="line"/>
      <point x="691" y="1486" type="line"/>
      <point x="691" y="1449" type="line"/>
      <point x="828" y="1414" type="line"/>
      <point x="828" y="881" type="line"/>
      <point x="753" y="888"/>
      <point x="648" y="895"/>
      <point x="584" y="895" type="curve" smooth="yes"/>
      <point x="189" y="895"/>
      <point x="0" y="719"/>
      <point x="0" y="438" type="curve" smooth="yes"/>
      <point x="0" y="151"/>
      <point x="244" y="-16"/>
    </contour>
    <contour>
      <point x="704" y="53" type="curve" smooth="yes"/>
      <point x="485" y="53"/>
      <point x="412" y="235"/>
      <point x="412" y="450" type="curve" smooth="yes"/>
      <point x="412" y="709"/>
      <point x="514" y="829"/>
      <point x="726" y="829" type="curve" smooth="yes"/>
      <point x="766" y="829"/>
      <point x="801" y="825"/>
      <point x="828" y="820" type="curve"/>
      <point x="828" y="64" type="line"/>
      <point x="795" y="57"/>
      <point x="757" y="53"/>
    </contour>
  </outline>
</glyph>
<glyph name="komidje-cy" format="2">
  <advance width="1836"/>
  <unicode hex="0503"/>
  <outline>
    <contour>
      <point x="1727" y="305" type="curve" smooth="yes"/>
      <point x="1727" y="487" type="line"/>
      <point x="1835" y="506" type="line"/>
      <point x="1835" y="640" type="line"/>
      <point x="1274" y="640" type="line"/>
      <point x="1274" y="506" type="line"/>
      <point x="1394" y="485" type="line"/>
      <point x="1394" y="297" type="line" smooth="yes"/>
      <point x="1394" y="161"/>
      <point x="1346" y="115"/>
      <point x="1237" y="115" type="curve" smooth="yes"/>
      <point x="1123" y="115"/>
      <point x="1076" y="167"/>
      <point x="1076" y="283" type="curve" smooth="yes"/>
      <point x="1076" y="1592" type="line"/>
      <point x="1015" y="1639" type="line"/>
      <point x="1006" y="1639" type="line"/>
      <point x="563" y="1600" type="line"/>
      <point x="563" y="1473" type="line"/>
      <point x="755" y="1444" type="line"/>
      <point x="755" y="1126" type="line"/>
      <point x="720" y="1134"/>
      <point x="678" y="1140"/>
      <point x="636" y="1140" type="curve" smooth="yes"/>
      <point x="237" y="1140"/>
      <point x="35" y="852"/>
      <point x="35" y="529" type="curve" smooth="yes"/>
      <point x="35" y="142"/>
      <point x="229" y="-22"/>
      <point x="468" y="-22" type="curve" smooth="yes"/>
      <point x="615" y="-22"/>
      <point x="735" y="48"/>
      <point x="800" y="138" type="curve"/>
      <point x="868" y="34"/>
      <point x="1007" y="-16"/>
      <point x="1220" y="-16" type="curve" smooth="yes"/>
      <point x="1513" y="-16"/>
      <point x="1728" y="74"/>
    </contour>
    <contour>
      <point x="755" y="960" type="curve"/>
      <point x="755" y="278" type="line" smooth="yes"/>
      <point x="755" y="265"/>
      <point x="758" y="252"/>
      <point x="760" y="239" type="curve"/>
      <point x="729" y="201"/>
      <point x="670" y="159"/>
      <point x="587" y="159" type="curve" smooth="yes"/>
      <point x="467" y="159"/>
      <point x="378" y="276"/>
      <point x="381" y="563" type="curve" smooth="yes"/>
      <point x="383" y="890"/>
      <point x="492" y="1002"/>
      <point x="626" y="1002" type="curve" smooth="yes"/>
      <point x="684" y="1002"/>
      <point x="737" y="983"/>
    </contour>
  </outline>
</glyph>
<glyph name="Komidzje-cy" format="2">
  <advance width="1446"/>
  <unicode hex="0506"/>
  <outline>
    <contour>
      <point x="1214" y="-406" type="curve"/>
      <point x="1386" y="-406" type="line"/>
      <point x="1398" y="-340"/>
      <point x="1450" y="-29"/>
      <point x="1450" y="72" type="curve"/>
      <point x="981" y="72" type="line"/>
      <point x="1150" y="140"/>
      <point x="1254" y="254"/>
      <point x="1254" y="405" type="curve" smooth="yes"/>
      <point x="1254" y="631"/>
      <point x="1047" y="769"/>
      <point x="692" y="784" type="curve"/>
      <point x="919" y="815"/>
      <point x="1179" y="934"/>
      <point x="1179" y="1165" type="curve" smooth="yes"/>
      <point x="1179" y="1377"/>
      <point x="962" y="1502"/>
      <point x="599" y="1502" type="curve" smooth="yes"/>
      <point x="371" y="1502"/>
      <point x="308" y="1446"/>
      <point x="84" y="1441" type="curve"/>
      <point x="70" y="1053" type="line"/>
      <point x="298" y="1053" type="line"/>
      <point x="360" y="1385" type="line"/>
      <point x="380" y="1413"/>
      <point x="431" y="1444"/>
      <point x="535" y="1444" type="curve" smooth="yes"/>
      <point x="672" y="1444"/>
      <point x="760" y="1358"/>
      <point x="760" y="1149" type="curve" smooth="yes"/>
      <point x="760" y="898"/>
      <point x="638" y="806"/>
      <point x="505" y="806" type="curve"/>
      <point x="363" y="820" type="line"/>
      <point x="363" y="719" type="line"/>
      <point x="525" y="743" type="line"/>
      <point x="741" y="743"/>
      <point x="818" y="606"/>
      <point x="818" y="397" type="curve" smooth="yes"/>
      <point x="818" y="202"/>
      <point x="733" y="58"/>
      <point x="551" y="58" type="curve"/>
      <point x="550" y="0" type="line"/>
      <point x="1168" y="0" type="line"/>
      <point x="1188" y="-52"/>
      <point x="1214" y="-342"/>
    </contour>
  </outline>
</glyph>
<glyph name="Komilje-cy" format="2">
  <advance width="2315"/>
  <unicode hex="0508"/>
  <outline>
    <contour>
      <point x="1524" y="-16" type="curve" smooth="yes"/>
      <point x="1965" y="-16"/>
      <point x="2124" y="100"/>
      <point x="2124" y="422" type="curve" smooth="yes"/>
      <point x="2124" y="766" type="line"/>
      <point x="2265" y="804" type="line"/>
      <point x="2265" y="840" type="line"/>
      <point x="1599" y="840" type="line"/>
      <point x="1599" y="804" type="line"/>
      <point x="1720" y="766" type="line"/>
      <point x="1720" y="422" type="line" smooth="yes"/>
      <point x="1720" y="146"/>
      <point x="1668" y="46"/>
      <point x="1524" y="46" type="curve" smooth="yes"/>
      <point x="1380" y="46"/>
      <point x="1328" y="146"/>
      <point x="1328" y="422" type="curve" smooth="yes"/>
      <point x="1328" y="1414" type="line"/>
      <point x="1462" y="1449" type="line"/>
      <point x="1462" y="1486" type="line"/>
      <point x="302" y="1486" type="line"/>
      <point x="302" y="1449" type="line"/>
      <point x="542" y="1414" type="line"/>
      <point x="542" y="1224" type="line" smooth="yes"/>
      <point x="542" y="721"/>
      <point x="460" y="528"/>
      <point x="398" y="418" type="curve" smooth="yes"/>
      <point x="325" y="288"/>
      <point x="237" y="284"/>
      <point x="146" y="284" type="curve" smooth="yes"/>
      <point x="86" y="284"/>
      <point x="53" y="286"/>
      <point x="10" y="290" type="curve"/>
      <point x="32" y="0" type="line"/>
      <point x="57" y="-8"/>
      <point x="91" y="-13"/>
      <point x="133" y="-13" type="curve" smooth="yes"/>
      <point x="275" y="-13"/>
      <point x="347" y="58"/>
      <point x="429" y="201" type="curve" smooth="yes"/>
      <point x="534" y="383"/>
      <point x="600" y="755"/>
      <point x="600" y="1175" type="curve" smooth="yes"/>
      <point x="600" y="1414" type="line"/>
      <point x="924" y="1414" type="line"/>
      <point x="924" y="422" type="line" smooth="yes"/>
      <point x="924" y="100"/>
      <point x="1087" y="-16"/>
    </contour>
  </outline>
</glyph>
<glyph name="kominje-cy" format="2">
  <advance width="2072"/>
  <unicode hex="050B"/>
  <anchor x="713" y="-166" name="mark0"/>
  <outline>
    <contour>
      <point x="1303" y="284" type="curve" smooth="yes"/>
      <point x="1303" y="958" type="line"/>
      <point x="1435" y="982" type="line"/>
      <point x="1435" y="1112" type="line"/>
      <point x="835" y="1112" type="line"/>
      <point x="835" y="982" type="line"/>
      <point x="969" y="958" type="line"/>
      <point x="969" y="648" type="line"/>
      <point x="547" y="648" type="line"/>
      <point x="547" y="958" type="line"/>
      <point x="679" y="982" type="line"/>
      <point x="679" y="1112" type="line"/>
      <point x="81" y="1112" type="line"/>
      <point x="81" y="982" type="line"/>
      <point x="215" y="958" type="line"/>
      <point x="215" y="150" type="line"/>
      <point x="83" y="132" type="line"/>
      <point x="83" y="0" type="line"/>
      <point x="681" y="0" type="line"/>
      <point x="681" y="132" type="line"/>
      <point x="547" y="152" type="line"/>
      <point x="547" y="506" type="line"/>
      <point x="969" y="506" type="line"/>
      <point x="969" y="296" type="line" smooth="yes"/>
      <point x="969" y="92"/>
      <point x="1145" y="-16"/>
      <point x="1445" y="-16" type="curve" smooth="yes"/>
      <point x="1739" y="-16"/>
      <point x="1953" y="74"/>
      <point x="1951" y="304" type="curve" smooth="yes"/>
      <point x="1951" y="486" type="line"/>
      <point x="2059" y="506" type="line"/>
      <point x="2059" y="640" type="line"/>
      <point x="1499" y="640" type="line"/>
      <point x="1499" y="506" type="line"/>
      <point x="1619" y="484" type="line"/>
      <point x="1619" y="298" type="line" smooth="yes"/>
      <point x="1619" y="162"/>
      <point x="1571" y="116"/>
      <point x="1463" y="116" type="curve" smooth="yes"/>
      <point x="1347" y="116"/>
      <point x="1303" y="168"/>
    </contour>
  </outline>
</glyph>
<glyph name="Komisje-cy" format="2">
  <advance width="1470"/>
  <unicode hex="050C"/>
  <outline>
    <contour>
      <point x="758" y="-22" type="curve" smooth="yes"/>
      <point x="1122" y="-22"/>
      <point x="1361" y="134"/>
      <point x="1361" y="370" type="curve" smooth="yes"/>
      <point x="1361" y="767" type="line"/>
      <point x="1445" y="787" type="line"/>
      <point x="1445" y="840" type="line"/>
      <point x="825" y="840" type="line"/>
      <point x="825" y="787" type="line"/>
      <point x="1001" y="767" type="line"/>
      <point x="1001" y="324" type="line" smooth="yes"/>
      <point x="1001" y="151"/>
      <point x="916" y="36"/>
      <point x="787" y="36" type="curve" smooth="yes"/>
      <point x="525" y="36"/>
      <point x="456" y="385"/>
      <point x="458" y="758" type="curve" smooth="yes"/>
      <point x="460" y="1245"/>
      <point x="563" y="1447"/>
      <point x="805" y="1447" type="curve" smooth="yes"/>
      <point x="968" y="1447"/>
      <point x="1005" y="1381"/>
      <point x="1013" y="1316" type="curve"/>
      <point x="1065" y="1006" type="line"/>
      <point x="1309" y="1006" type="line"/>
      <point x="1363" y="1437" type="line"/>
      <point x="1167" y="1437"/>
      <point x="1086" y="1507"/>
      <point x="789" y="1507" type="curve" smooth="yes"/>
      <point x="299" y="1507"/>
      <point x="20" y="1213"/>
      <point x="20" y="734" type="curve" smooth="yes"/>
      <point x="20" y="289"/>
      <point x="245" y="-22"/>
    </contour>
  </outline>
</glyph>
<glyph name="Pedescender-cy" format="2">
  <advance width="1728"/>
  <unicode hex="0524"/>
  <anchor x="1126" y="0" name="bottomright"/>
  <outline>
    <contour>
      <point x="1464" y="-406" type="curve"/>
      <point x="1656" y="-406" type="line"/>
      <point x="1668" y="-340"/>
      <point x="1720" y="-29"/>
      <point x="1720" y="72" type="curve"/>
      <point x="1320" y="72" type="line"/>
      <point x="1320" y="0" type="line"/>
      <point x="1418" y="0" type="line"/>
      <point x="1438" y="-52"/>
      <point x="1464" y="-342"/>
    </contour>
    <component base="Pe-cy"/>
  </outline>
</glyph>
<glyph name="Shhadescender-cy" format="2">
  <advance width="1632"/>
  <unicode hex="0526"/>
  <anchor x="29" y="1486" name="bottomright"/>
  <anchor x="723" y="742" name="center"/>
  <anchor x="746" y="0" name="top"/>
  <outline>
    <contour>
      <point x="1317" y="-406" type="curve"/>
      <point x="1509" y="-406" type="line"/>
      <point x="1521" y="-340"/>
      <point x="1573" y="-29"/>
      <point x="1573" y="72" type="curve"/>
      <point x="1173" y="72" type="line"/>
      <point x="1173" y="0" type="line"/>
      <point x="1271" y="0" type="line"/>
      <point x="1291" y="-52"/>
      <point x="1317" y="-342"/>
    </contour>
    <component base="Shha-cy"/>
  </outline>
</glyph>
<glyph name="Eldescender-cy" format="2">
  <advance width="1646"/>
  <unicode hex="052E"/>
  <outline>
    <contour>
      <point x="1382" y="-406" type="curve"/>
      <point x="1574" y="-406" type="line"/>
      <point x="1586" y="-340"/>
      <point x="1638" y="-29"/>
      <point x="1638" y="72" type="curve"/>
      <point x="1238" y="72" type="line"/>
      <point x="1238" y="0" type="line"/>
      <point x="1336" y="0" type="line"/>
      <point x="1356" y="-52"/>
      <point x="1382" y="-342"/>
    </contour>
    <component base="El-cy"/>
  </outline>
</glyph>
<glyph name="dram-arm" format="2">
  <advance width="1772"/>
  <unicode hex="058F"/>
  <outline>
    <contour>
      <point x="1411" y="384" type="line"/>
      <point x="1671" y="384" type="line"/>
      <point x="1671" y="451" type="line"/>
      <point x="1411" y="451" type="line"/>
      <point x="1411" y="623" type="line"/>
      <point x="1671" y="623" type="line"/>
      <point x="1671" y="690" type="line"/>
      <point x="1411" y="690" type="line"/>
      <point x="1411" y="976" type="line" smooth="yes"/>
      <point x="1411" y="1144"/>
      <point x="1436" y="1505"/>
      <point x="807" y="1505" type="curve" smooth="yes"/>
      <point x="392" y="1505"/>
      <point x="185" y="1341"/>
      <point x="185" y="1054" type="curve" smooth="yes"/>
      <point x="185" y="915" type="line"/>
      <point x="72" y="876" type="line"/>
      <point x="72" y="840" type="line"/>
      <point x="642" y="840" type="line"/>
      <point x="642" y="876" type="line"/>
      <point x="532" y="917" type="line"/>
      <point x="532" y="1058" type="line" smooth="yes"/>
      <point x="532" y="1275"/>
      <point x="591" y="1451"/>
      <point x="785" y="1451" type="curve" smooth="yes"/>
      <point x="1018" y="1451"/>
      <point x="1014" y="1151"/>
      <point x="1014" y="1034" type="curve" smooth="yes"/>
      <point x="1014" y="690" type="line"/>
      <point x="747" y="690" type="line"/>
      <point x="747" y="623" type="line"/>
      <point x="1014" y="623" type="line"/>
      <point x="1014" y="451" type="line"/>
      <point x="747" y="451" type="line"/>
      <point x="747" y="384" type="line"/>
      <point x="1014" y="384" type="line"/>
      <point x="1014" y="77" type="line"/>
      <point x="867" y="39" type="line"/>
      <point x="867" y="0" type="line"/>
      <point x="1548" y="0" type="line"/>
      <point x="1548" y="39" type="line"/>
      <point x="1411" y="74" type="line"/>
    </contour>
  </outline>
</glyph>
<glyph name="Germandbls" format="2">
  <advance width="1549"/>
  <unicode hex="1E9E"/>
  <outline>
    <contour>
      <point x="8" y="36" type="line"/>
      <point x="8" y="0" type="line"/>
      <point x="543" y="0" type="line"/>
      <point x="542" y="958" type="line" smooth="yes"/>
      <point x="542" y="1322"/>
      <point x="671" y="1459"/>
      <point x="872" y="1459" type="curve" smooth="yes"/>
      <point x="982" y="1459"/>
      <point x="1032" y="1418"/>
      <point x="1067" y="1376" type="curve"/>
      <point x="757" y="807" type="line"/>
      <point x="757" y="767" type="line"/>
      <point x="1035" y="767"/>
      <point x="1156" y="641"/>
      <point x="1156" y="378" type="curve" smooth="yes"/>
      <point x="1156" y="243"/>
      <point x="1129" y="32"/>
      <point x="1020" y="32" type="curve" smooth="yes"/>
      <point x="958" y="32"/>
      <point x="922" y="71"/>
      <point x="899" y="142" type="curve"/>
      <point x="850" y="372" type="line"/>
      <point x="649" y="372" type="line"/>
      <point x="637" y="30" type="line"/>
      <point x="729" y="30"/>
      <point x="818" y="-21"/>
      <point x="1020" y="-21" type="curve" smooth="yes"/>
      <point x="1364" y="-21"/>
      <point x="1523" y="175"/>
      <point x="1523" y="427" type="curve" smooth="yes"/>
      <point x="1523" y="601"/>
      <point x="1403" y="760"/>
      <point x="1147" y="790" type="curve"/>
      <point x="1474" y="1310" type="line"/>
      <point x="1474" y="1351" type="line"/>
      <point x="1400" y="1351"/>
      <point x="1185" y="1509"/>
      <point x="870" y="1509" type="curve" smooth="yes"/>
      <point x="456" y="1509"/>
      <point x="138" y="1276"/>
      <point x="138" y="874" type="curve" smooth="yes"/>
      <point x="137" y="72" type="line"/>
    </contour>
  </outline>
</glyph>
<glyph name="quoteleft" format="2">
  <advance width="655"/>
  <unicode hex="2018"/>
  <outline>
    <contour>
      <point x="372" y="926" type="curve" smooth="yes"/>
      <point x="454" y="926"/>
      <point x="505" y="982"/>
      <point x="505" y="1056" type="curve" smooth="yes"/>
      <point x="505" y="1205"/>
      <point x="312" y="1201"/>
      <point x="312" y="1299" type="curve" smooth="yes"/>
      <point x="312" y="1447"/>
      <point x="413" y="1579"/>
      <point x="507" y="1665" type="curve"/>
      <point x="507" y="1671" type="line"/>
      <point x="474" y="1693" type="line"/>
      <point x="309" y="1603"/>
      <point x="132" y="1423"/>
      <point x="132" y="1208" type="curve" smooth="yes"/>
      <point x="132" y="1040"/>
      <point x="245" y="926"/>
    </contour>
  </outline>
</glyph>
<glyph name="quotedblright" format="2">
  <advance width="1186"/>
  <unicode hex="201D"/>
  <outline>
    <contour>
      <point x="208" y="927" type="line"/>
      <point x="318" y="984"/>
      <point x="552" y="1162"/>
      <point x="552" y="1407" type="curve" smooth="yes"/>
      <point x="552" y="1568"/>
      <point x="442" y="1693"/>
      <point x="319" y="1693" type="curve" smooth="yes"/>
      <point x="238" y="1693"/>
      <point x="179" y="1638"/>
      <point x="179" y="1564" type="curve" smooth="yes"/>
      <point x="179" y="1427"/>
      <point x="384" y="1438"/>
      <point x="384" y="1285" type="curve" smooth="yes"/>
      <point x="384" y="1176"/>
      <point x="274" y="1032"/>
      <point x="176" y="954" type="curve"/>
      <point x="176" y="948" type="line"/>
    </contour>
    <contour>
      <point x="700" y="927" type="line"/>
      <point x="810" y="984"/>
      <point x="1044" y="1162"/>
      <point x="1044" y="1407" type="curve" smooth="yes"/>
      <point x="1044" y="1568"/>
      <point x="934" y="1693"/>
      <point x="811" y="1693" type="curve" smooth="yes"/>
      <point x="730" y="1693"/>
      <point x="671" y="1638"/>
      <point x="671" y="1564" type="curve" smooth="yes"/>
      <point x="671" y="1427"/>
      <point x="876" y="1438"/>
      <point x="876" y="1285" type="curve" smooth="yes"/>
      <point x="876" y="1176"/>
      <point x="766" y="1032"/>
      <point x="668" y="954" type="curve"/>
      <point x="668" y="948" type="line"/>
    </contour>
  </outline>
</glyph>
<glyph name="minute" format="2">
  <advance width="630"/>
  <unicode hex="2032"/>
  <outline>
    <contour>
      <point x="326" y="1750" type="line"/>
      <point x="202" y="1005" type="line"/>
      <point x="287" y="1005" type="line"/>
      <point x="503" y="1750" type="line"/>
    </contour>
  </outline>
</glyph>
<glyph name="guilsinglleft" format="2">
  <advance width="783"/>
  <unicode hex="2039"/>
  <outline>
    <contour>
      <point x="634" y="1005" type="line"/>
      <point x="78" y="558" type="line"/>
      <point x="78" y="495" type="line"/>
      <point x="634" y="57" type="line"/>
      <point x="679" y="79" type="line"/>
      <point x="377" y="526" type="line"/>
      <point x="679" y="986" type="line"/>
    </contour>
  </outline>
</glyph>
<glyph name="guilsinglright" format="2">
  <advance width="783"/>
  <unicode hex="203A"/>
  <outline>
    <contour>
      <point x="149" y="1005" type="line"/>
      <point x="104" y="986" type="line"/>
      <point x="406" y="526" type="line"/>
      <point x="104" y="79" type="line"/>
      <point x="149" y="57" type="line"/>
      <point x="705" y="495" type="line"/>
      <point x="705" y="558" type="line"/>
    </contour>
  </outline>
</glyph>
<glyph name="sheqel" format="2">
  <advance width="1988"/>
  <unicode hex="20AA"/>
  <outline>
    <contour>
      <point x="193" y="1486" type="line"/>
      <point x="193" y="0" type="line"/>
      <point x="515" y="0" type="line"/>
      <point x="515" y="1421" type="line"/>
      <point x="848" y="1421" type="line" smooth="yes"/>
      <point x="1025" y="1421"/>
      <point x="1048" y="1343"/>
      <point x="1048" y="1158" type="curve" smooth="yes"/>
      <point x="1048" y="302" type="line"/>
      <point x="1369" y="302" type="line"/>
      <point x="1369" y="1099" type="line" smooth="yes"/>
      <point x="1369" y="1434"/>
      <point x="1209" y="1487"/>
      <point x="962" y="1487" type="curve" smooth="yes"/>
    </contour>
    <contour>
      <point x="1792" y="0" type="line"/>
      <point x="1792" y="1487" type="line"/>
      <point x="1470" y="1487" type="line"/>
      <point x="1470" y="66" type="line"/>
      <point x="1148" y="66" type="line" smooth="yes"/>
      <point x="969" y="66"/>
      <point x="935" y="145"/>
      <point x="935" y="330" type="curve" smooth="yes"/>
      <point x="935" y="1183" type="line"/>
      <point x="614" y="1183" type="line"/>
      <point x="614" y="398" type="line" smooth="yes"/>
      <point x="614" y="55"/>
      <point x="766" y="0"/>
      <point x="1050" y="0" type="curve" smooth="yes"/>
    </contour>
  </outline>
</glyph>
<glyph name="euro" format="2">
  <advance width="1635"/>
  <unicode hex="20AC"/>
  <outline>
    <contour>
      <point x="998" y="-28" type="curve" smooth="yes"/>
      <point x="1271" y="-28"/>
      <point x="1374" y="59"/>
      <point x="1479" y="59" type="curve"/>
      <point x="1513" y="437" type="line"/>
      <point x="1326" y="445" type="line"/>
      <point x="1240" y="185" type="line"/>
      <point x="1211" y="85"/>
      <point x="1127" y="29"/>
      <point x="1019" y="29" type="curve" smooth="yes"/>
      <point x="793" y="29"/>
      <point x="704" y="275"/>
      <point x="683" y="577" type="curve"/>
      <point x="1037" y="577" type="line"/>
      <point x="1059" y="644" type="line"/>
      <point x="680" y="644" type="line"/>
      <point x="678" y="703"/>
      <point x="678" y="716"/>
      <point x="678" y="747" type="curve" smooth="yes"/>
      <point x="678" y="761"/>
      <point x="678" y="787"/>
      <point x="679" y="808" type="curve"/>
      <point x="1145" y="808" type="line"/>
      <point x="1167" y="875" type="line"/>
      <point x="683" y="875" type="line"/>
      <point x="704" y="1189"/>
      <point x="808" y="1452"/>
      <point x="1064" y="1452" type="curve" smooth="yes"/>
      <point x="1172" y="1452"/>
      <point x="1243" y="1404"/>
      <point x="1251" y="1321" type="curve" smooth="yes"/>
      <point x="1278" y="1051" type="line"/>
      <point x="1474" y="1051" type="line"/>
      <point x="1513" y="1428" type="line"/>
      <point x="1384" y="1428"/>
      <point x="1270" y="1512"/>
      <point x="1020" y="1512" type="curve" smooth="yes"/>
      <point x="596" y="1512"/>
      <point x="322" y="1269"/>
      <point x="260" y="875" type="curve"/>
      <point x="72" y="875" type="line"/>
      <point x="50" y="808" type="line"/>
      <point x="252" y="808" type="line"/>
      <point x="248" y="757"/>
      <point x="247" y="739"/>
      <point x="247" y="674" type="curve"/>
      <point x="248" y="644" type="line"/>
      <point x="74" y="644" type="line"/>
      <point x="52" y="577" type="line"/>
      <point x="254" y="577" type="line"/>
      <point x="299" y="182"/>
      <point x="574" y="-28"/>
    </contour>
  </outline>
</glyph>
<glyph name="kip" format="2">
  <advance width="1549"/>
  <unicode hex="20AD"/>
  <outline>
    <contour>
      <point x="86" y="0" type="line"/>
      <point x="736" y="0" type="line"/>
      <point x="736" y="38" type="line"/>
      <point x="599" y="71" type="line"/>
      <point x="599" y="775" type="line"/>
      <point x="666" y="775" type="line"/>
      <point x="749" y="689"/>
      <point x="953" y="0"/>
      <point x="1046" y="0" type="curve" smooth="yes"/>
      <point x="1512" y="1" type="line"/>
      <point x="1512" y="39" type="line"/>
      <point x="1432" y="66" type="line"/>
      <point x="1356" y="113"/>
      <point x="1138" y="574"/>
      <point x="961" y="801" type="curve"/>
      <point x="801" y="801" type="line"/>
      <point x="1282" y="1409" type="line"/>
      <point x="1455" y="1447" type="line"/>
      <point x="1455" y="1487" type="line"/>
      <point x="994" y="1486" type="line"/>
      <point x="994" y="1449" type="line"/>
      <point x="1175" y="1412" type="line"/>
      <point x="714" y="812" type="line"/>
      <point x="599" y="812" type="line"/>
      <point x="599" y="1412" type="line"/>
      <point x="737" y="1450" type="line"/>
      <point x="737" y="1486" type="line"/>
      <point x="87" y="1486" type="line"/>
      <point x="87" y="1450" type="line"/>
      <point x="216" y="1412" type="line"/>
      <point x="216" y="71" type="line"/>
      <point x="86" y="38" type="line"/>
    </contour>
    <contour>
      <point x="73" y="765" type="line"/>
      <point x="1456" y="765" type="line"/>
      <point x="1456" y="832" type="line"/>
      <point x="73" y="832" type="line"/>
    </contour>
  </outline>
</glyph>
<glyph name="peso" format="2">
  <advance width="1629"/>
  <unicode hex="20B1"/>
  <outline>
    <contour>
      <point x="122" y="0" type="line"/>
      <point x="864" y="0" type="line"/>
      <point x="864" y="37" type="line"/>
      <point x="661" y="73" type="line"/>
      <point x="661" y="429" type="line"/>
      <point x="676" y="426"/>
      <point x="743" y="421"/>
      <point x="803" y="421" type="curve" smooth="yes"/>
      <point x="1127" y="421"/>
      <point x="1344" y="568"/>
      <point x="1413" y="803" type="curve"/>
      <point x="1611" y="803" type="line"/>
      <point x="1611" y="873" type="line"/>
      <point x="1428" y="873" type="line"/>
      <point x="1433" y="909"/>
      <point x="1436" y="940"/>
      <point x="1436" y="976" type="curve" smooth="yes"/>
      <point x="1436" y="997"/>
      <point x="1435" y="1025"/>
      <point x="1433" y="1044" type="curve"/>
      <point x="1620" y="1044" type="line"/>
      <point x="1620" y="1114" type="line"/>
      <point x="1424" y="1114" type="line"/>
      <point x="1372" y="1369"/>
      <point x="1185" y="1494"/>
      <point x="850" y="1499" type="curve" smooth="yes"/>
      <point x="726" y="1501"/>
      <point x="584" y="1486"/>
      <point x="460" y="1486" type="curve" smooth="yes"/>
      <point x="127" y="1486" type="line"/>
      <point x="127" y="1450" type="line"/>
      <point x="256" y="1412" type="line"/>
      <point x="256" y="1114" type="line"/>
      <point x="57" y="1114" type="line"/>
      <point x="57" y="1044" type="line"/>
      <point x="256" y="1044" type="line"/>
      <point x="256" y="873" type="line"/>
      <point x="55" y="873" type="line"/>
      <point x="55" y="803" type="line"/>
      <point x="256" y="803" type="line"/>
      <point x="256" y="73" type="line"/>
      <point x="122" y="37" type="line"/>
    </contour>
    <contour>
      <point x="660" y="1114" type="line"/>
      <point x="660" y="1432" type="line"/>
      <point x="686" y="1437"/>
      <point x="750" y="1444"/>
      <point x="779" y="1444" type="curve" smooth="yes"/>
      <point x="919" y="1444"/>
      <point x="988" y="1289"/>
      <point x="1011" y="1114" type="curve"/>
    </contour>
    <contour>
      <point x="660" y="498" type="curve"/>
      <point x="660" y="803" type="line"/>
      <point x="1004" y="803" type="line"/>
      <point x="975" y="630"/>
      <point x="911" y="497"/>
      <point x="776" y="488" type="curve" smooth="yes"/>
      <point x="730" y="485"/>
      <point x="670" y="492"/>
    </contour>
    <contour>
      <point x="660" y="873" type="line"/>
      <point x="660" y="1044" type="line"/>
      <point x="1018" y="1044" type="line"/>
      <point x="1020" y="1022"/>
      <point x="1021" y="996"/>
      <point x="1021" y="963" type="curve" smooth="yes"/>
      <point x="1021" y="933"/>
      <point x="1020" y="903"/>
      <point x="1015" y="873" type="curve"/>
    </contour>
  </outline>
</glyph>
<glyph name="tenge" format="2">
  <advance width="1671"/>
  <unicode hex="20B8"/>
  <anchor x="806" y="-166" name="mark0"/>
  <outline>
    <contour>
      <point x="643" y="83" type="line"/>
      <point x="406" y="38" type="line"/>
      <point x="406" y="0" type="line"/>
      <point x="1304" y="0" type="line"/>
      <point x="1304" y="38" type="line"/>
      <point x="1043" y="83" type="line"/>
      <point x="1043" y="1082" type="line"/>
      <point x="1256" y="1053" type="line"/>
      <point x="1386" y="666" type="line"/>
      <point x="1551" y="666" type="line"/>
      <point x="1523" y="1139" type="line"/>
      <point x="157" y="1139" type="line"/>
      <point x="120" y="666" type="line"/>
      <point x="293" y="666" type="line"/>
      <point x="416" y="1053" type="line"/>
      <point x="643" y="1082" type="line"/>
    </contour>
    <contour>
      <point x="158" y="1486" type="line"/>
      <point x="158" y="1425" type="line"/>
      <point x="1523" y="1425" type="line"/>
      <point x="1523" y="1486" type="line"/>
    </contour>
  </outline>
</glyph>
<glyph name="accountof" format="2">
  <advance width="2517"/>
  <unicode hex="2100"/>
  <outline>
    <contour>
      <point x="90" y="839" type="curve" smooth="yes"/>
      <point x="90" y="687"/>
      <point x="203" y="576"/>
      <point x="403" y="576" type="curve"/>
      <point x="524" y="576"/>
      <point x="612" y="644"/>
      <point x="659" y="733" type="curve"/>
      <point x="659" y="668" type="line" smooth="yes"/>
      <point x="659" y="636"/>
      <point x="659" y="579"/>
      <point x="819" y="579" type="curve" smooth="yes"/>
      <point x="925" y="579"/>
      <point x="1065" y="607"/>
      <point x="1082" y="611" type="curve"/>
      <point x="1082" y="647" type="line"/>
      <point x="998" y="667" type="line"/>
      <point x="998" y="1243" type="line" smooth="yes"/>
      <point x="998" y="1491"/>
      <point x="852" y="1582"/>
      <point x="634" y="1582" type="curve" smooth="yes"/>
      <point x="474" y="1582"/>
      <point x="272" y="1526"/>
      <point x="161" y="1446" type="curve"/>
      <point x="196" y="1377" type="line"/>
      <point x="248" y="1401"/>
      <point x="379" y="1423"/>
      <point x="456" y="1423" type="curve" smooth="yes"/>
      <point x="657" y="1423"/>
      <point x="655" y="1282"/>
      <point x="655" y="1231" type="curve" smooth="yes"/>
      <point x="655" y="1173" type="line"/>
      <point x="411" y="1173"/>
      <point x="90" y="1092"/>
    </contour>
    <contour>
      <point x="542" y="724" type="curve" smooth="yes"/>
      <point x="480" y="724"/>
      <point x="432" y="795"/>
      <point x="432" y="890" type="curve" smooth="yes"/>
      <point x="432" y="1001"/>
      <point x="502" y="1115"/>
      <point x="655" y="1117" type="curve"/>
      <point x="655" y="765" type="line"/>
      <point x="628" y="742"/>
      <point x="580" y="724"/>
    </contour>
    <contour>
      <point x="1550" y="469" type="curve" smooth="yes"/>
      <point x="1550" y="184"/>
      <point x="1725" y="-12"/>
      <point x="2023" y="-12" type="curve" smooth="yes"/>
      <point x="2204" y="-12"/>
      <point x="2357" y="69"/>
      <point x="2427" y="138" type="curve"/>
      <point x="2402" y="192" type="line"/>
      <point x="2340" y="143"/>
      <point x="2240" y="123"/>
      <point x="2173" y="123" type="curve" smooth="yes"/>
      <point x="2023" y="123"/>
      <point x="1917" y="219"/>
      <point x="1917" y="526" type="curve" smooth="yes"/>
      <point x="1917" y="865"/>
      <point x="2004" y="926"/>
      <point x="2090" y="926" type="curve" smooth="yes"/>
      <point x="2139" y="926"/>
      <point x="2173" y="876"/>
      <point x="2192" y="805" type="curve" smooth="yes"/>
      <point x="2236" y="639" type="line"/>
      <point x="2407" y="639" type="line"/>
      <point x="2420" y="919" type="line"/>
      <point x="2349" y="927"/>
      <point x="2269" y="990"/>
      <point x="2096" y="990" type="curve" smooth="yes"/>
      <point x="1762" y="990"/>
      <point x="1550" y="786"/>
    </contour>
    <contour>
      <point x="1697" y="1767" type="line"/>
      <point x="1601" y="1767" type="line"/>
      <point x="1016" y="-120" type="line"/>
      <point x="1112" y="-120" type="line"/>
    </contour>
  </outline>
</glyph>
<glyph name="numero" format="2">
  <advance width="2743"/>
  <unicode hex="2116"/>
  <outline>
    <contour>
      <point x="298" y="95" type="line"/>
      <point x="127" y="36" type="line"/>
      <point x="127" y="0" type="line"/>
      <point x="554" y="0" type="line"/>
      <point x="554" y="36" type="line"/>
      <point x="371" y="95" type="line"/>
      <point x="373" y="1160" type="line"/>
      <point x="458" y="1007" type="line"/>
      <point x="1127" y="0" type="line"/>
      <point x="1383" y="0" type="line"/>
      <point x="1383" y="1392" type="line"/>
      <point x="1558" y="1450" type="line"/>
      <point x="1558" y="1486" type="line"/>
      <point x="1129" y="1486" type="line"/>
      <point x="1129" y="1450" type="line"/>
      <point x="1310" y="1392" type="line"/>
      <point x="1311" y="404" type="line"/>
      <point x="1208" y="599" type="line"/>
      <point x="618" y="1486" type="line"/>
      <point x="130" y="1486" type="line"/>
      <point x="130" y="1432" type="line"/>
      <point x="193" y="1432"/>
      <point x="294" y="1304"/>
      <point x="300" y="1241" type="curve"/>
    </contour>
    <contour>
      <point x="2058" y="509" type="curve" smooth="yes"/>
      <point x="2341" y="509"/>
      <point x="2583" y="681"/>
      <point x="2586" y="1028" type="curve" smooth="yes"/>
      <point x="2589" y="1331"/>
      <point x="2408" y="1510"/>
      <point x="2116" y="1510" type="curve" smooth="yes"/>
      <point x="1843" y="1510"/>
      <point x="1586" y="1353"/>
      <point x="1586" y="994" type="curve" smooth="yes"/>
      <point x="1586" y="696"/>
      <point x="1762" y="509"/>
    </contour>
    <contour>
      <point x="2092" y="580" type="curve" smooth="yes"/>
      <point x="1980" y="580"/>
      <point x="1920" y="712"/>
      <point x="1920" y="1021" type="curve" smooth="yes"/>
      <point x="1920" y="1318"/>
      <point x="1977" y="1450"/>
      <point x="2088" y="1448" type="curve" smooth="yes"/>
      <point x="2202" y="1446"/>
      <point x="2255" y="1306"/>
      <point x="2255" y="1005" type="curve" smooth="yes"/>
      <point x="2255" y="702"/>
      <point x="2200" y="580"/>
    </contour>
    <contour>
      <point x="2553" y="77" type="line"/>
      <point x="1615" y="77" type="line"/>
      <point x="1615" y="0" type="line"/>
      <point x="2553" y="0" type="line"/>
    </contour>
  </outline>
</glyph>
<glyph name="published" format="2">
  <advance width="2085"/>
  <unicode hex="2117"/>
  <outline>
    <contour>
      <point x="193" y="979" type="curve" smooth="yes"/>
      <point x="193" y="503"/>
      <point x="574" y="119"/>
      <point x="1044" y="119" type="curve" smooth="yes"/>
      <point x="1517" y="119"/>
      <point x="1892" y="503"/>
      <point x="1892" y="979" type="curve" smooth="yes"/>
      <point x="1892" y="1453"/>
      <point x="1517" y="1836"/>
      <point x="1044" y="1836" type="curve" smooth="yes"/>
      <point x="572" y="1836"/>
      <point x="193" y="1457"/>
    </contour>
    <contour>
      <point x="295" y="978" type="curve" smooth="yes"/>
      <point x="295" y="1409"/>
      <point x="622" y="1748"/>
      <point x="1044" y="1748" type="curve" smooth="yes"/>
      <point x="1462" y="1748"/>
      <point x="1790" y="1405"/>
      <point x="1790" y="979" type="curve" smooth="yes"/>
      <point x="1790" y="551"/>
      <point x="1458" y="210"/>
      <point x="1044" y="210" type="curve" smooth="yes"/>
      <point x="623" y="210"/>
      <point x="295" y="547"/>
    </contour>
    <contour>
      <point x="759" y="580" type="line"/>
      <point x="678" y="546" type="line"/>
      <point x="678" y="509" type="line"/>
      <point x="1092" y="509" type="line"/>
      <point x="1092" y="546" type="line"/>
      <point x="979" y="580" type="line"/>
      <point x="979" y="823" type="line"/>
      <point x="1080" y="823" type="line"/>
      <point x="1381" y="823"/>
      <point x="1467" y="988"/>
      <point x="1467" y="1153" type="curve" smooth="yes"/>
      <point x="1467" y="1330"/>
      <point x="1367" y="1453"/>
      <point x="1099" y="1453" type="curve"/>
      <point x="988" y="1453"/>
      <point x="948" y="1448"/>
      <point x="863" y="1448" type="curve" smooth="yes"/>
      <point x="678" y="1448" type="line"/>
      <point x="678" y="1406" type="line"/>
      <point x="759" y="1376" type="line"/>
    </contour>
    <contour>
      <point x="979" y="893" type="curve"/>
      <point x="979" y="1384" type="line"/>
      <point x="1002" y="1389"/>
      <point x="1036" y="1394"/>
      <point x="1064" y="1394" type="curve" smooth="yes"/>
      <point x="1175" y="1394"/>
      <point x="1234" y="1314"/>
      <point x="1234" y="1166" type="curve" smooth="yes"/>
      <point x="1234" y="1003"/>
      <point x="1163" y="886"/>
      <point x="1065" y="886" type="curve" smooth="yes"/>
      <point x="1039" y="886"/>
      <point x="1003" y="886"/>
    </contour>
  </outline>
</glyph>
<glyph name="servicemark" format="2">
  <advance width="1903"/>
  <unicode hex="2120"/>
  <outline>
    <contour>
      <point x="442" y="887" type="curve" smooth="yes"/>
      <point x="629" y="887"/>
      <point x="741" y="958"/>
      <point x="741" y="1074" type="curve" smooth="yes"/>
      <point x="741" y="1201"/>
      <point x="608" y="1232"/>
      <point x="516" y="1266" type="curve" smooth="yes"/>
      <point x="439" y="1294"/>
      <point x="390" y="1329"/>
      <point x="390" y="1390" type="curve" smooth="yes"/>
      <point x="390" y="1440"/>
      <point x="422" y="1470"/>
      <point x="483" y="1470" type="curve" smooth="yes"/>
      <point x="516" y="1470"/>
      <point x="562" y="1463"/>
      <point x="572" y="1449" type="curve"/>
      <point x="600" y="1332" type="line"/>
      <point x="701" y="1332" type="line"/>
      <point x="701" y="1473" type="line"/>
      <point x="675" y="1481"/>
      <point x="587" y="1505"/>
      <point x="480" y="1505" type="curve" smooth="yes"/>
      <point x="305" y="1505"/>
      <point x="204" y="1440"/>
      <point x="204" y="1328" type="curve" smooth="yes"/>
      <point x="204" y="1210"/>
      <point x="315" y="1164"/>
      <point x="404" y="1135" type="curve" smooth="yes"/>
      <point x="469" y="1114"/>
      <point x="553" y="1090"/>
      <point x="553" y="1011" type="curve" smooth="yes"/>
      <point x="553" y="965"/>
      <point x="525" y="921"/>
      <point x="438" y="921" type="curve" smooth="yes"/>
      <point x="399" y="921"/>
      <point x="345" y="930"/>
      <point x="330" y="943" type="curve"/>
      <point x="308" y="1071" type="line"/>
      <point x="194" y="1072" type="line"/>
      <point x="194" y="919" type="line"/>
      <point x="281" y="898"/>
      <point x="369" y="887"/>
    </contour>
    <contour>
      <point x="885" y="938" type="line"/>
      <point x="792" y="916" type="line"/>
      <point x="792" y="897" type="line"/>
      <point x="1038" y="897" type="line"/>
      <point x="1038" y="916" type="line"/>
      <point x="946" y="938" type="line"/>
      <point x="975" y="1305" type="line"/>
      <point x="987" y="1442" type="line"/>
      <point x="1036" y="1306" type="line"/>
      <point x="1203" y="891" type="line"/>
      <point x="1318" y="891" type="line"/>
      <point x="1480" y="1305" type="line"/>
      <point x="1530" y="1442" type="line"/>
      <point x="1534" y="1305" type="line"/>
      <point x="1559" y="938" type="line"/>
      <point x="1481" y="916" type="line"/>
      <point x="1481" y="897" type="line"/>
      <point x="1807" y="897" type="line"/>
      <point x="1807" y="916" type="line"/>
      <point x="1725" y="938" type="line"/>
      <point x="1674" y="1450" type="line"/>
      <point x="1764" y="1470" type="line"/>
      <point x="1764" y="1495" type="line"/>
      <point x="1490" y="1495" type="line"/>
      <point x="1316" y="1023" type="line"/>
      <point x="1261" y="1201" type="line"/>
      <point x="1151" y="1495" type="line"/>
      <point x="826" y="1495" type="line"/>
      <point x="826" y="1470" type="line"/>
      <point x="934" y="1450" type="line"/>
    </contour>
  </outline>
</glyph>
